%TF.GenerationSoftware,KiCad,Pcbnew,9.0.6*%
%TF.CreationDate,2026-03-12T21:59:21+09:00*%
%TF.ProjectId,VHFAmTxFinal,56484641-6d54-4784-9669-6e616c2e6b69,rev?*%
%TF.SameCoordinates,Original*%
%TF.FileFunction,Legend,Top*%
%TF.FilePolarity,Positive*%
%FSLAX46Y46*%
G04 Gerber Fmt 4.6, Leading zero omitted, Abs format (unit mm)*
G04 Created by KiCad (PCBNEW 9.0.6) date 2026-03-12 21:59:21*
%MOMM*%
%LPD*%
G01*
G04 APERTURE LIST*
%ADD10C,0.100000*%
%ADD11C,0.187500*%
%ADD12C,0.300000*%
%ADD13C,0.150000*%
%ADD14C,0.120000*%
%ADD15C,0.079374*%
%ADD16C,0.105833*%
G04 APERTURE END LIST*
D10*
X103370000Y-55336875D02*
X102443958Y-55839584D01*
X103211250Y-53934584D01*
X103370000Y-55336875D01*
G36*
X103370000Y-55336875D02*
G01*
X102443958Y-55839584D01*
X103211250Y-53934584D01*
X103370000Y-55336875D01*
G37*
D11*
X102100000Y-52400000D02*
X103211250Y-53934584D01*
X103370000Y-55336875D01*
X102443958Y-55839584D01*
X100245350Y-55839584D01*
X99319308Y-55336875D01*
X99478058Y-53934584D01*
X100589308Y-52400000D01*
X100734829Y-52360313D01*
X101039100Y-53861585D01*
X101650208Y-53861585D01*
X101954479Y-52360313D01*
X102100000Y-52400000D01*
D12*
X58459272Y-52176353D02*
X59025939Y-53876353D01*
X59025939Y-53876353D02*
X59592606Y-52176353D01*
X60159272Y-53876353D02*
X60159272Y-52176353D01*
X60159272Y-52985877D02*
X61130701Y-52985877D01*
X61130701Y-53876353D02*
X61130701Y-52176353D01*
X62506891Y-52985877D02*
X61940224Y-52985877D01*
X61940224Y-53876353D02*
X61940224Y-52176353D01*
X61940224Y-52176353D02*
X62749748Y-52176353D01*
X64611653Y-53390639D02*
X65421177Y-53390639D01*
X64449748Y-53876353D02*
X65016415Y-52176353D01*
X65016415Y-52176353D02*
X65583082Y-53876353D01*
X66149748Y-53876353D02*
X66149748Y-52176353D01*
X66149748Y-52176353D02*
X66716415Y-53390639D01*
X66716415Y-53390639D02*
X67283082Y-52176353D01*
X67283082Y-52176353D02*
X67283082Y-53876353D01*
X69144986Y-52176353D02*
X70116415Y-52176353D01*
X69630701Y-53876353D02*
X69630701Y-52176353D01*
X70521177Y-52176353D02*
X71654510Y-53876353D01*
X71654510Y-52176353D02*
X70521177Y-53876353D01*
X74164034Y-52985877D02*
X73597367Y-52985877D01*
X73597367Y-53876353D02*
X73597367Y-52176353D01*
X73597367Y-52176353D02*
X74406891Y-52176353D01*
X75054510Y-53876353D02*
X75054510Y-52743020D01*
X75054510Y-52176353D02*
X74973558Y-52257305D01*
X74973558Y-52257305D02*
X75054510Y-52338258D01*
X75054510Y-52338258D02*
X75135463Y-52257305D01*
X75135463Y-52257305D02*
X75054510Y-52176353D01*
X75054510Y-52176353D02*
X75054510Y-52338258D01*
X75864034Y-52743020D02*
X75864034Y-53876353D01*
X75864034Y-52904924D02*
X75944987Y-52823972D01*
X75944987Y-52823972D02*
X76106892Y-52743020D01*
X76106892Y-52743020D02*
X76349749Y-52743020D01*
X76349749Y-52743020D02*
X76511653Y-52823972D01*
X76511653Y-52823972D02*
X76592606Y-52985877D01*
X76592606Y-52985877D02*
X76592606Y-53876353D01*
X78130701Y-53876353D02*
X78130701Y-52985877D01*
X78130701Y-52985877D02*
X78049748Y-52823972D01*
X78049748Y-52823972D02*
X77887844Y-52743020D01*
X77887844Y-52743020D02*
X77564034Y-52743020D01*
X77564034Y-52743020D02*
X77402129Y-52823972D01*
X78130701Y-53795401D02*
X77968796Y-53876353D01*
X77968796Y-53876353D02*
X77564034Y-53876353D01*
X77564034Y-53876353D02*
X77402129Y-53795401D01*
X77402129Y-53795401D02*
X77321177Y-53633496D01*
X77321177Y-53633496D02*
X77321177Y-53471591D01*
X77321177Y-53471591D02*
X77402129Y-53309686D01*
X77402129Y-53309686D02*
X77564034Y-53228734D01*
X77564034Y-53228734D02*
X77968796Y-53228734D01*
X77968796Y-53228734D02*
X78130701Y-53147781D01*
X79183082Y-53876353D02*
X79021177Y-53795401D01*
X79021177Y-53795401D02*
X78940224Y-53633496D01*
X78940224Y-53633496D02*
X78940224Y-52176353D01*
X80964034Y-52743020D02*
X81368796Y-53876353D01*
X81368796Y-53876353D02*
X81773557Y-52743020D01*
X82744986Y-52176353D02*
X82906891Y-52176353D01*
X82906891Y-52176353D02*
X83068795Y-52257305D01*
X83068795Y-52257305D02*
X83149748Y-52338258D01*
X83149748Y-52338258D02*
X83230700Y-52500162D01*
X83230700Y-52500162D02*
X83311653Y-52823972D01*
X83311653Y-52823972D02*
X83311653Y-53228734D01*
X83311653Y-53228734D02*
X83230700Y-53552543D01*
X83230700Y-53552543D02*
X83149748Y-53714448D01*
X83149748Y-53714448D02*
X83068795Y-53795401D01*
X83068795Y-53795401D02*
X82906891Y-53876353D01*
X82906891Y-53876353D02*
X82744986Y-53876353D01*
X82744986Y-53876353D02*
X82583081Y-53795401D01*
X82583081Y-53795401D02*
X82502129Y-53714448D01*
X82502129Y-53714448D02*
X82421176Y-53552543D01*
X82421176Y-53552543D02*
X82340224Y-53228734D01*
X82340224Y-53228734D02*
X82340224Y-52823972D01*
X82340224Y-52823972D02*
X82421176Y-52500162D01*
X82421176Y-52500162D02*
X82502129Y-52338258D01*
X82502129Y-52338258D02*
X82583081Y-52257305D01*
X82583081Y-52257305D02*
X82744986Y-52176353D01*
X84040224Y-53714448D02*
X84121177Y-53795401D01*
X84121177Y-53795401D02*
X84040224Y-53876353D01*
X84040224Y-53876353D02*
X83959272Y-53795401D01*
X83959272Y-53795401D02*
X84040224Y-53714448D01*
X84040224Y-53714448D02*
X84040224Y-53876353D01*
X84687844Y-52176353D02*
X85740225Y-52176353D01*
X85740225Y-52176353D02*
X85173558Y-52823972D01*
X85173558Y-52823972D02*
X85416415Y-52823972D01*
X85416415Y-52823972D02*
X85578320Y-52904924D01*
X85578320Y-52904924D02*
X85659272Y-52985877D01*
X85659272Y-52985877D02*
X85740225Y-53147781D01*
X85740225Y-53147781D02*
X85740225Y-53552543D01*
X85740225Y-53552543D02*
X85659272Y-53714448D01*
X85659272Y-53714448D02*
X85578320Y-53795401D01*
X85578320Y-53795401D02*
X85416415Y-53876353D01*
X85416415Y-53876353D02*
X84930701Y-53876353D01*
X84930701Y-53876353D02*
X84768796Y-53795401D01*
X84768796Y-53795401D02*
X84687844Y-53714448D01*
D11*
X104728377Y-53268263D02*
X104728377Y-54339692D01*
X104728377Y-54339692D02*
X104656948Y-54553977D01*
X104656948Y-54553977D02*
X104514091Y-54696835D01*
X104514091Y-54696835D02*
X104299805Y-54768263D01*
X104299805Y-54768263D02*
X104156948Y-54768263D01*
X106156948Y-54768263D02*
X105442662Y-54768263D01*
X105442662Y-54768263D02*
X105442662Y-53268263D01*
X107442663Y-54768263D02*
X106585520Y-54768263D01*
X107014091Y-54768263D02*
X107014091Y-53268263D01*
X107014091Y-53268263D02*
X106871234Y-53482549D01*
X106871234Y-53482549D02*
X106728377Y-53625406D01*
X106728377Y-53625406D02*
X106585520Y-53696835D01*
X108085519Y-54768263D02*
X108085519Y-53268263D01*
X108085519Y-53982549D02*
X108942662Y-53982549D01*
X108942662Y-54768263D02*
X108942662Y-53268263D01*
X109656948Y-54768263D02*
X109656948Y-53268263D01*
X109656948Y-53268263D02*
X110156948Y-54339692D01*
X110156948Y-54339692D02*
X110656948Y-53268263D01*
X110656948Y-53268263D02*
X110656948Y-54768263D01*
X111156949Y-53268263D02*
X112014092Y-53268263D01*
X111585520Y-54768263D02*
X111585520Y-53268263D01*
D13*
X87133333Y-56522080D02*
X87085714Y-56569700D01*
X87085714Y-56569700D02*
X86942857Y-56617319D01*
X86942857Y-56617319D02*
X86847619Y-56617319D01*
X86847619Y-56617319D02*
X86704762Y-56569700D01*
X86704762Y-56569700D02*
X86609524Y-56474461D01*
X86609524Y-56474461D02*
X86561905Y-56379223D01*
X86561905Y-56379223D02*
X86514286Y-56188747D01*
X86514286Y-56188747D02*
X86514286Y-56045890D01*
X86514286Y-56045890D02*
X86561905Y-55855414D01*
X86561905Y-55855414D02*
X86609524Y-55760176D01*
X86609524Y-55760176D02*
X86704762Y-55664938D01*
X86704762Y-55664938D02*
X86847619Y-55617319D01*
X86847619Y-55617319D02*
X86942857Y-55617319D01*
X86942857Y-55617319D02*
X87085714Y-55664938D01*
X87085714Y-55664938D02*
X87133333Y-55712557D01*
X87514286Y-55712557D02*
X87561905Y-55664938D01*
X87561905Y-55664938D02*
X87657143Y-55617319D01*
X87657143Y-55617319D02*
X87895238Y-55617319D01*
X87895238Y-55617319D02*
X87990476Y-55664938D01*
X87990476Y-55664938D02*
X88038095Y-55712557D01*
X88038095Y-55712557D02*
X88085714Y-55807795D01*
X88085714Y-55807795D02*
X88085714Y-55903033D01*
X88085714Y-55903033D02*
X88038095Y-56045890D01*
X88038095Y-56045890D02*
X87466667Y-56617319D01*
X87466667Y-56617319D02*
X88085714Y-56617319D01*
X84933333Y-56522080D02*
X84885714Y-56569700D01*
X84885714Y-56569700D02*
X84742857Y-56617319D01*
X84742857Y-56617319D02*
X84647619Y-56617319D01*
X84647619Y-56617319D02*
X84504762Y-56569700D01*
X84504762Y-56569700D02*
X84409524Y-56474461D01*
X84409524Y-56474461D02*
X84361905Y-56379223D01*
X84361905Y-56379223D02*
X84314286Y-56188747D01*
X84314286Y-56188747D02*
X84314286Y-56045890D01*
X84314286Y-56045890D02*
X84361905Y-55855414D01*
X84361905Y-55855414D02*
X84409524Y-55760176D01*
X84409524Y-55760176D02*
X84504762Y-55664938D01*
X84504762Y-55664938D02*
X84647619Y-55617319D01*
X84647619Y-55617319D02*
X84742857Y-55617319D01*
X84742857Y-55617319D02*
X84885714Y-55664938D01*
X84885714Y-55664938D02*
X84933333Y-55712557D01*
X85885714Y-56617319D02*
X85314286Y-56617319D01*
X85600000Y-56617319D02*
X85600000Y-55617319D01*
X85600000Y-55617319D02*
X85504762Y-55760176D01*
X85504762Y-55760176D02*
X85409524Y-55855414D01*
X85409524Y-55855414D02*
X85314286Y-55903033D01*
X65833333Y-96759580D02*
X65785714Y-96807200D01*
X65785714Y-96807200D02*
X65642857Y-96854819D01*
X65642857Y-96854819D02*
X65547619Y-96854819D01*
X65547619Y-96854819D02*
X65404762Y-96807200D01*
X65404762Y-96807200D02*
X65309524Y-96711961D01*
X65309524Y-96711961D02*
X65261905Y-96616723D01*
X65261905Y-96616723D02*
X65214286Y-96426247D01*
X65214286Y-96426247D02*
X65214286Y-96283390D01*
X65214286Y-96283390D02*
X65261905Y-96092914D01*
X65261905Y-96092914D02*
X65309524Y-95997676D01*
X65309524Y-95997676D02*
X65404762Y-95902438D01*
X65404762Y-95902438D02*
X65547619Y-95854819D01*
X65547619Y-95854819D02*
X65642857Y-95854819D01*
X65642857Y-95854819D02*
X65785714Y-95902438D01*
X65785714Y-95902438D02*
X65833333Y-95950057D01*
X66690476Y-96188152D02*
X66690476Y-96854819D01*
X66452381Y-95807200D02*
X66214286Y-96521485D01*
X66214286Y-96521485D02*
X66833333Y-96521485D01*
X53566666Y-73354819D02*
X53566666Y-74069104D01*
X53566666Y-74069104D02*
X53519047Y-74211961D01*
X53519047Y-74211961D02*
X53423809Y-74307200D01*
X53423809Y-74307200D02*
X53280952Y-74354819D01*
X53280952Y-74354819D02*
X53185714Y-74354819D01*
X54566666Y-74354819D02*
X53995238Y-74354819D01*
X54280952Y-74354819D02*
X54280952Y-73354819D01*
X54280952Y-73354819D02*
X54185714Y-73497676D01*
X54185714Y-73497676D02*
X54090476Y-73592914D01*
X54090476Y-73592914D02*
X53995238Y-73640533D01*
X65733333Y-79854819D02*
X65400000Y-79378628D01*
X65161905Y-79854819D02*
X65161905Y-78854819D01*
X65161905Y-78854819D02*
X65542857Y-78854819D01*
X65542857Y-78854819D02*
X65638095Y-78902438D01*
X65638095Y-78902438D02*
X65685714Y-78950057D01*
X65685714Y-78950057D02*
X65733333Y-79045295D01*
X65733333Y-79045295D02*
X65733333Y-79188152D01*
X65733333Y-79188152D02*
X65685714Y-79283390D01*
X65685714Y-79283390D02*
X65638095Y-79331009D01*
X65638095Y-79331009D02*
X65542857Y-79378628D01*
X65542857Y-79378628D02*
X65161905Y-79378628D01*
X66114286Y-78950057D02*
X66161905Y-78902438D01*
X66161905Y-78902438D02*
X66257143Y-78854819D01*
X66257143Y-78854819D02*
X66495238Y-78854819D01*
X66495238Y-78854819D02*
X66590476Y-78902438D01*
X66590476Y-78902438D02*
X66638095Y-78950057D01*
X66638095Y-78950057D02*
X66685714Y-79045295D01*
X66685714Y-79045295D02*
X66685714Y-79140533D01*
X66685714Y-79140533D02*
X66638095Y-79283390D01*
X66638095Y-79283390D02*
X66066667Y-79854819D01*
X66066667Y-79854819D02*
X66685714Y-79854819D01*
X91033333Y-69559580D02*
X90985714Y-69607200D01*
X90985714Y-69607200D02*
X90842857Y-69654819D01*
X90842857Y-69654819D02*
X90747619Y-69654819D01*
X90747619Y-69654819D02*
X90604762Y-69607200D01*
X90604762Y-69607200D02*
X90509524Y-69511961D01*
X90509524Y-69511961D02*
X90461905Y-69416723D01*
X90461905Y-69416723D02*
X90414286Y-69226247D01*
X90414286Y-69226247D02*
X90414286Y-69083390D01*
X90414286Y-69083390D02*
X90461905Y-68892914D01*
X90461905Y-68892914D02*
X90509524Y-68797676D01*
X90509524Y-68797676D02*
X90604762Y-68702438D01*
X90604762Y-68702438D02*
X90747619Y-68654819D01*
X90747619Y-68654819D02*
X90842857Y-68654819D01*
X90842857Y-68654819D02*
X90985714Y-68702438D01*
X90985714Y-68702438D02*
X91033333Y-68750057D01*
X91509524Y-69654819D02*
X91700000Y-69654819D01*
X91700000Y-69654819D02*
X91795238Y-69607200D01*
X91795238Y-69607200D02*
X91842857Y-69559580D01*
X91842857Y-69559580D02*
X91938095Y-69416723D01*
X91938095Y-69416723D02*
X91985714Y-69226247D01*
X91985714Y-69226247D02*
X91985714Y-68845295D01*
X91985714Y-68845295D02*
X91938095Y-68750057D01*
X91938095Y-68750057D02*
X91890476Y-68702438D01*
X91890476Y-68702438D02*
X91795238Y-68654819D01*
X91795238Y-68654819D02*
X91604762Y-68654819D01*
X91604762Y-68654819D02*
X91509524Y-68702438D01*
X91509524Y-68702438D02*
X91461905Y-68750057D01*
X91461905Y-68750057D02*
X91414286Y-68845295D01*
X91414286Y-68845295D02*
X91414286Y-69083390D01*
X91414286Y-69083390D02*
X91461905Y-69178628D01*
X91461905Y-69178628D02*
X91509524Y-69226247D01*
X91509524Y-69226247D02*
X91604762Y-69273866D01*
X91604762Y-69273866D02*
X91795238Y-69273866D01*
X91795238Y-69273866D02*
X91890476Y-69226247D01*
X91890476Y-69226247D02*
X91938095Y-69178628D01*
X91938095Y-69178628D02*
X91985714Y-69083390D01*
X88233333Y-86809580D02*
X88185714Y-86857200D01*
X88185714Y-86857200D02*
X88042857Y-86904819D01*
X88042857Y-86904819D02*
X87947619Y-86904819D01*
X87947619Y-86904819D02*
X87804762Y-86857200D01*
X87804762Y-86857200D02*
X87709524Y-86761961D01*
X87709524Y-86761961D02*
X87661905Y-86666723D01*
X87661905Y-86666723D02*
X87614286Y-86476247D01*
X87614286Y-86476247D02*
X87614286Y-86333390D01*
X87614286Y-86333390D02*
X87661905Y-86142914D01*
X87661905Y-86142914D02*
X87709524Y-86047676D01*
X87709524Y-86047676D02*
X87804762Y-85952438D01*
X87804762Y-85952438D02*
X87947619Y-85904819D01*
X87947619Y-85904819D02*
X88042857Y-85904819D01*
X88042857Y-85904819D02*
X88185714Y-85952438D01*
X88185714Y-85952438D02*
X88233333Y-86000057D01*
X88804762Y-86333390D02*
X88709524Y-86285771D01*
X88709524Y-86285771D02*
X88661905Y-86238152D01*
X88661905Y-86238152D02*
X88614286Y-86142914D01*
X88614286Y-86142914D02*
X88614286Y-86095295D01*
X88614286Y-86095295D02*
X88661905Y-86000057D01*
X88661905Y-86000057D02*
X88709524Y-85952438D01*
X88709524Y-85952438D02*
X88804762Y-85904819D01*
X88804762Y-85904819D02*
X88995238Y-85904819D01*
X88995238Y-85904819D02*
X89090476Y-85952438D01*
X89090476Y-85952438D02*
X89138095Y-86000057D01*
X89138095Y-86000057D02*
X89185714Y-86095295D01*
X89185714Y-86095295D02*
X89185714Y-86142914D01*
X89185714Y-86142914D02*
X89138095Y-86238152D01*
X89138095Y-86238152D02*
X89090476Y-86285771D01*
X89090476Y-86285771D02*
X88995238Y-86333390D01*
X88995238Y-86333390D02*
X88804762Y-86333390D01*
X88804762Y-86333390D02*
X88709524Y-86381009D01*
X88709524Y-86381009D02*
X88661905Y-86428628D01*
X88661905Y-86428628D02*
X88614286Y-86523866D01*
X88614286Y-86523866D02*
X88614286Y-86714342D01*
X88614286Y-86714342D02*
X88661905Y-86809580D01*
X88661905Y-86809580D02*
X88709524Y-86857200D01*
X88709524Y-86857200D02*
X88804762Y-86904819D01*
X88804762Y-86904819D02*
X88995238Y-86904819D01*
X88995238Y-86904819D02*
X89090476Y-86857200D01*
X89090476Y-86857200D02*
X89138095Y-86809580D01*
X89138095Y-86809580D02*
X89185714Y-86714342D01*
X89185714Y-86714342D02*
X89185714Y-86523866D01*
X89185714Y-86523866D02*
X89138095Y-86428628D01*
X89138095Y-86428628D02*
X89090476Y-86381009D01*
X89090476Y-86381009D02*
X88995238Y-86333390D01*
X81533333Y-69554819D02*
X81057143Y-69554819D01*
X81057143Y-69554819D02*
X81057143Y-68554819D01*
X81771429Y-68554819D02*
X82390476Y-68554819D01*
X82390476Y-68554819D02*
X82057143Y-68935771D01*
X82057143Y-68935771D02*
X82200000Y-68935771D01*
X82200000Y-68935771D02*
X82295238Y-68983390D01*
X82295238Y-68983390D02*
X82342857Y-69031009D01*
X82342857Y-69031009D02*
X82390476Y-69126247D01*
X82390476Y-69126247D02*
X82390476Y-69364342D01*
X82390476Y-69364342D02*
X82342857Y-69459580D01*
X82342857Y-69459580D02*
X82295238Y-69507200D01*
X82295238Y-69507200D02*
X82200000Y-69554819D01*
X82200000Y-69554819D02*
X81914286Y-69554819D01*
X81914286Y-69554819D02*
X81819048Y-69507200D01*
X81819048Y-69507200D02*
X81771429Y-69459580D01*
X77233333Y-89259580D02*
X77185714Y-89307200D01*
X77185714Y-89307200D02*
X77042857Y-89354819D01*
X77042857Y-89354819D02*
X76947619Y-89354819D01*
X76947619Y-89354819D02*
X76804762Y-89307200D01*
X76804762Y-89307200D02*
X76709524Y-89211961D01*
X76709524Y-89211961D02*
X76661905Y-89116723D01*
X76661905Y-89116723D02*
X76614286Y-88926247D01*
X76614286Y-88926247D02*
X76614286Y-88783390D01*
X76614286Y-88783390D02*
X76661905Y-88592914D01*
X76661905Y-88592914D02*
X76709524Y-88497676D01*
X76709524Y-88497676D02*
X76804762Y-88402438D01*
X76804762Y-88402438D02*
X76947619Y-88354819D01*
X76947619Y-88354819D02*
X77042857Y-88354819D01*
X77042857Y-88354819D02*
X77185714Y-88402438D01*
X77185714Y-88402438D02*
X77233333Y-88450057D01*
X78090476Y-88354819D02*
X77900000Y-88354819D01*
X77900000Y-88354819D02*
X77804762Y-88402438D01*
X77804762Y-88402438D02*
X77757143Y-88450057D01*
X77757143Y-88450057D02*
X77661905Y-88592914D01*
X77661905Y-88592914D02*
X77614286Y-88783390D01*
X77614286Y-88783390D02*
X77614286Y-89164342D01*
X77614286Y-89164342D02*
X77661905Y-89259580D01*
X77661905Y-89259580D02*
X77709524Y-89307200D01*
X77709524Y-89307200D02*
X77804762Y-89354819D01*
X77804762Y-89354819D02*
X77995238Y-89354819D01*
X77995238Y-89354819D02*
X78090476Y-89307200D01*
X78090476Y-89307200D02*
X78138095Y-89259580D01*
X78138095Y-89259580D02*
X78185714Y-89164342D01*
X78185714Y-89164342D02*
X78185714Y-88926247D01*
X78185714Y-88926247D02*
X78138095Y-88831009D01*
X78138095Y-88831009D02*
X78090476Y-88783390D01*
X78090476Y-88783390D02*
X77995238Y-88735771D01*
X77995238Y-88735771D02*
X77804762Y-88735771D01*
X77804762Y-88735771D02*
X77709524Y-88783390D01*
X77709524Y-88783390D02*
X77661905Y-88831009D01*
X77661905Y-88831009D02*
X77614286Y-88926247D01*
X92457142Y-89159580D02*
X92409523Y-89207200D01*
X92409523Y-89207200D02*
X92266666Y-89254819D01*
X92266666Y-89254819D02*
X92171428Y-89254819D01*
X92171428Y-89254819D02*
X92028571Y-89207200D01*
X92028571Y-89207200D02*
X91933333Y-89111961D01*
X91933333Y-89111961D02*
X91885714Y-89016723D01*
X91885714Y-89016723D02*
X91838095Y-88826247D01*
X91838095Y-88826247D02*
X91838095Y-88683390D01*
X91838095Y-88683390D02*
X91885714Y-88492914D01*
X91885714Y-88492914D02*
X91933333Y-88397676D01*
X91933333Y-88397676D02*
X92028571Y-88302438D01*
X92028571Y-88302438D02*
X92171428Y-88254819D01*
X92171428Y-88254819D02*
X92266666Y-88254819D01*
X92266666Y-88254819D02*
X92409523Y-88302438D01*
X92409523Y-88302438D02*
X92457142Y-88350057D01*
X93409523Y-89254819D02*
X92838095Y-89254819D01*
X93123809Y-89254819D02*
X93123809Y-88254819D01*
X93123809Y-88254819D02*
X93028571Y-88397676D01*
X93028571Y-88397676D02*
X92933333Y-88492914D01*
X92933333Y-88492914D02*
X92838095Y-88540533D01*
X94361904Y-89254819D02*
X93790476Y-89254819D01*
X94076190Y-89254819D02*
X94076190Y-88254819D01*
X94076190Y-88254819D02*
X93980952Y-88397676D01*
X93980952Y-88397676D02*
X93885714Y-88492914D01*
X93885714Y-88492914D02*
X93790476Y-88540533D01*
X116666666Y-72954819D02*
X116666666Y-73669104D01*
X116666666Y-73669104D02*
X116619047Y-73811961D01*
X116619047Y-73811961D02*
X116523809Y-73907200D01*
X116523809Y-73907200D02*
X116380952Y-73954819D01*
X116380952Y-73954819D02*
X116285714Y-73954819D01*
X117047619Y-72954819D02*
X117666666Y-72954819D01*
X117666666Y-72954819D02*
X117333333Y-73335771D01*
X117333333Y-73335771D02*
X117476190Y-73335771D01*
X117476190Y-73335771D02*
X117571428Y-73383390D01*
X117571428Y-73383390D02*
X117619047Y-73431009D01*
X117619047Y-73431009D02*
X117666666Y-73526247D01*
X117666666Y-73526247D02*
X117666666Y-73764342D01*
X117666666Y-73764342D02*
X117619047Y-73859580D01*
X117619047Y-73859580D02*
X117571428Y-73907200D01*
X117571428Y-73907200D02*
X117476190Y-73954819D01*
X117476190Y-73954819D02*
X117190476Y-73954819D01*
X117190476Y-73954819D02*
X117095238Y-73907200D01*
X117095238Y-73907200D02*
X117047619Y-73859580D01*
X84754819Y-62666666D02*
X84754819Y-63142856D01*
X84754819Y-63142856D02*
X83754819Y-63142856D01*
X83850057Y-62380951D02*
X83802438Y-62333332D01*
X83802438Y-62333332D02*
X83754819Y-62238094D01*
X83754819Y-62238094D02*
X83754819Y-61999999D01*
X83754819Y-61999999D02*
X83802438Y-61904761D01*
X83802438Y-61904761D02*
X83850057Y-61857142D01*
X83850057Y-61857142D02*
X83945295Y-61809523D01*
X83945295Y-61809523D02*
X84040533Y-61809523D01*
X84040533Y-61809523D02*
X84183390Y-61857142D01*
X84183390Y-61857142D02*
X84754819Y-62428570D01*
X84754819Y-62428570D02*
X84754819Y-61809523D01*
X62904761Y-60659819D02*
X62571428Y-60183628D01*
X62333333Y-60659819D02*
X62333333Y-59659819D01*
X62333333Y-59659819D02*
X62714285Y-59659819D01*
X62714285Y-59659819D02*
X62809523Y-59707438D01*
X62809523Y-59707438D02*
X62857142Y-59755057D01*
X62857142Y-59755057D02*
X62904761Y-59850295D01*
X62904761Y-59850295D02*
X62904761Y-59993152D01*
X62904761Y-59993152D02*
X62857142Y-60088390D01*
X62857142Y-60088390D02*
X62809523Y-60136009D01*
X62809523Y-60136009D02*
X62714285Y-60183628D01*
X62714285Y-60183628D02*
X62333333Y-60183628D01*
X63190476Y-59659819D02*
X63523809Y-60659819D01*
X63523809Y-60659819D02*
X63857142Y-59659819D01*
X64714285Y-60659819D02*
X64142857Y-60659819D01*
X64428571Y-60659819D02*
X64428571Y-59659819D01*
X64428571Y-59659819D02*
X64333333Y-59802676D01*
X64333333Y-59802676D02*
X64238095Y-59897914D01*
X64238095Y-59897914D02*
X64142857Y-59945533D01*
X97966666Y-57554819D02*
X97966666Y-58269104D01*
X97966666Y-58269104D02*
X97919047Y-58411961D01*
X97919047Y-58411961D02*
X97823809Y-58507200D01*
X97823809Y-58507200D02*
X97680952Y-58554819D01*
X97680952Y-58554819D02*
X97585714Y-58554819D01*
X98395238Y-57650057D02*
X98442857Y-57602438D01*
X98442857Y-57602438D02*
X98538095Y-57554819D01*
X98538095Y-57554819D02*
X98776190Y-57554819D01*
X98776190Y-57554819D02*
X98871428Y-57602438D01*
X98871428Y-57602438D02*
X98919047Y-57650057D01*
X98919047Y-57650057D02*
X98966666Y-57745295D01*
X98966666Y-57745295D02*
X98966666Y-57840533D01*
X98966666Y-57840533D02*
X98919047Y-57983390D01*
X98919047Y-57983390D02*
X98347619Y-58554819D01*
X98347619Y-58554819D02*
X98966666Y-58554819D01*
X95957142Y-69559580D02*
X95909523Y-69607200D01*
X95909523Y-69607200D02*
X95766666Y-69654819D01*
X95766666Y-69654819D02*
X95671428Y-69654819D01*
X95671428Y-69654819D02*
X95528571Y-69607200D01*
X95528571Y-69607200D02*
X95433333Y-69511961D01*
X95433333Y-69511961D02*
X95385714Y-69416723D01*
X95385714Y-69416723D02*
X95338095Y-69226247D01*
X95338095Y-69226247D02*
X95338095Y-69083390D01*
X95338095Y-69083390D02*
X95385714Y-68892914D01*
X95385714Y-68892914D02*
X95433333Y-68797676D01*
X95433333Y-68797676D02*
X95528571Y-68702438D01*
X95528571Y-68702438D02*
X95671428Y-68654819D01*
X95671428Y-68654819D02*
X95766666Y-68654819D01*
X95766666Y-68654819D02*
X95909523Y-68702438D01*
X95909523Y-68702438D02*
X95957142Y-68750057D01*
X96909523Y-69654819D02*
X96338095Y-69654819D01*
X96623809Y-69654819D02*
X96623809Y-68654819D01*
X96623809Y-68654819D02*
X96528571Y-68797676D01*
X96528571Y-68797676D02*
X96433333Y-68892914D01*
X96433333Y-68892914D02*
X96338095Y-68940533D01*
X97528571Y-68654819D02*
X97623809Y-68654819D01*
X97623809Y-68654819D02*
X97719047Y-68702438D01*
X97719047Y-68702438D02*
X97766666Y-68750057D01*
X97766666Y-68750057D02*
X97814285Y-68845295D01*
X97814285Y-68845295D02*
X97861904Y-69035771D01*
X97861904Y-69035771D02*
X97861904Y-69273866D01*
X97861904Y-69273866D02*
X97814285Y-69464342D01*
X97814285Y-69464342D02*
X97766666Y-69559580D01*
X97766666Y-69559580D02*
X97719047Y-69607200D01*
X97719047Y-69607200D02*
X97623809Y-69654819D01*
X97623809Y-69654819D02*
X97528571Y-69654819D01*
X97528571Y-69654819D02*
X97433333Y-69607200D01*
X97433333Y-69607200D02*
X97385714Y-69559580D01*
X97385714Y-69559580D02*
X97338095Y-69464342D01*
X97338095Y-69464342D02*
X97290476Y-69273866D01*
X97290476Y-69273866D02*
X97290476Y-69035771D01*
X97290476Y-69035771D02*
X97338095Y-68845295D01*
X97338095Y-68845295D02*
X97385714Y-68750057D01*
X97385714Y-68750057D02*
X97433333Y-68702438D01*
X97433333Y-68702438D02*
X97528571Y-68654819D01*
X61033333Y-75159580D02*
X60985714Y-75207200D01*
X60985714Y-75207200D02*
X60842857Y-75254819D01*
X60842857Y-75254819D02*
X60747619Y-75254819D01*
X60747619Y-75254819D02*
X60604762Y-75207200D01*
X60604762Y-75207200D02*
X60509524Y-75111961D01*
X60509524Y-75111961D02*
X60461905Y-75016723D01*
X60461905Y-75016723D02*
X60414286Y-74826247D01*
X60414286Y-74826247D02*
X60414286Y-74683390D01*
X60414286Y-74683390D02*
X60461905Y-74492914D01*
X60461905Y-74492914D02*
X60509524Y-74397676D01*
X60509524Y-74397676D02*
X60604762Y-74302438D01*
X60604762Y-74302438D02*
X60747619Y-74254819D01*
X60747619Y-74254819D02*
X60842857Y-74254819D01*
X60842857Y-74254819D02*
X60985714Y-74302438D01*
X60985714Y-74302438D02*
X61033333Y-74350057D01*
X61366667Y-74254819D02*
X61985714Y-74254819D01*
X61985714Y-74254819D02*
X61652381Y-74635771D01*
X61652381Y-74635771D02*
X61795238Y-74635771D01*
X61795238Y-74635771D02*
X61890476Y-74683390D01*
X61890476Y-74683390D02*
X61938095Y-74731009D01*
X61938095Y-74731009D02*
X61985714Y-74826247D01*
X61985714Y-74826247D02*
X61985714Y-75064342D01*
X61985714Y-75064342D02*
X61938095Y-75159580D01*
X61938095Y-75159580D02*
X61890476Y-75207200D01*
X61890476Y-75207200D02*
X61795238Y-75254819D01*
X61795238Y-75254819D02*
X61509524Y-75254819D01*
X61509524Y-75254819D02*
X61414286Y-75207200D01*
X61414286Y-75207200D02*
X61366667Y-75159580D01*
X67133333Y-56654819D02*
X66800000Y-56178628D01*
X66561905Y-56654819D02*
X66561905Y-55654819D01*
X66561905Y-55654819D02*
X66942857Y-55654819D01*
X66942857Y-55654819D02*
X67038095Y-55702438D01*
X67038095Y-55702438D02*
X67085714Y-55750057D01*
X67085714Y-55750057D02*
X67133333Y-55845295D01*
X67133333Y-55845295D02*
X67133333Y-55988152D01*
X67133333Y-55988152D02*
X67085714Y-56083390D01*
X67085714Y-56083390D02*
X67038095Y-56131009D01*
X67038095Y-56131009D02*
X66942857Y-56178628D01*
X66942857Y-56178628D02*
X66561905Y-56178628D01*
X68085714Y-56654819D02*
X67514286Y-56654819D01*
X67800000Y-56654819D02*
X67800000Y-55654819D01*
X67800000Y-55654819D02*
X67704762Y-55797676D01*
X67704762Y-55797676D02*
X67609524Y-55892914D01*
X67609524Y-55892914D02*
X67514286Y-55940533D01*
X65833333Y-82354819D02*
X65357143Y-82354819D01*
X65357143Y-82354819D02*
X65357143Y-81354819D01*
X66690476Y-82354819D02*
X66119048Y-82354819D01*
X66404762Y-82354819D02*
X66404762Y-81354819D01*
X66404762Y-81354819D02*
X66309524Y-81497676D01*
X66309524Y-81497676D02*
X66214286Y-81592914D01*
X66214286Y-81592914D02*
X66119048Y-81640533D01*
X84133333Y-89159580D02*
X84085714Y-89207200D01*
X84085714Y-89207200D02*
X83942857Y-89254819D01*
X83942857Y-89254819D02*
X83847619Y-89254819D01*
X83847619Y-89254819D02*
X83704762Y-89207200D01*
X83704762Y-89207200D02*
X83609524Y-89111961D01*
X83609524Y-89111961D02*
X83561905Y-89016723D01*
X83561905Y-89016723D02*
X83514286Y-88826247D01*
X83514286Y-88826247D02*
X83514286Y-88683390D01*
X83514286Y-88683390D02*
X83561905Y-88492914D01*
X83561905Y-88492914D02*
X83609524Y-88397676D01*
X83609524Y-88397676D02*
X83704762Y-88302438D01*
X83704762Y-88302438D02*
X83847619Y-88254819D01*
X83847619Y-88254819D02*
X83942857Y-88254819D01*
X83942857Y-88254819D02*
X84085714Y-88302438D01*
X84085714Y-88302438D02*
X84133333Y-88350057D01*
X84466667Y-88254819D02*
X85133333Y-88254819D01*
X85133333Y-88254819D02*
X84704762Y-89254819D01*
X106433333Y-80554819D02*
X105957143Y-80554819D01*
X105957143Y-80554819D02*
X105957143Y-79554819D01*
X107242857Y-79554819D02*
X106766667Y-79554819D01*
X106766667Y-79554819D02*
X106719048Y-80031009D01*
X106719048Y-80031009D02*
X106766667Y-79983390D01*
X106766667Y-79983390D02*
X106861905Y-79935771D01*
X106861905Y-79935771D02*
X107100000Y-79935771D01*
X107100000Y-79935771D02*
X107195238Y-79983390D01*
X107195238Y-79983390D02*
X107242857Y-80031009D01*
X107242857Y-80031009D02*
X107290476Y-80126247D01*
X107290476Y-80126247D02*
X107290476Y-80364342D01*
X107290476Y-80364342D02*
X107242857Y-80459580D01*
X107242857Y-80459580D02*
X107195238Y-80507200D01*
X107195238Y-80507200D02*
X107100000Y-80554819D01*
X107100000Y-80554819D02*
X106861905Y-80554819D01*
X106861905Y-80554819D02*
X106766667Y-80507200D01*
X106766667Y-80507200D02*
X106719048Y-80459580D01*
X71504761Y-81450057D02*
X71409523Y-81402438D01*
X71409523Y-81402438D02*
X71314285Y-81307200D01*
X71314285Y-81307200D02*
X71171428Y-81164342D01*
X71171428Y-81164342D02*
X71076190Y-81116723D01*
X71076190Y-81116723D02*
X70980952Y-81116723D01*
X71028571Y-81354819D02*
X70933333Y-81307200D01*
X70933333Y-81307200D02*
X70838095Y-81211961D01*
X70838095Y-81211961D02*
X70790476Y-81021485D01*
X70790476Y-81021485D02*
X70790476Y-80688152D01*
X70790476Y-80688152D02*
X70838095Y-80497676D01*
X70838095Y-80497676D02*
X70933333Y-80402438D01*
X70933333Y-80402438D02*
X71028571Y-80354819D01*
X71028571Y-80354819D02*
X71219047Y-80354819D01*
X71219047Y-80354819D02*
X71314285Y-80402438D01*
X71314285Y-80402438D02*
X71409523Y-80497676D01*
X71409523Y-80497676D02*
X71457142Y-80688152D01*
X71457142Y-80688152D02*
X71457142Y-81021485D01*
X71457142Y-81021485D02*
X71409523Y-81211961D01*
X71409523Y-81211961D02*
X71314285Y-81307200D01*
X71314285Y-81307200D02*
X71219047Y-81354819D01*
X71219047Y-81354819D02*
X71028571Y-81354819D01*
X72409523Y-81354819D02*
X71838095Y-81354819D01*
X72123809Y-81354819D02*
X72123809Y-80354819D01*
X72123809Y-80354819D02*
X72028571Y-80497676D01*
X72028571Y-80497676D02*
X71933333Y-80592914D01*
X71933333Y-80592914D02*
X71838095Y-80640533D01*
X101554819Y-79466666D02*
X101554819Y-79942856D01*
X101554819Y-79942856D02*
X100554819Y-79942856D01*
X100888152Y-78704761D02*
X101554819Y-78704761D01*
X100507200Y-78942856D02*
X101221485Y-79180951D01*
X101221485Y-79180951D02*
X101221485Y-78561904D01*
X110157142Y-76459580D02*
X110109523Y-76507200D01*
X110109523Y-76507200D02*
X109966666Y-76554819D01*
X109966666Y-76554819D02*
X109871428Y-76554819D01*
X109871428Y-76554819D02*
X109728571Y-76507200D01*
X109728571Y-76507200D02*
X109633333Y-76411961D01*
X109633333Y-76411961D02*
X109585714Y-76316723D01*
X109585714Y-76316723D02*
X109538095Y-76126247D01*
X109538095Y-76126247D02*
X109538095Y-75983390D01*
X109538095Y-75983390D02*
X109585714Y-75792914D01*
X109585714Y-75792914D02*
X109633333Y-75697676D01*
X109633333Y-75697676D02*
X109728571Y-75602438D01*
X109728571Y-75602438D02*
X109871428Y-75554819D01*
X109871428Y-75554819D02*
X109966666Y-75554819D01*
X109966666Y-75554819D02*
X110109523Y-75602438D01*
X110109523Y-75602438D02*
X110157142Y-75650057D01*
X111109523Y-76554819D02*
X110538095Y-76554819D01*
X110823809Y-76554819D02*
X110823809Y-75554819D01*
X110823809Y-75554819D02*
X110728571Y-75697676D01*
X110728571Y-75697676D02*
X110633333Y-75792914D01*
X110633333Y-75792914D02*
X110538095Y-75840533D01*
X111490476Y-75650057D02*
X111538095Y-75602438D01*
X111538095Y-75602438D02*
X111633333Y-75554819D01*
X111633333Y-75554819D02*
X111871428Y-75554819D01*
X111871428Y-75554819D02*
X111966666Y-75602438D01*
X111966666Y-75602438D02*
X112014285Y-75650057D01*
X112014285Y-75650057D02*
X112061904Y-75745295D01*
X112061904Y-75745295D02*
X112061904Y-75840533D01*
X112061904Y-75840533D02*
X112014285Y-75983390D01*
X112014285Y-75983390D02*
X111442857Y-76554819D01*
X111442857Y-76554819D02*
X112061904Y-76554819D01*
X72883333Y-86709580D02*
X72835714Y-86757200D01*
X72835714Y-86757200D02*
X72692857Y-86804819D01*
X72692857Y-86804819D02*
X72597619Y-86804819D01*
X72597619Y-86804819D02*
X72454762Y-86757200D01*
X72454762Y-86757200D02*
X72359524Y-86661961D01*
X72359524Y-86661961D02*
X72311905Y-86566723D01*
X72311905Y-86566723D02*
X72264286Y-86376247D01*
X72264286Y-86376247D02*
X72264286Y-86233390D01*
X72264286Y-86233390D02*
X72311905Y-86042914D01*
X72311905Y-86042914D02*
X72359524Y-85947676D01*
X72359524Y-85947676D02*
X72454762Y-85852438D01*
X72454762Y-85852438D02*
X72597619Y-85804819D01*
X72597619Y-85804819D02*
X72692857Y-85804819D01*
X72692857Y-85804819D02*
X72835714Y-85852438D01*
X72835714Y-85852438D02*
X72883333Y-85900057D01*
X73788095Y-85804819D02*
X73311905Y-85804819D01*
X73311905Y-85804819D02*
X73264286Y-86281009D01*
X73264286Y-86281009D02*
X73311905Y-86233390D01*
X73311905Y-86233390D02*
X73407143Y-86185771D01*
X73407143Y-86185771D02*
X73645238Y-86185771D01*
X73645238Y-86185771D02*
X73740476Y-86233390D01*
X73740476Y-86233390D02*
X73788095Y-86281009D01*
X73788095Y-86281009D02*
X73835714Y-86376247D01*
X73835714Y-86376247D02*
X73835714Y-86614342D01*
X73835714Y-86614342D02*
X73788095Y-86709580D01*
X73788095Y-86709580D02*
X73740476Y-86757200D01*
X73740476Y-86757200D02*
X73645238Y-86804819D01*
X73645238Y-86804819D02*
X73407143Y-86804819D01*
X73407143Y-86804819D02*
X73311905Y-86757200D01*
X73311905Y-86757200D02*
X73264286Y-86709580D01*
D14*
%TO.C,C2*%
X87810000Y-58353733D02*
X87810000Y-58646267D01*
X86790000Y-58353733D02*
X86790000Y-58646267D01*
%TO.C,C1*%
X85710000Y-58353733D02*
X85710000Y-58646267D01*
X84690000Y-58353733D02*
X84690000Y-58646267D01*
%TO.C,C4*%
X65490000Y-93853733D02*
X65490000Y-94146267D01*
X66510000Y-93853733D02*
X66510000Y-94146267D01*
%TO.C,J1*%
X56545000Y-78625000D02*
X57045000Y-78375000D01*
X57045000Y-78375000D02*
X57045000Y-78875000D01*
X57045000Y-78875000D02*
X56545000Y-78625000D01*
%TO.C,R2*%
X65477500Y-76757776D02*
X65477500Y-77267224D01*
X66522500Y-76757776D02*
X66522500Y-77267224D01*
%TO.C,C9*%
X89953733Y-70090000D02*
X90246267Y-70090000D01*
X89953733Y-71110000D02*
X90246267Y-71110000D01*
%TO.C,C8*%
X88090000Y-83853733D02*
X88090000Y-84146267D01*
X89110000Y-83853733D02*
X89110000Y-84146267D01*
%TO.C,L3*%
X79700000Y-71300000D02*
X83700000Y-71300000D01*
X79700000Y-78300000D02*
X83700000Y-78300000D01*
D15*
X80000000Y-75000000D02*
X80436562Y-75000000D01*
X82976562Y-75000000D02*
X83413125Y-75000000D01*
X80436562Y-75000000D02*
X80436572Y-74999089D01*
X80436640Y-74996434D01*
X80436713Y-74994489D01*
X80436824Y-74992152D01*
X80436977Y-74989436D01*
X80437182Y-74986357D01*
X80437445Y-74982930D01*
X80437773Y-74979168D01*
X80438174Y-74975086D01*
X80438655Y-74970699D01*
X80439223Y-74966022D01*
X80439885Y-74961068D01*
X80440650Y-74955853D01*
X80441523Y-74950391D01*
X80442003Y-74947571D01*
X80442512Y-74944696D01*
X80443053Y-74941766D01*
X80443626Y-74938783D01*
X80444231Y-74935749D01*
X80444869Y-74932666D01*
X80445543Y-74929536D01*
X80446251Y-74926361D01*
X80446996Y-74923142D01*
X80447779Y-74919881D01*
X80448599Y-74916581D01*
X80449458Y-74913242D01*
X80450358Y-74909867D01*
X80451298Y-74906457D01*
X80452280Y-74903014D01*
X80453305Y-74899541D01*
X80454374Y-74896039D01*
X80455486Y-74892509D01*
X80456645Y-74888954D01*
X80457849Y-74885375D01*
X80459101Y-74881775D01*
X80460401Y-74878154D01*
X80461750Y-74874516D01*
X80463150Y-74870861D01*
X80464599Y-74867191D01*
X80466101Y-74863509D01*
X80467656Y-74859816D01*
X80469263Y-74856113D01*
X80470926Y-74852404D01*
X80472644Y-74848689D01*
X80474418Y-74844970D01*
X80476250Y-74841250D01*
X80478139Y-74837530D01*
X80480088Y-74833811D01*
X80482096Y-74830096D01*
X80484166Y-74826387D01*
X80486297Y-74822684D01*
X80488491Y-74818991D01*
X80490748Y-74815309D01*
X80493070Y-74811639D01*
X80495458Y-74807984D01*
X80497911Y-74804346D01*
X80500432Y-74800725D01*
X80503021Y-74797125D01*
X80505679Y-74793546D01*
X80508407Y-74789991D01*
X80511206Y-74786461D01*
X80514077Y-74782959D01*
X80517020Y-74779486D01*
X80520037Y-74776043D01*
X80523128Y-74772633D01*
X80526295Y-74769258D01*
X80527907Y-74767584D01*
X80529538Y-74765919D01*
X80531188Y-74764264D01*
X80532858Y-74762619D01*
X80534548Y-74760983D01*
X80536257Y-74759358D01*
X80537985Y-74757743D01*
X80539734Y-74756139D01*
X80541503Y-74754546D01*
X80543291Y-74752964D01*
X80545100Y-74751393D01*
X80546930Y-74749834D01*
X80548779Y-74748286D01*
X80550649Y-74746751D01*
X80552540Y-74745228D01*
X80554452Y-74743717D01*
X80556385Y-74742219D01*
X80558338Y-74740734D01*
X80560313Y-74739263D01*
X80562309Y-74737804D01*
X80564326Y-74736360D01*
X80566365Y-74734929D01*
X80568425Y-74733512D01*
X80570507Y-74732109D01*
X80572611Y-74730721D01*
X80574737Y-74729348D01*
X80576885Y-74727990D01*
X80579055Y-74726647D01*
X80581247Y-74725319D01*
X80583461Y-74724008D01*
X80585698Y-74722712D01*
X80587958Y-74721432D01*
X80590240Y-74720168D01*
X80592545Y-74718921D01*
X80594873Y-74717691D01*
X80597224Y-74716478D01*
X80599599Y-74715282D01*
X80601996Y-74714104D01*
X80604417Y-74712943D01*
X80606862Y-74711801D01*
X80609330Y-74710676D01*
X80611822Y-74709570D01*
X80614337Y-74708482D01*
X80616877Y-74707414D01*
X80619440Y-74706364D01*
X80622028Y-74705334D01*
X80624641Y-74704323D01*
X80627277Y-74703332D01*
X80629938Y-74702361D01*
X80632624Y-74701410D01*
X80635334Y-74700480D01*
X80638070Y-74699570D01*
X80640830Y-74698681D01*
X80643616Y-74697814D01*
X80646426Y-74696967D01*
X80649262Y-74696143D01*
X80652124Y-74695340D01*
X80655011Y-74694559D01*
X80657923Y-74693800D01*
X80660862Y-74693064D01*
X80663826Y-74692350D01*
X80666816Y-74691660D01*
X80669832Y-74690992D01*
X80672875Y-74690348D01*
X80675944Y-74689728D01*
X80679039Y-74689131D01*
X80682161Y-74688559D01*
X80685310Y-74688011D01*
X80688486Y-74687487D01*
X80691688Y-74686988D01*
X80694917Y-74686514D01*
X80698174Y-74686066D01*
X80701458Y-74685642D01*
X80704769Y-74685245D01*
X80708108Y-74684873D01*
X80711474Y-74684527D01*
X80714868Y-74684208D01*
X80718289Y-74683916D01*
X80721739Y-74683650D01*
X80725217Y-74683411D01*
X80728723Y-74683199D01*
X80732257Y-74683015D01*
X80735819Y-74682859D01*
X80739411Y-74682730D01*
X80743030Y-74682630D01*
X80746679Y-74682558D01*
X80750356Y-74682514D01*
X80754062Y-74682500D01*
X80754062Y-74682500D02*
X80757138Y-74682510D01*
X80760195Y-74682540D01*
X80763231Y-74682589D01*
X80766248Y-74682659D01*
X80769245Y-74682747D01*
X80772223Y-74682855D01*
X80775182Y-74682983D01*
X80778121Y-74683129D01*
X80781042Y-74683295D01*
X80783943Y-74683479D01*
X80786826Y-74683682D01*
X80789690Y-74683904D01*
X80792536Y-74684144D01*
X80795362Y-74684403D01*
X80798171Y-74684680D01*
X80800961Y-74684975D01*
X80803735Y-74685289D01*
X80806489Y-74685620D01*
X80809226Y-74685970D01*
X80811944Y-74686337D01*
X80814647Y-74686722D01*
X80817330Y-74687125D01*
X80819998Y-74687545D01*
X80822646Y-74687982D01*
X80825280Y-74688438D01*
X80827894Y-74688910D01*
X80830494Y-74689399D01*
X80833075Y-74689906D01*
X80835641Y-74690430D01*
X80838188Y-74690970D01*
X80840722Y-74691528D01*
X80843237Y-74692102D01*
X80845737Y-74692693D01*
X80848220Y-74693300D01*
X80850689Y-74693925D01*
X80853139Y-74694566D01*
X80855577Y-74695223D01*
X80857996Y-74695896D01*
X80860402Y-74696587D01*
X80862790Y-74697293D01*
X80865166Y-74698016D01*
X80867523Y-74698754D01*
X80872195Y-74700280D01*
X80876808Y-74701870D01*
X80881361Y-74703523D01*
X80885857Y-74705240D01*
X80890295Y-74707020D01*
X80894676Y-74708863D01*
X80899001Y-74710769D01*
X80903270Y-74712737D01*
X80907485Y-74714768D01*
X80911646Y-74716860D01*
X80915754Y-74719015D01*
X80919808Y-74721232D01*
X80923810Y-74723510D01*
X80927761Y-74725851D01*
X80931660Y-74728254D01*
X80935508Y-74730718D01*
X80939306Y-74733245D01*
X80943055Y-74735835D01*
X80946753Y-74738486D01*
X80950403Y-74741200D01*
X80954004Y-74743977D01*
X80957556Y-74746817D01*
X80961060Y-74749720D01*
X80964517Y-74752687D01*
X80967925Y-74755718D01*
X80971287Y-74758812D01*
X80974600Y-74761971D01*
X80977867Y-74765194D01*
X80981086Y-74768483D01*
X80984258Y-74771837D01*
X80987383Y-74775257D01*
X80990461Y-74778742D01*
X80993492Y-74782295D01*
X80996475Y-74785914D01*
X80999411Y-74789600D01*
X81002300Y-74793354D01*
X81005140Y-74797176D01*
X81007932Y-74801065D01*
X81010676Y-74805024D01*
X81013371Y-74809051D01*
X81016017Y-74813147D01*
X81018613Y-74817313D01*
X81021159Y-74821548D01*
X81023655Y-74825852D01*
X81026099Y-74830227D01*
X81028492Y-74834671D01*
X81030833Y-74839184D01*
X81033120Y-74843767D01*
X81035354Y-74848420D01*
X81037532Y-74853141D01*
X81039656Y-74857931D01*
X81041723Y-74862788D01*
X81043733Y-74867712D01*
X81045685Y-74872703D01*
X81047578Y-74877758D01*
X81049410Y-74882877D01*
X81051181Y-74888058D01*
X81052890Y-74893298D01*
X81054534Y-74898596D01*
X81056113Y-74903948D01*
X81057626Y-74909352D01*
X81059071Y-74914803D01*
X81060447Y-74920296D01*
X81061751Y-74925828D01*
X81062983Y-74931390D01*
X81064141Y-74936975D01*
X81065222Y-74942574D01*
X81066226Y-74948177D01*
X81067150Y-74953770D01*
X81067992Y-74959336D01*
X81068751Y-74964856D01*
X81069423Y-74970304D01*
X81070008Y-74975646D01*
X81070501Y-74980837D01*
X81070903Y-74985814D01*
X81071209Y-74990485D01*
X81071419Y-74994696D01*
X81071534Y-74998148D01*
X81071562Y-75000000D01*
X81071562Y-75000000D02*
X81071572Y-74999089D01*
X81071640Y-74996434D01*
X81071713Y-74994489D01*
X81071824Y-74992152D01*
X81071977Y-74989436D01*
X81072182Y-74986357D01*
X81072445Y-74982930D01*
X81072773Y-74979168D01*
X81073174Y-74975086D01*
X81073655Y-74970699D01*
X81074223Y-74966022D01*
X81074885Y-74961068D01*
X81075650Y-74955853D01*
X81076523Y-74950391D01*
X81077003Y-74947571D01*
X81077512Y-74944696D01*
X81078053Y-74941766D01*
X81078626Y-74938783D01*
X81079231Y-74935749D01*
X81079869Y-74932666D01*
X81080543Y-74929536D01*
X81081251Y-74926361D01*
X81081996Y-74923142D01*
X81082779Y-74919881D01*
X81083599Y-74916581D01*
X81084458Y-74913242D01*
X81085358Y-74909867D01*
X81086298Y-74906457D01*
X81087280Y-74903014D01*
X81088305Y-74899541D01*
X81089374Y-74896039D01*
X81090486Y-74892509D01*
X81091645Y-74888954D01*
X81092849Y-74885375D01*
X81094101Y-74881775D01*
X81095401Y-74878154D01*
X81096750Y-74874516D01*
X81098150Y-74870861D01*
X81099599Y-74867191D01*
X81101101Y-74863509D01*
X81102656Y-74859816D01*
X81104263Y-74856113D01*
X81105926Y-74852404D01*
X81107644Y-74848689D01*
X81109418Y-74844970D01*
X81111250Y-74841250D01*
X81113139Y-74837530D01*
X81115088Y-74833811D01*
X81117096Y-74830096D01*
X81119166Y-74826387D01*
X81121297Y-74822684D01*
X81123491Y-74818991D01*
X81125748Y-74815309D01*
X81128070Y-74811639D01*
X81130458Y-74807984D01*
X81132911Y-74804346D01*
X81135432Y-74800725D01*
X81138021Y-74797125D01*
X81140679Y-74793546D01*
X81143407Y-74789991D01*
X81146206Y-74786461D01*
X81149077Y-74782959D01*
X81152020Y-74779486D01*
X81155037Y-74776043D01*
X81158128Y-74772633D01*
X81161295Y-74769258D01*
X81162907Y-74767584D01*
X81164538Y-74765919D01*
X81166188Y-74764264D01*
X81167858Y-74762619D01*
X81169548Y-74760983D01*
X81171257Y-74759358D01*
X81172985Y-74757743D01*
X81174734Y-74756139D01*
X81176503Y-74754546D01*
X81178291Y-74752964D01*
X81180100Y-74751393D01*
X81181930Y-74749834D01*
X81183779Y-74748286D01*
X81185649Y-74746751D01*
X81187540Y-74745228D01*
X81189452Y-74743717D01*
X81191385Y-74742219D01*
X81193338Y-74740734D01*
X81195313Y-74739263D01*
X81197309Y-74737804D01*
X81199326Y-74736360D01*
X81201365Y-74734929D01*
X81203425Y-74733512D01*
X81205507Y-74732109D01*
X81207611Y-74730721D01*
X81209737Y-74729348D01*
X81211885Y-74727990D01*
X81214055Y-74726647D01*
X81216247Y-74725319D01*
X81218461Y-74724008D01*
X81220698Y-74722712D01*
X81222958Y-74721432D01*
X81225240Y-74720168D01*
X81227545Y-74718921D01*
X81229873Y-74717691D01*
X81232224Y-74716478D01*
X81234599Y-74715282D01*
X81236996Y-74714104D01*
X81239417Y-74712943D01*
X81241862Y-74711801D01*
X81244330Y-74710676D01*
X81246822Y-74709570D01*
X81249337Y-74708482D01*
X81251877Y-74707414D01*
X81254440Y-74706364D01*
X81257028Y-74705334D01*
X81259641Y-74704323D01*
X81262277Y-74703332D01*
X81264938Y-74702361D01*
X81267624Y-74701410D01*
X81270334Y-74700480D01*
X81273070Y-74699570D01*
X81275830Y-74698681D01*
X81278616Y-74697814D01*
X81281426Y-74696967D01*
X81284262Y-74696143D01*
X81287124Y-74695340D01*
X81290011Y-74694559D01*
X81292923Y-74693800D01*
X81295862Y-74693064D01*
X81298826Y-74692350D01*
X81301816Y-74691660D01*
X81304832Y-74690992D01*
X81307875Y-74690348D01*
X81310944Y-74689728D01*
X81314039Y-74689131D01*
X81317161Y-74688559D01*
X81320310Y-74688011D01*
X81323486Y-74687487D01*
X81326688Y-74686988D01*
X81329917Y-74686514D01*
X81333174Y-74686066D01*
X81336458Y-74685642D01*
X81339769Y-74685245D01*
X81343108Y-74684873D01*
X81346474Y-74684527D01*
X81349868Y-74684208D01*
X81353289Y-74683916D01*
X81356739Y-74683650D01*
X81360217Y-74683411D01*
X81363723Y-74683199D01*
X81367257Y-74683015D01*
X81370819Y-74682859D01*
X81374411Y-74682730D01*
X81378030Y-74682630D01*
X81381679Y-74682558D01*
X81385356Y-74682514D01*
X81389062Y-74682500D01*
X81389062Y-74682500D02*
X81392138Y-74682510D01*
X81395195Y-74682540D01*
X81398231Y-74682589D01*
X81401248Y-74682659D01*
X81404245Y-74682747D01*
X81407223Y-74682855D01*
X81410182Y-74682983D01*
X81413121Y-74683129D01*
X81416042Y-74683295D01*
X81418943Y-74683479D01*
X81421826Y-74683682D01*
X81424690Y-74683904D01*
X81427536Y-74684144D01*
X81430362Y-74684403D01*
X81433171Y-74684680D01*
X81435961Y-74684975D01*
X81438735Y-74685289D01*
X81441489Y-74685620D01*
X81444226Y-74685970D01*
X81446944Y-74686337D01*
X81449647Y-74686722D01*
X81452330Y-74687125D01*
X81454998Y-74687545D01*
X81457646Y-74687982D01*
X81460280Y-74688438D01*
X81462894Y-74688910D01*
X81465494Y-74689399D01*
X81468075Y-74689906D01*
X81470641Y-74690430D01*
X81473188Y-74690970D01*
X81475722Y-74691528D01*
X81478237Y-74692102D01*
X81480737Y-74692693D01*
X81483220Y-74693300D01*
X81485689Y-74693925D01*
X81488139Y-74694566D01*
X81490577Y-74695223D01*
X81492996Y-74695896D01*
X81495402Y-74696587D01*
X81497790Y-74697293D01*
X81500166Y-74698016D01*
X81502523Y-74698754D01*
X81507195Y-74700280D01*
X81511808Y-74701870D01*
X81516361Y-74703523D01*
X81520857Y-74705240D01*
X81525295Y-74707020D01*
X81529676Y-74708863D01*
X81534001Y-74710769D01*
X81538270Y-74712737D01*
X81542485Y-74714768D01*
X81546646Y-74716860D01*
X81550754Y-74719015D01*
X81554808Y-74721232D01*
X81558810Y-74723510D01*
X81562761Y-74725851D01*
X81566660Y-74728254D01*
X81570508Y-74730718D01*
X81574306Y-74733245D01*
X81578055Y-74735835D01*
X81581753Y-74738486D01*
X81585403Y-74741200D01*
X81589004Y-74743977D01*
X81592556Y-74746817D01*
X81596060Y-74749720D01*
X81599517Y-74752687D01*
X81602925Y-74755718D01*
X81606287Y-74758812D01*
X81609600Y-74761971D01*
X81612867Y-74765194D01*
X81616086Y-74768483D01*
X81619258Y-74771837D01*
X81622383Y-74775257D01*
X81625461Y-74778742D01*
X81628492Y-74782295D01*
X81631475Y-74785914D01*
X81634411Y-74789600D01*
X81637300Y-74793354D01*
X81640140Y-74797176D01*
X81642932Y-74801065D01*
X81645676Y-74805024D01*
X81648371Y-74809051D01*
X81651017Y-74813147D01*
X81653613Y-74817313D01*
X81656159Y-74821548D01*
X81658655Y-74825852D01*
X81661099Y-74830227D01*
X81663492Y-74834671D01*
X81665833Y-74839184D01*
X81668120Y-74843767D01*
X81670354Y-74848420D01*
X81672532Y-74853141D01*
X81674656Y-74857931D01*
X81676723Y-74862788D01*
X81678733Y-74867712D01*
X81680685Y-74872703D01*
X81682578Y-74877758D01*
X81684410Y-74882877D01*
X81686181Y-74888058D01*
X81687890Y-74893298D01*
X81689534Y-74898596D01*
X81691113Y-74903948D01*
X81692626Y-74909352D01*
X81694071Y-74914803D01*
X81695447Y-74920296D01*
X81696751Y-74925828D01*
X81697983Y-74931390D01*
X81699141Y-74936975D01*
X81700222Y-74942574D01*
X81701226Y-74948177D01*
X81702150Y-74953770D01*
X81702992Y-74959336D01*
X81703751Y-74964856D01*
X81704423Y-74970304D01*
X81705008Y-74975646D01*
X81705501Y-74980837D01*
X81705903Y-74985814D01*
X81706209Y-74990485D01*
X81706419Y-74994696D01*
X81706534Y-74998148D01*
X81706562Y-75000000D01*
X81706562Y-75000000D02*
X81706572Y-74999089D01*
X81706640Y-74996434D01*
X81706713Y-74994489D01*
X81706824Y-74992152D01*
X81706977Y-74989436D01*
X81707182Y-74986357D01*
X81707445Y-74982930D01*
X81707773Y-74979168D01*
X81708174Y-74975086D01*
X81708655Y-74970699D01*
X81709223Y-74966022D01*
X81709885Y-74961068D01*
X81710650Y-74955853D01*
X81711523Y-74950391D01*
X81712003Y-74947571D01*
X81712512Y-74944696D01*
X81713053Y-74941766D01*
X81713626Y-74938783D01*
X81714231Y-74935749D01*
X81714869Y-74932666D01*
X81715543Y-74929536D01*
X81716251Y-74926361D01*
X81716996Y-74923142D01*
X81717779Y-74919881D01*
X81718599Y-74916581D01*
X81719458Y-74913242D01*
X81720358Y-74909867D01*
X81721298Y-74906457D01*
X81722280Y-74903014D01*
X81723305Y-74899541D01*
X81724374Y-74896039D01*
X81725486Y-74892509D01*
X81726645Y-74888954D01*
X81727849Y-74885375D01*
X81729101Y-74881775D01*
X81730401Y-74878154D01*
X81731750Y-74874516D01*
X81733150Y-74870861D01*
X81734599Y-74867191D01*
X81736101Y-74863509D01*
X81737656Y-74859816D01*
X81739263Y-74856113D01*
X81740926Y-74852404D01*
X81742644Y-74848689D01*
X81744418Y-74844970D01*
X81746250Y-74841250D01*
X81748139Y-74837530D01*
X81750088Y-74833811D01*
X81752096Y-74830096D01*
X81754166Y-74826387D01*
X81756297Y-74822684D01*
X81758491Y-74818991D01*
X81760748Y-74815309D01*
X81763070Y-74811639D01*
X81765458Y-74807984D01*
X81767911Y-74804346D01*
X81770432Y-74800725D01*
X81773021Y-74797125D01*
X81775679Y-74793546D01*
X81778407Y-74789991D01*
X81781206Y-74786461D01*
X81784077Y-74782959D01*
X81787020Y-74779486D01*
X81790037Y-74776043D01*
X81793128Y-74772633D01*
X81796295Y-74769258D01*
X81797907Y-74767584D01*
X81799538Y-74765919D01*
X81801188Y-74764264D01*
X81802858Y-74762619D01*
X81804548Y-74760983D01*
X81806257Y-74759358D01*
X81807985Y-74757743D01*
X81809734Y-74756139D01*
X81811503Y-74754546D01*
X81813291Y-74752964D01*
X81815100Y-74751393D01*
X81816930Y-74749834D01*
X81818779Y-74748286D01*
X81820649Y-74746751D01*
X81822540Y-74745228D01*
X81824452Y-74743717D01*
X81826385Y-74742219D01*
X81828338Y-74740734D01*
X81830313Y-74739263D01*
X81832309Y-74737804D01*
X81834326Y-74736360D01*
X81836365Y-74734929D01*
X81838425Y-74733512D01*
X81840507Y-74732109D01*
X81842611Y-74730721D01*
X81844737Y-74729348D01*
X81846885Y-74727990D01*
X81849055Y-74726647D01*
X81851247Y-74725319D01*
X81853461Y-74724008D01*
X81855698Y-74722712D01*
X81857958Y-74721432D01*
X81860240Y-74720168D01*
X81862545Y-74718921D01*
X81864873Y-74717691D01*
X81867224Y-74716478D01*
X81869599Y-74715282D01*
X81871996Y-74714104D01*
X81874417Y-74712943D01*
X81876862Y-74711801D01*
X81879330Y-74710676D01*
X81881822Y-74709570D01*
X81884337Y-74708482D01*
X81886877Y-74707414D01*
X81889440Y-74706364D01*
X81892028Y-74705334D01*
X81894641Y-74704323D01*
X81897277Y-74703332D01*
X81899938Y-74702361D01*
X81902624Y-74701410D01*
X81905334Y-74700480D01*
X81908070Y-74699570D01*
X81910830Y-74698681D01*
X81913616Y-74697814D01*
X81916426Y-74696967D01*
X81919262Y-74696143D01*
X81922124Y-74695340D01*
X81925011Y-74694559D01*
X81927923Y-74693800D01*
X81930862Y-74693064D01*
X81933826Y-74692350D01*
X81936816Y-74691660D01*
X81939832Y-74690992D01*
X81942875Y-74690348D01*
X81945944Y-74689728D01*
X81949039Y-74689131D01*
X81952161Y-74688559D01*
X81955310Y-74688011D01*
X81958486Y-74687487D01*
X81961688Y-74686988D01*
X81964917Y-74686514D01*
X81968174Y-74686066D01*
X81971458Y-74685642D01*
X81974769Y-74685245D01*
X81978108Y-74684873D01*
X81981474Y-74684527D01*
X81984868Y-74684208D01*
X81988289Y-74683916D01*
X81991739Y-74683650D01*
X81995217Y-74683411D01*
X81998723Y-74683199D01*
X82002257Y-74683015D01*
X82005819Y-74682859D01*
X82009411Y-74682730D01*
X82013030Y-74682630D01*
X82016679Y-74682558D01*
X82020356Y-74682514D01*
X82024062Y-74682500D01*
X82024062Y-74682500D02*
X82027138Y-74682510D01*
X82030195Y-74682540D01*
X82033231Y-74682589D01*
X82036248Y-74682659D01*
X82039245Y-74682747D01*
X82042223Y-74682855D01*
X82045182Y-74682983D01*
X82048121Y-74683129D01*
X82051042Y-74683295D01*
X82053943Y-74683479D01*
X82056826Y-74683682D01*
X82059690Y-74683904D01*
X82062536Y-74684144D01*
X82065362Y-74684403D01*
X82068171Y-74684680D01*
X82070961Y-74684975D01*
X82073735Y-74685289D01*
X82076489Y-74685620D01*
X82079226Y-74685970D01*
X82081944Y-74686337D01*
X82084647Y-74686722D01*
X82087330Y-74687125D01*
X82089998Y-74687545D01*
X82092646Y-74687982D01*
X82095280Y-74688438D01*
X82097894Y-74688910D01*
X82100494Y-74689399D01*
X82103075Y-74689906D01*
X82105641Y-74690430D01*
X82108188Y-74690970D01*
X82110722Y-74691528D01*
X82113237Y-74692102D01*
X82115737Y-74692693D01*
X82118220Y-74693300D01*
X82120689Y-74693925D01*
X82123139Y-74694566D01*
X82125577Y-74695223D01*
X82127996Y-74695896D01*
X82130402Y-74696587D01*
X82132790Y-74697293D01*
X82135166Y-74698016D01*
X82137523Y-74698754D01*
X82142195Y-74700280D01*
X82146808Y-74701870D01*
X82151361Y-74703523D01*
X82155857Y-74705240D01*
X82160295Y-74707020D01*
X82164676Y-74708863D01*
X82169001Y-74710769D01*
X82173270Y-74712737D01*
X82177485Y-74714768D01*
X82181646Y-74716860D01*
X82185754Y-74719015D01*
X82189808Y-74721232D01*
X82193810Y-74723510D01*
X82197761Y-74725851D01*
X82201660Y-74728254D01*
X82205508Y-74730718D01*
X82209306Y-74733245D01*
X82213055Y-74735835D01*
X82216753Y-74738486D01*
X82220403Y-74741200D01*
X82224004Y-74743977D01*
X82227556Y-74746817D01*
X82231060Y-74749720D01*
X82234517Y-74752687D01*
X82237925Y-74755718D01*
X82241287Y-74758812D01*
X82244600Y-74761971D01*
X82247867Y-74765194D01*
X82251086Y-74768483D01*
X82254258Y-74771837D01*
X82257383Y-74775257D01*
X82260461Y-74778742D01*
X82263492Y-74782295D01*
X82266475Y-74785914D01*
X82269411Y-74789600D01*
X82272300Y-74793354D01*
X82275140Y-74797176D01*
X82277932Y-74801065D01*
X82280676Y-74805024D01*
X82283371Y-74809051D01*
X82286017Y-74813147D01*
X82288613Y-74817313D01*
X82291159Y-74821548D01*
X82293655Y-74825852D01*
X82296099Y-74830227D01*
X82298492Y-74834671D01*
X82300833Y-74839184D01*
X82303120Y-74843767D01*
X82305354Y-74848420D01*
X82307532Y-74853141D01*
X82309656Y-74857931D01*
X82311723Y-74862788D01*
X82313733Y-74867712D01*
X82315685Y-74872703D01*
X82317578Y-74877758D01*
X82319410Y-74882877D01*
X82321181Y-74888058D01*
X82322890Y-74893298D01*
X82324534Y-74898596D01*
X82326113Y-74903948D01*
X82327626Y-74909352D01*
X82329071Y-74914803D01*
X82330447Y-74920296D01*
X82331751Y-74925828D01*
X82332983Y-74931390D01*
X82334141Y-74936975D01*
X82335222Y-74942574D01*
X82336226Y-74948177D01*
X82337150Y-74953770D01*
X82337992Y-74959336D01*
X82338751Y-74964856D01*
X82339423Y-74970304D01*
X82340008Y-74975646D01*
X82340501Y-74980837D01*
X82340903Y-74985814D01*
X82341209Y-74990485D01*
X82341419Y-74994696D01*
X82341534Y-74998148D01*
X82341562Y-75000000D01*
X82341562Y-75000000D02*
X82341572Y-74999089D01*
X82341640Y-74996434D01*
X82341713Y-74994489D01*
X82341824Y-74992152D01*
X82341977Y-74989436D01*
X82342182Y-74986357D01*
X82342445Y-74982930D01*
X82342773Y-74979168D01*
X82343174Y-74975086D01*
X82343655Y-74970699D01*
X82344223Y-74966022D01*
X82344885Y-74961068D01*
X82345650Y-74955853D01*
X82346523Y-74950391D01*
X82347003Y-74947571D01*
X82347512Y-74944696D01*
X82348053Y-74941766D01*
X82348626Y-74938783D01*
X82349231Y-74935749D01*
X82349869Y-74932666D01*
X82350543Y-74929536D01*
X82351251Y-74926361D01*
X82351996Y-74923142D01*
X82352779Y-74919881D01*
X82353599Y-74916581D01*
X82354458Y-74913242D01*
X82355358Y-74909867D01*
X82356298Y-74906457D01*
X82357280Y-74903014D01*
X82358305Y-74899541D01*
X82359374Y-74896039D01*
X82360486Y-74892509D01*
X82361645Y-74888954D01*
X82362849Y-74885375D01*
X82364101Y-74881775D01*
X82365401Y-74878154D01*
X82366750Y-74874516D01*
X82368150Y-74870861D01*
X82369599Y-74867191D01*
X82371101Y-74863509D01*
X82372656Y-74859816D01*
X82374263Y-74856113D01*
X82375926Y-74852404D01*
X82377644Y-74848689D01*
X82379418Y-74844970D01*
X82381250Y-74841250D01*
X82383139Y-74837530D01*
X82385088Y-74833811D01*
X82387096Y-74830096D01*
X82389166Y-74826387D01*
X82391297Y-74822684D01*
X82393491Y-74818991D01*
X82395748Y-74815309D01*
X82398070Y-74811639D01*
X82400458Y-74807984D01*
X82402911Y-74804346D01*
X82405432Y-74800725D01*
X82408021Y-74797125D01*
X82410679Y-74793546D01*
X82413407Y-74789991D01*
X82416206Y-74786461D01*
X82419077Y-74782959D01*
X82422020Y-74779486D01*
X82425037Y-74776043D01*
X82428128Y-74772633D01*
X82431295Y-74769258D01*
X82432907Y-74767584D01*
X82434538Y-74765919D01*
X82436188Y-74764264D01*
X82437858Y-74762619D01*
X82439548Y-74760983D01*
X82441257Y-74759358D01*
X82442985Y-74757743D01*
X82444734Y-74756139D01*
X82446503Y-74754546D01*
X82448291Y-74752964D01*
X82450100Y-74751393D01*
X82451930Y-74749834D01*
X82453779Y-74748286D01*
X82455649Y-74746751D01*
X82457540Y-74745228D01*
X82459452Y-74743717D01*
X82461385Y-74742219D01*
X82463338Y-74740734D01*
X82465313Y-74739263D01*
X82467309Y-74737804D01*
X82469326Y-74736360D01*
X82471365Y-74734929D01*
X82473425Y-74733512D01*
X82475507Y-74732109D01*
X82477611Y-74730721D01*
X82479737Y-74729348D01*
X82481885Y-74727990D01*
X82484055Y-74726647D01*
X82486247Y-74725319D01*
X82488461Y-74724008D01*
X82490698Y-74722712D01*
X82492958Y-74721432D01*
X82495240Y-74720168D01*
X82497545Y-74718921D01*
X82499873Y-74717691D01*
X82502224Y-74716478D01*
X82504599Y-74715282D01*
X82506996Y-74714104D01*
X82509417Y-74712943D01*
X82511862Y-74711801D01*
X82514330Y-74710676D01*
X82516822Y-74709570D01*
X82519337Y-74708482D01*
X82521877Y-74707414D01*
X82524440Y-74706364D01*
X82527028Y-74705334D01*
X82529641Y-74704323D01*
X82532277Y-74703332D01*
X82534938Y-74702361D01*
X82537624Y-74701410D01*
X82540334Y-74700480D01*
X82543070Y-74699570D01*
X82545830Y-74698681D01*
X82548616Y-74697814D01*
X82551426Y-74696967D01*
X82554262Y-74696143D01*
X82557124Y-74695340D01*
X82560011Y-74694559D01*
X82562923Y-74693800D01*
X82565862Y-74693064D01*
X82568826Y-74692350D01*
X82571816Y-74691660D01*
X82574832Y-74690992D01*
X82577875Y-74690348D01*
X82580944Y-74689728D01*
X82584039Y-74689131D01*
X82587161Y-74688559D01*
X82590310Y-74688011D01*
X82593486Y-74687487D01*
X82596688Y-74686988D01*
X82599917Y-74686514D01*
X82603174Y-74686066D01*
X82606458Y-74685642D01*
X82609769Y-74685245D01*
X82613108Y-74684873D01*
X82616474Y-74684527D01*
X82619868Y-74684208D01*
X82623289Y-74683916D01*
X82626739Y-74683650D01*
X82630217Y-74683411D01*
X82633723Y-74683199D01*
X82637257Y-74683015D01*
X82640819Y-74682859D01*
X82644411Y-74682730D01*
X82648030Y-74682630D01*
X82651679Y-74682558D01*
X82655356Y-74682514D01*
X82659062Y-74682500D01*
X82659062Y-74682500D02*
X82662138Y-74682510D01*
X82665195Y-74682540D01*
X82668231Y-74682589D01*
X82671248Y-74682659D01*
X82674245Y-74682747D01*
X82677223Y-74682855D01*
X82680182Y-74682983D01*
X82683121Y-74683129D01*
X82686042Y-74683295D01*
X82688943Y-74683479D01*
X82691826Y-74683682D01*
X82694690Y-74683904D01*
X82697536Y-74684144D01*
X82700362Y-74684403D01*
X82703171Y-74684680D01*
X82705961Y-74684975D01*
X82708735Y-74685289D01*
X82711489Y-74685620D01*
X82714226Y-74685970D01*
X82716944Y-74686337D01*
X82719647Y-74686722D01*
X82722330Y-74687125D01*
X82724998Y-74687545D01*
X82727646Y-74687982D01*
X82730280Y-74688438D01*
X82732894Y-74688910D01*
X82735494Y-74689399D01*
X82738075Y-74689906D01*
X82740641Y-74690430D01*
X82743188Y-74690970D01*
X82745722Y-74691528D01*
X82748237Y-74692102D01*
X82750737Y-74692693D01*
X82753220Y-74693300D01*
X82755689Y-74693925D01*
X82758139Y-74694566D01*
X82760577Y-74695223D01*
X82762996Y-74695896D01*
X82765402Y-74696587D01*
X82767790Y-74697293D01*
X82770166Y-74698016D01*
X82772523Y-74698754D01*
X82777195Y-74700280D01*
X82781808Y-74701870D01*
X82786361Y-74703523D01*
X82790857Y-74705240D01*
X82795295Y-74707020D01*
X82799676Y-74708863D01*
X82804001Y-74710769D01*
X82808270Y-74712737D01*
X82812485Y-74714768D01*
X82816646Y-74716860D01*
X82820754Y-74719015D01*
X82824808Y-74721232D01*
X82828810Y-74723510D01*
X82832761Y-74725851D01*
X82836660Y-74728254D01*
X82840508Y-74730718D01*
X82844306Y-74733245D01*
X82848055Y-74735835D01*
X82851753Y-74738486D01*
X82855403Y-74741200D01*
X82859004Y-74743977D01*
X82862556Y-74746817D01*
X82866060Y-74749720D01*
X82869517Y-74752687D01*
X82872925Y-74755718D01*
X82876287Y-74758812D01*
X82879600Y-74761971D01*
X82882867Y-74765194D01*
X82886086Y-74768483D01*
X82889258Y-74771837D01*
X82892383Y-74775257D01*
X82895461Y-74778742D01*
X82898492Y-74782295D01*
X82901475Y-74785914D01*
X82904411Y-74789600D01*
X82907300Y-74793354D01*
X82910140Y-74797176D01*
X82912932Y-74801065D01*
X82915676Y-74805024D01*
X82918371Y-74809051D01*
X82921017Y-74813147D01*
X82923613Y-74817313D01*
X82926159Y-74821548D01*
X82928655Y-74825852D01*
X82931099Y-74830227D01*
X82933492Y-74834671D01*
X82935833Y-74839184D01*
X82938120Y-74843767D01*
X82940354Y-74848420D01*
X82942532Y-74853141D01*
X82944656Y-74857931D01*
X82946723Y-74862788D01*
X82948733Y-74867712D01*
X82950685Y-74872703D01*
X82952578Y-74877758D01*
X82954410Y-74882877D01*
X82956181Y-74888058D01*
X82957890Y-74893298D01*
X82959534Y-74898596D01*
X82961113Y-74903948D01*
X82962626Y-74909352D01*
X82964071Y-74914803D01*
X82965447Y-74920296D01*
X82966751Y-74925828D01*
X82967983Y-74931390D01*
X82969141Y-74936975D01*
X82970222Y-74942574D01*
X82971226Y-74948177D01*
X82972150Y-74953770D01*
X82972992Y-74959336D01*
X82973751Y-74964856D01*
X82974423Y-74970304D01*
X82975008Y-74975646D01*
X82975501Y-74980837D01*
X82975903Y-74985814D01*
X82976209Y-74990485D01*
X82976419Y-74994696D01*
X82976534Y-74998148D01*
X82976562Y-75000000D01*
D10*
%TO.C,C6*%
X76000000Y-87100000D02*
G75*
G02*
X76034833Y-81880213I1500000J2600000D01*
G01*
X79000000Y-81900000D02*
G75*
G02*
X79001671Y-87099035I-1500000J-2600000D01*
G01*
D14*
%TO.C,C11*%
X93246267Y-86790000D02*
X92953733Y-86790000D01*
X93246267Y-87810000D02*
X92953733Y-87810000D01*
%TO.C,J3*%
X112755000Y-78050000D02*
X113255000Y-78300000D01*
X112755000Y-78550000D02*
X112755000Y-78050000D01*
X113255000Y-78300000D02*
X112755000Y-78550000D01*
%TO.C,L2*%
X71800000Y-60000000D02*
X71800000Y-65000000D01*
D16*
X77165000Y-61200000D02*
X77165000Y-60565000D01*
X77165000Y-64375000D02*
X77165000Y-63740000D01*
X77800000Y-61200000D02*
X77800000Y-63740000D01*
X78011666Y-61200000D02*
X78011666Y-63740000D01*
D14*
X83400000Y-60000000D02*
X83400000Y-65000000D01*
D16*
X77165000Y-61835000D02*
X77168629Y-61834990D01*
X77172241Y-61834960D01*
X77175837Y-61834910D01*
X77179416Y-61834841D01*
X77182978Y-61834752D01*
X77186523Y-61834643D01*
X77190053Y-61834515D01*
X77193565Y-61834368D01*
X77197061Y-61834201D01*
X77200541Y-61834015D01*
X77204004Y-61833810D01*
X77207450Y-61833586D01*
X77210880Y-61833343D01*
X77214293Y-61833081D01*
X77217690Y-61832801D01*
X77221071Y-61832502D01*
X77224435Y-61832184D01*
X77227783Y-61831848D01*
X77231114Y-61831493D01*
X77234429Y-61831120D01*
X77237728Y-61830729D01*
X77241010Y-61830319D01*
X77244276Y-61829892D01*
X77247525Y-61829447D01*
X77250759Y-61828983D01*
X77253976Y-61828502D01*
X77257176Y-61828003D01*
X77260361Y-61827487D01*
X77263529Y-61826952D01*
X77266681Y-61826401D01*
X77269816Y-61825832D01*
X77272936Y-61825245D01*
X77276039Y-61824642D01*
X77279126Y-61824021D01*
X77282197Y-61823383D01*
X77285251Y-61822728D01*
X77288290Y-61822056D01*
X77291312Y-61821368D01*
X77294319Y-61820662D01*
X77297308Y-61819940D01*
X77300282Y-61819201D01*
X77303240Y-61818446D01*
X77306182Y-61817674D01*
X77309107Y-61816886D01*
X77312017Y-61816081D01*
X77314910Y-61815260D01*
X77317788Y-61814423D01*
X77320649Y-61813570D01*
X77323494Y-61812701D01*
X77326323Y-61811816D01*
X77329136Y-61810914D01*
X77331933Y-61809998D01*
X77334714Y-61809065D01*
X77337479Y-61808117D01*
X77340228Y-61807153D01*
X77342961Y-61806174D01*
X77345678Y-61805179D01*
X77348378Y-61804169D01*
X77351064Y-61803143D01*
X77353732Y-61802103D01*
X77356385Y-61801046D01*
X77359021Y-61799976D01*
X77361643Y-61798889D01*
X77364247Y-61797789D01*
X77366836Y-61796673D01*
X77369408Y-61795542D01*
X77371965Y-61794396D01*
X77374506Y-61793236D01*
X77377031Y-61792061D01*
X77379539Y-61790872D01*
X77382032Y-61789668D01*
X77384508Y-61788450D01*
X77386969Y-61787217D01*
X77389413Y-61785971D01*
X77391842Y-61784710D01*
X77394254Y-61783435D01*
X77396651Y-61782145D01*
X77399030Y-61780842D01*
X77401395Y-61779525D01*
X77403743Y-61778194D01*
X77406075Y-61776849D01*
X77408390Y-61775490D01*
X77410691Y-61774118D01*
X77412974Y-61772732D01*
X77415242Y-61771332D01*
X77417493Y-61769919D01*
X77419728Y-61768493D01*
X77421947Y-61767053D01*
X77424150Y-61765600D01*
X77426336Y-61764134D01*
X77428507Y-61762654D01*
X77430661Y-61761162D01*
X77432799Y-61759656D01*
X77434920Y-61758138D01*
X77437026Y-61756607D01*
X77439114Y-61755063D01*
X77441188Y-61753506D01*
X77443243Y-61751937D01*
X77445284Y-61750354D01*
X77447307Y-61748760D01*
X77451305Y-61745533D01*
X77455237Y-61742258D01*
X77459102Y-61738933D01*
X77462902Y-61735560D01*
X77466635Y-61732139D01*
X77470302Y-61728672D01*
X77473901Y-61725158D01*
X77477434Y-61721598D01*
X77480898Y-61717993D01*
X77484296Y-61714343D01*
X77487625Y-61710649D01*
X77490886Y-61706912D01*
X77494078Y-61703132D01*
X77497201Y-61699310D01*
X77500256Y-61695446D01*
X77503241Y-61691542D01*
X77506155Y-61687597D01*
X77509000Y-61683614D01*
X77511775Y-61679591D01*
X77514478Y-61675531D01*
X77517110Y-61671434D01*
X77519671Y-61667300D01*
X77522160Y-61663131D01*
X77524576Y-61658927D01*
X77526921Y-61654689D01*
X77529192Y-61650418D01*
X77531389Y-61646115D01*
X77533513Y-61641781D01*
X77535563Y-61637416D01*
X77537539Y-61633022D01*
X77539440Y-61628599D01*
X77541266Y-61624149D01*
X77543016Y-61619672D01*
X77544691Y-61615169D01*
X77546290Y-61610642D01*
X77547812Y-61606092D01*
X77549257Y-61601518D01*
X77550626Y-61596924D01*
X77551917Y-61592309D01*
X77553131Y-61587675D01*
X77554266Y-61583022D01*
X77555324Y-61578353D01*
X77556303Y-61573668D01*
X77557204Y-61568968D01*
X77558025Y-61564255D01*
X77558768Y-61559529D01*
X77559432Y-61554793D01*
X77560016Y-61550046D01*
X77560521Y-61545291D01*
X77560946Y-61540528D01*
X77561291Y-61535760D01*
X77561557Y-61530986D01*
X77561743Y-61526209D01*
X77561848Y-61521429D01*
X77561874Y-61516648D01*
X77561857Y-61514257D01*
X77561820Y-61511867D01*
X77561763Y-61509477D01*
X77561685Y-61507087D01*
X77561588Y-61504698D01*
X77561471Y-61502310D01*
X77561334Y-61499923D01*
X77561177Y-61497537D01*
X77561000Y-61495152D01*
X77560803Y-61492769D01*
X77560586Y-61490387D01*
X77560349Y-61488007D01*
X77560093Y-61485629D01*
X77559816Y-61483253D01*
X77559519Y-61480879D01*
X77559203Y-61478508D01*
X77558867Y-61476139D01*
X77558510Y-61473772D01*
X77558135Y-61471409D01*
X77557739Y-61469048D01*
X77557323Y-61466691D01*
X77556888Y-61464337D01*
X77556433Y-61461987D01*
X77555959Y-61459639D01*
X77555464Y-61457296D01*
X77554950Y-61454956D01*
X77554417Y-61452621D01*
X77553863Y-61450289D01*
X77553291Y-61447962D01*
X77552699Y-61445639D01*
X77552087Y-61443322D01*
X77551456Y-61441008D01*
X77550805Y-61438700D01*
X77550135Y-61436396D01*
X77549446Y-61434098D01*
X77548737Y-61431804D01*
X77548009Y-61429517D01*
X77547262Y-61427235D01*
X77546496Y-61424959D01*
X77545710Y-61422688D01*
X77544905Y-61420424D01*
X77544081Y-61418164D01*
X77543239Y-61415913D01*
X77542377Y-61413666D01*
X77541496Y-61411427D01*
X77540596Y-61409194D01*
X77539678Y-61406968D01*
X77538740Y-61404748D01*
X77537784Y-61402536D01*
X77536809Y-61400330D01*
X77535815Y-61398133D01*
X77534802Y-61395941D01*
X77533772Y-61393759D01*
X77532722Y-61391582D01*
X77531654Y-61389415D01*
X77530567Y-61387254D01*
X77529462Y-61385102D01*
X77528338Y-61382957D01*
X77527197Y-61380821D01*
X77526036Y-61378693D01*
X77524858Y-61376574D01*
X77523661Y-61374462D01*
X77522447Y-61372360D01*
X77521213Y-61370265D01*
X77519963Y-61368181D01*
X77518693Y-61366104D01*
X77517407Y-61364037D01*
X77516101Y-61361978D01*
X77514779Y-61359929D01*
X77513437Y-61357889D01*
X77512079Y-61355859D01*
X77510702Y-61353837D01*
X77509309Y-61351827D01*
X77507896Y-61349824D01*
X77506467Y-61347833D01*
X77505020Y-61345850D01*
X77503556Y-61343878D01*
X77502073Y-61341915D01*
X77500574Y-61339964D01*
X77499056Y-61338021D01*
X77497522Y-61336090D01*
X77495970Y-61334168D01*
X77494401Y-61332258D01*
X77492814Y-61330357D01*
X77491211Y-61328468D01*
X77489590Y-61326589D01*
X77487952Y-61324721D01*
X77486297Y-61322863D01*
X77484625Y-61321017D01*
X77482935Y-61319181D01*
X77481230Y-61317358D01*
X77479506Y-61315544D01*
X77477766Y-61313743D01*
X77476008Y-61311952D01*
X77474235Y-61310174D01*
X77472444Y-61308406D01*
X77470637Y-61306650D01*
X77468812Y-61304906D01*
X77466971Y-61303174D01*
X77465113Y-61301452D01*
X77463239Y-61299744D01*
X77461347Y-61298047D01*
X77459440Y-61296362D01*
X77457515Y-61294689D01*
X77455574Y-61293029D01*
X77453616Y-61291380D01*
X77451643Y-61289744D01*
X77449652Y-61288120D01*
X77447645Y-61286509D01*
X77445621Y-61284910D01*
X77443582Y-61283324D01*
X77441525Y-61281750D01*
X77439453Y-61280190D01*
X77437363Y-61278641D01*
X77435259Y-61277106D01*
X77433136Y-61275583D01*
X77430999Y-61274074D01*
X77428844Y-61272578D01*
X77426675Y-61271095D01*
X77424487Y-61269625D01*
X77422285Y-61268168D01*
X77420065Y-61266724D01*
X77417831Y-61265295D01*
X77415578Y-61263878D01*
X77413311Y-61262475D01*
X77411027Y-61261085D01*
X77408728Y-61259710D01*
X77406411Y-61258347D01*
X77404080Y-61256999D01*
X77401731Y-61255664D01*
X77399367Y-61254344D01*
X77396986Y-61253037D01*
X77394590Y-61251745D01*
X77392177Y-61250466D01*
X77389749Y-61249202D01*
X77387304Y-61247952D01*
X77384844Y-61246717D01*
X77382367Y-61245495D01*
X77379874Y-61244288D01*
X77377365Y-61243096D01*
X77374841Y-61241918D01*
X77372300Y-61240755D01*
X77369743Y-61239607D01*
X77367170Y-61238473D01*
X77364582Y-61237355D01*
X77361976Y-61236250D01*
X77359356Y-61235162D01*
X77356719Y-61234088D01*
X77354067Y-61233029D01*
X77351397Y-61231986D01*
X77348713Y-61230958D01*
X77346012Y-61229945D01*
X77343295Y-61228948D01*
X77340562Y-61227966D01*
X77337814Y-61226999D01*
X77335048Y-61226048D01*
X77332268Y-61225114D01*
X77329471Y-61224194D01*
X77326658Y-61223291D01*
X77323829Y-61222403D01*
X77320984Y-61221532D01*
X77318123Y-61220676D01*
X77315246Y-61219837D01*
X77312353Y-61219013D01*
X77309444Y-61218207D01*
X77306518Y-61217416D01*
X77303577Y-61216642D01*
X77300620Y-61215884D01*
X77297647Y-61215143D01*
X77294657Y-61214419D01*
X77291651Y-61213711D01*
X77288629Y-61213020D01*
X77285591Y-61212346D01*
X77282537Y-61211689D01*
X77279467Y-61211049D01*
X77276380Y-61210426D01*
X77273278Y-61209820D01*
X77270159Y-61209232D01*
X77267025Y-61208661D01*
X77263873Y-61208107D01*
X77260706Y-61207571D01*
X77257522Y-61207052D01*
X77254323Y-61206551D01*
X77251106Y-61206068D01*
X77247874Y-61205602D01*
X77244625Y-61205155D01*
X77241361Y-61204725D01*
X77238079Y-61204314D01*
X77234782Y-61203921D01*
X77231468Y-61203546D01*
X77228138Y-61203189D01*
X77224791Y-61202851D01*
X77221428Y-61202531D01*
X77218049Y-61202230D01*
X77214653Y-61201947D01*
X77211241Y-61201684D01*
X77207812Y-61201439D01*
X77204367Y-61201213D01*
X77200905Y-61201005D01*
X77197427Y-61200818D01*
X77193933Y-61200649D01*
X77190422Y-61200499D01*
X77186894Y-61200369D01*
X77183350Y-61200259D01*
X77179789Y-61200167D01*
X77176212Y-61200096D01*
X77172618Y-61200044D01*
X77169007Y-61200012D01*
X77165000Y-61200000D01*
X77165000Y-62470000D02*
X77168629Y-62469990D01*
X77172241Y-62469960D01*
X77175837Y-62469910D01*
X77179416Y-62469841D01*
X77182978Y-62469752D01*
X77186523Y-62469643D01*
X77190053Y-62469515D01*
X77193565Y-62469368D01*
X77197061Y-62469201D01*
X77200541Y-62469015D01*
X77204004Y-62468810D01*
X77207450Y-62468586D01*
X77210880Y-62468343D01*
X77214293Y-62468081D01*
X77217690Y-62467801D01*
X77221071Y-62467502D01*
X77224435Y-62467184D01*
X77227783Y-62466848D01*
X77231114Y-62466493D01*
X77234429Y-62466120D01*
X77237728Y-62465729D01*
X77241010Y-62465319D01*
X77244276Y-62464892D01*
X77247525Y-62464447D01*
X77250759Y-62463983D01*
X77253976Y-62463502D01*
X77257176Y-62463003D01*
X77260361Y-62462487D01*
X77263529Y-62461952D01*
X77266681Y-62461401D01*
X77269816Y-62460832D01*
X77272936Y-62460245D01*
X77276039Y-62459642D01*
X77279126Y-62459021D01*
X77282197Y-62458383D01*
X77285251Y-62457728D01*
X77288290Y-62457056D01*
X77291312Y-62456368D01*
X77294319Y-62455662D01*
X77297308Y-62454940D01*
X77300282Y-62454201D01*
X77303240Y-62453446D01*
X77306182Y-62452674D01*
X77309107Y-62451886D01*
X77312017Y-62451081D01*
X77314910Y-62450260D01*
X77317788Y-62449423D01*
X77320649Y-62448570D01*
X77323494Y-62447701D01*
X77326323Y-62446816D01*
X77329136Y-62445914D01*
X77331933Y-62444998D01*
X77334714Y-62444065D01*
X77337479Y-62443117D01*
X77340228Y-62442153D01*
X77342961Y-62441174D01*
X77345678Y-62440179D01*
X77348378Y-62439169D01*
X77351064Y-62438143D01*
X77353732Y-62437103D01*
X77356385Y-62436046D01*
X77359021Y-62434976D01*
X77361643Y-62433889D01*
X77364247Y-62432789D01*
X77366836Y-62431673D01*
X77369408Y-62430542D01*
X77371965Y-62429396D01*
X77374506Y-62428236D01*
X77377031Y-62427061D01*
X77379539Y-62425872D01*
X77382032Y-62424668D01*
X77384508Y-62423450D01*
X77386969Y-62422217D01*
X77389413Y-62420971D01*
X77391842Y-62419710D01*
X77394254Y-62418435D01*
X77396651Y-62417145D01*
X77399030Y-62415842D01*
X77401395Y-62414525D01*
X77403743Y-62413194D01*
X77406075Y-62411849D01*
X77408390Y-62410490D01*
X77410691Y-62409118D01*
X77412974Y-62407732D01*
X77415242Y-62406332D01*
X77417493Y-62404919D01*
X77419728Y-62403493D01*
X77421947Y-62402053D01*
X77424150Y-62400600D01*
X77426336Y-62399134D01*
X77428507Y-62397654D01*
X77430661Y-62396162D01*
X77432799Y-62394656D01*
X77434920Y-62393138D01*
X77437026Y-62391607D01*
X77439114Y-62390063D01*
X77441188Y-62388506D01*
X77443243Y-62386937D01*
X77445284Y-62385354D01*
X77447307Y-62383760D01*
X77451305Y-62380533D01*
X77455237Y-62377258D01*
X77459102Y-62373933D01*
X77462902Y-62370560D01*
X77466635Y-62367139D01*
X77470302Y-62363672D01*
X77473901Y-62360158D01*
X77477434Y-62356598D01*
X77480898Y-62352993D01*
X77484296Y-62349343D01*
X77487625Y-62345649D01*
X77490886Y-62341912D01*
X77494078Y-62338132D01*
X77497201Y-62334310D01*
X77500256Y-62330446D01*
X77503241Y-62326542D01*
X77506155Y-62322597D01*
X77509000Y-62318614D01*
X77511775Y-62314591D01*
X77514478Y-62310531D01*
X77517110Y-62306434D01*
X77519671Y-62302300D01*
X77522160Y-62298131D01*
X77524576Y-62293927D01*
X77526921Y-62289689D01*
X77529192Y-62285418D01*
X77531389Y-62281115D01*
X77533513Y-62276781D01*
X77535563Y-62272416D01*
X77537539Y-62268022D01*
X77539440Y-62263599D01*
X77541266Y-62259149D01*
X77543016Y-62254672D01*
X77544691Y-62250169D01*
X77546290Y-62245642D01*
X77547812Y-62241092D01*
X77549257Y-62236518D01*
X77550626Y-62231924D01*
X77551917Y-62227309D01*
X77553131Y-62222675D01*
X77554266Y-62218022D01*
X77555324Y-62213353D01*
X77556303Y-62208668D01*
X77557204Y-62203968D01*
X77558025Y-62199255D01*
X77558768Y-62194529D01*
X77559432Y-62189793D01*
X77560016Y-62185046D01*
X77560521Y-62180291D01*
X77560946Y-62175528D01*
X77561291Y-62170760D01*
X77561557Y-62165986D01*
X77561743Y-62161209D01*
X77561848Y-62156429D01*
X77561874Y-62151648D01*
X77561857Y-62149257D01*
X77561820Y-62146867D01*
X77561763Y-62144477D01*
X77561685Y-62142087D01*
X77561588Y-62139698D01*
X77561471Y-62137310D01*
X77561334Y-62134923D01*
X77561177Y-62132537D01*
X77561000Y-62130152D01*
X77560803Y-62127769D01*
X77560586Y-62125387D01*
X77560349Y-62123007D01*
X77560093Y-62120629D01*
X77559816Y-62118253D01*
X77559519Y-62115879D01*
X77559203Y-62113508D01*
X77558867Y-62111139D01*
X77558510Y-62108772D01*
X77558135Y-62106409D01*
X77557739Y-62104048D01*
X77557323Y-62101691D01*
X77556888Y-62099337D01*
X77556433Y-62096987D01*
X77555959Y-62094639D01*
X77555464Y-62092296D01*
X77554950Y-62089956D01*
X77554417Y-62087621D01*
X77553863Y-62085289D01*
X77553291Y-62082962D01*
X77552699Y-62080639D01*
X77552087Y-62078322D01*
X77551456Y-62076008D01*
X77550805Y-62073700D01*
X77550135Y-62071396D01*
X77549446Y-62069098D01*
X77548737Y-62066804D01*
X77548009Y-62064517D01*
X77547262Y-62062235D01*
X77546496Y-62059959D01*
X77545710Y-62057688D01*
X77544905Y-62055424D01*
X77544081Y-62053164D01*
X77543239Y-62050913D01*
X77542377Y-62048666D01*
X77541496Y-62046427D01*
X77540596Y-62044194D01*
X77539678Y-62041968D01*
X77538740Y-62039748D01*
X77537784Y-62037536D01*
X77536809Y-62035330D01*
X77535815Y-62033133D01*
X77534802Y-62030941D01*
X77533772Y-62028759D01*
X77532722Y-62026582D01*
X77531654Y-62024415D01*
X77530567Y-62022254D01*
X77529462Y-62020102D01*
X77528338Y-62017957D01*
X77527197Y-62015821D01*
X77526036Y-62013693D01*
X77524858Y-62011574D01*
X77523661Y-62009462D01*
X77522447Y-62007360D01*
X77521213Y-62005265D01*
X77519963Y-62003181D01*
X77518693Y-62001104D01*
X77517407Y-61999037D01*
X77516101Y-61996978D01*
X77514779Y-61994929D01*
X77513437Y-61992889D01*
X77512079Y-61990859D01*
X77510702Y-61988837D01*
X77509309Y-61986827D01*
X77507896Y-61984824D01*
X77506467Y-61982833D01*
X77505020Y-61980850D01*
X77503556Y-61978878D01*
X77502073Y-61976915D01*
X77500574Y-61974964D01*
X77499056Y-61973021D01*
X77497522Y-61971090D01*
X77495970Y-61969168D01*
X77494401Y-61967258D01*
X77492814Y-61965357D01*
X77491211Y-61963468D01*
X77489590Y-61961589D01*
X77487952Y-61959721D01*
X77486297Y-61957863D01*
X77484625Y-61956017D01*
X77482935Y-61954181D01*
X77481230Y-61952358D01*
X77479506Y-61950544D01*
X77477766Y-61948743D01*
X77476008Y-61946952D01*
X77474235Y-61945174D01*
X77472444Y-61943406D01*
X77470637Y-61941650D01*
X77468812Y-61939906D01*
X77466971Y-61938174D01*
X77465113Y-61936452D01*
X77463239Y-61934744D01*
X77461347Y-61933047D01*
X77459440Y-61931362D01*
X77457515Y-61929689D01*
X77455574Y-61928029D01*
X77453616Y-61926380D01*
X77451643Y-61924744D01*
X77449652Y-61923120D01*
X77447645Y-61921509D01*
X77445621Y-61919910D01*
X77443582Y-61918324D01*
X77441525Y-61916750D01*
X77439453Y-61915190D01*
X77437363Y-61913641D01*
X77435259Y-61912106D01*
X77433136Y-61910583D01*
X77430999Y-61909074D01*
X77428844Y-61907578D01*
X77426675Y-61906095D01*
X77424487Y-61904625D01*
X77422285Y-61903168D01*
X77420065Y-61901724D01*
X77417831Y-61900295D01*
X77415578Y-61898878D01*
X77413311Y-61897475D01*
X77411027Y-61896085D01*
X77408728Y-61894710D01*
X77406411Y-61893347D01*
X77404080Y-61891999D01*
X77401731Y-61890664D01*
X77399367Y-61889344D01*
X77396986Y-61888037D01*
X77394590Y-61886745D01*
X77392177Y-61885466D01*
X77389749Y-61884202D01*
X77387304Y-61882952D01*
X77384844Y-61881717D01*
X77382367Y-61880495D01*
X77379874Y-61879288D01*
X77377365Y-61878096D01*
X77374841Y-61876918D01*
X77372300Y-61875755D01*
X77369743Y-61874607D01*
X77367170Y-61873473D01*
X77364582Y-61872355D01*
X77361976Y-61871250D01*
X77359356Y-61870162D01*
X77356719Y-61869088D01*
X77354067Y-61868029D01*
X77351397Y-61866986D01*
X77348713Y-61865958D01*
X77346012Y-61864945D01*
X77343295Y-61863948D01*
X77340562Y-61862966D01*
X77337814Y-61861999D01*
X77335048Y-61861048D01*
X77332268Y-61860114D01*
X77329471Y-61859194D01*
X77326658Y-61858291D01*
X77323829Y-61857403D01*
X77320984Y-61856532D01*
X77318123Y-61855676D01*
X77315246Y-61854837D01*
X77312353Y-61854013D01*
X77309444Y-61853207D01*
X77306518Y-61852416D01*
X77303577Y-61851642D01*
X77300620Y-61850884D01*
X77297647Y-61850143D01*
X77294657Y-61849419D01*
X77291651Y-61848711D01*
X77288629Y-61848020D01*
X77285591Y-61847346D01*
X77282537Y-61846689D01*
X77279467Y-61846049D01*
X77276380Y-61845426D01*
X77273278Y-61844820D01*
X77270159Y-61844232D01*
X77267025Y-61843661D01*
X77263873Y-61843107D01*
X77260706Y-61842571D01*
X77257522Y-61842052D01*
X77254323Y-61841551D01*
X77251106Y-61841068D01*
X77247874Y-61840602D01*
X77244625Y-61840155D01*
X77241361Y-61839725D01*
X77238079Y-61839314D01*
X77234782Y-61838921D01*
X77231468Y-61838546D01*
X77228138Y-61838189D01*
X77224791Y-61837851D01*
X77221428Y-61837531D01*
X77218049Y-61837230D01*
X77214653Y-61836947D01*
X77211241Y-61836684D01*
X77207812Y-61836439D01*
X77204367Y-61836213D01*
X77200905Y-61836005D01*
X77197427Y-61835818D01*
X77193933Y-61835649D01*
X77190422Y-61835499D01*
X77186894Y-61835369D01*
X77183350Y-61835259D01*
X77179789Y-61835167D01*
X77176212Y-61835096D01*
X77172618Y-61835044D01*
X77169007Y-61835012D01*
X77165000Y-61835000D01*
X77165000Y-63105000D02*
X77168629Y-63104990D01*
X77172241Y-63104960D01*
X77175837Y-63104910D01*
X77179416Y-63104841D01*
X77182978Y-63104752D01*
X77186523Y-63104643D01*
X77190053Y-63104515D01*
X77193565Y-63104368D01*
X77197061Y-63104201D01*
X77200541Y-63104015D01*
X77204004Y-63103810D01*
X77207450Y-63103586D01*
X77210880Y-63103343D01*
X77214293Y-63103081D01*
X77217690Y-63102801D01*
X77221071Y-63102502D01*
X77224435Y-63102184D01*
X77227783Y-63101848D01*
X77231114Y-63101493D01*
X77234429Y-63101120D01*
X77237728Y-63100729D01*
X77241010Y-63100319D01*
X77244276Y-63099892D01*
X77247525Y-63099447D01*
X77250759Y-63098983D01*
X77253976Y-63098502D01*
X77257176Y-63098003D01*
X77260361Y-63097487D01*
X77263529Y-63096952D01*
X77266681Y-63096401D01*
X77269816Y-63095832D01*
X77272936Y-63095245D01*
X77276039Y-63094642D01*
X77279126Y-63094021D01*
X77282197Y-63093383D01*
X77285251Y-63092728D01*
X77288290Y-63092056D01*
X77291312Y-63091368D01*
X77294319Y-63090662D01*
X77297308Y-63089940D01*
X77300282Y-63089201D01*
X77303240Y-63088446D01*
X77306182Y-63087674D01*
X77309107Y-63086886D01*
X77312017Y-63086081D01*
X77314910Y-63085260D01*
X77317788Y-63084423D01*
X77320649Y-63083570D01*
X77323494Y-63082701D01*
X77326323Y-63081816D01*
X77329136Y-63080914D01*
X77331933Y-63079998D01*
X77334714Y-63079065D01*
X77337479Y-63078117D01*
X77340228Y-63077153D01*
X77342961Y-63076174D01*
X77345678Y-63075179D01*
X77348378Y-63074169D01*
X77351064Y-63073143D01*
X77353732Y-63072103D01*
X77356385Y-63071046D01*
X77359021Y-63069976D01*
X77361643Y-63068889D01*
X77364247Y-63067789D01*
X77366836Y-63066673D01*
X77369408Y-63065542D01*
X77371965Y-63064396D01*
X77374506Y-63063236D01*
X77377031Y-63062061D01*
X77379539Y-63060872D01*
X77382032Y-63059668D01*
X77384508Y-63058450D01*
X77386969Y-63057217D01*
X77389413Y-63055971D01*
X77391842Y-63054710D01*
X77394254Y-63053435D01*
X77396651Y-63052145D01*
X77399030Y-63050842D01*
X77401395Y-63049525D01*
X77403743Y-63048194D01*
X77406075Y-63046849D01*
X77408390Y-63045490D01*
X77410691Y-63044118D01*
X77412974Y-63042732D01*
X77415242Y-63041332D01*
X77417493Y-63039919D01*
X77419728Y-63038493D01*
X77421947Y-63037053D01*
X77424150Y-63035600D01*
X77426336Y-63034134D01*
X77428507Y-63032654D01*
X77430661Y-63031162D01*
X77432799Y-63029656D01*
X77434920Y-63028138D01*
X77437026Y-63026607D01*
X77439114Y-63025063D01*
X77441188Y-63023506D01*
X77443243Y-63021937D01*
X77445284Y-63020354D01*
X77447307Y-63018760D01*
X77451305Y-63015533D01*
X77455237Y-63012258D01*
X77459102Y-63008933D01*
X77462902Y-63005560D01*
X77466635Y-63002139D01*
X77470302Y-62998672D01*
X77473901Y-62995158D01*
X77477434Y-62991598D01*
X77480898Y-62987993D01*
X77484296Y-62984343D01*
X77487625Y-62980649D01*
X77490886Y-62976912D01*
X77494078Y-62973132D01*
X77497201Y-62969310D01*
X77500256Y-62965446D01*
X77503241Y-62961542D01*
X77506155Y-62957597D01*
X77509000Y-62953614D01*
X77511775Y-62949591D01*
X77514478Y-62945531D01*
X77517110Y-62941434D01*
X77519671Y-62937300D01*
X77522160Y-62933131D01*
X77524576Y-62928927D01*
X77526921Y-62924689D01*
X77529192Y-62920418D01*
X77531389Y-62916115D01*
X77533513Y-62911781D01*
X77535563Y-62907416D01*
X77537539Y-62903022D01*
X77539440Y-62898599D01*
X77541266Y-62894149D01*
X77543016Y-62889672D01*
X77544691Y-62885169D01*
X77546290Y-62880642D01*
X77547812Y-62876092D01*
X77549257Y-62871518D01*
X77550626Y-62866924D01*
X77551917Y-62862309D01*
X77553131Y-62857675D01*
X77554266Y-62853022D01*
X77555324Y-62848353D01*
X77556303Y-62843668D01*
X77557204Y-62838968D01*
X77558025Y-62834255D01*
X77558768Y-62829529D01*
X77559432Y-62824793D01*
X77560016Y-62820046D01*
X77560521Y-62815291D01*
X77560946Y-62810528D01*
X77561291Y-62805760D01*
X77561557Y-62800986D01*
X77561743Y-62796209D01*
X77561848Y-62791429D01*
X77561874Y-62786648D01*
X77561857Y-62784257D01*
X77561820Y-62781867D01*
X77561763Y-62779477D01*
X77561685Y-62777087D01*
X77561588Y-62774698D01*
X77561471Y-62772310D01*
X77561334Y-62769923D01*
X77561177Y-62767537D01*
X77561000Y-62765152D01*
X77560803Y-62762769D01*
X77560586Y-62760387D01*
X77560349Y-62758007D01*
X77560093Y-62755629D01*
X77559816Y-62753253D01*
X77559519Y-62750879D01*
X77559203Y-62748508D01*
X77558867Y-62746139D01*
X77558510Y-62743772D01*
X77558135Y-62741409D01*
X77557739Y-62739048D01*
X77557323Y-62736691D01*
X77556888Y-62734337D01*
X77556433Y-62731987D01*
X77555959Y-62729639D01*
X77555464Y-62727296D01*
X77554950Y-62724956D01*
X77554417Y-62722621D01*
X77553863Y-62720289D01*
X77553291Y-62717962D01*
X77552699Y-62715639D01*
X77552087Y-62713322D01*
X77551456Y-62711008D01*
X77550805Y-62708700D01*
X77550135Y-62706396D01*
X77549446Y-62704098D01*
X77548737Y-62701804D01*
X77548009Y-62699517D01*
X77547262Y-62697235D01*
X77546496Y-62694959D01*
X77545710Y-62692688D01*
X77544905Y-62690424D01*
X77544081Y-62688164D01*
X77543239Y-62685913D01*
X77542377Y-62683666D01*
X77541496Y-62681427D01*
X77540596Y-62679194D01*
X77539678Y-62676968D01*
X77538740Y-62674748D01*
X77537784Y-62672536D01*
X77536809Y-62670330D01*
X77535815Y-62668133D01*
X77534802Y-62665941D01*
X77533772Y-62663759D01*
X77532722Y-62661582D01*
X77531654Y-62659415D01*
X77530567Y-62657254D01*
X77529462Y-62655102D01*
X77528338Y-62652957D01*
X77527197Y-62650821D01*
X77526036Y-62648693D01*
X77524858Y-62646574D01*
X77523661Y-62644462D01*
X77522447Y-62642360D01*
X77521213Y-62640265D01*
X77519963Y-62638181D01*
X77518693Y-62636104D01*
X77517407Y-62634037D01*
X77516101Y-62631978D01*
X77514779Y-62629929D01*
X77513437Y-62627889D01*
X77512079Y-62625859D01*
X77510702Y-62623837D01*
X77509309Y-62621827D01*
X77507896Y-62619824D01*
X77506467Y-62617833D01*
X77505020Y-62615850D01*
X77503556Y-62613878D01*
X77502073Y-62611915D01*
X77500574Y-62609964D01*
X77499056Y-62608021D01*
X77497522Y-62606090D01*
X77495970Y-62604168D01*
X77494401Y-62602258D01*
X77492814Y-62600357D01*
X77491211Y-62598468D01*
X77489590Y-62596589D01*
X77487952Y-62594721D01*
X77486297Y-62592863D01*
X77484625Y-62591017D01*
X77482935Y-62589181D01*
X77481230Y-62587358D01*
X77479506Y-62585544D01*
X77477766Y-62583743D01*
X77476008Y-62581952D01*
X77474235Y-62580174D01*
X77472444Y-62578406D01*
X77470637Y-62576650D01*
X77468812Y-62574906D01*
X77466971Y-62573174D01*
X77465113Y-62571452D01*
X77463239Y-62569744D01*
X77461347Y-62568047D01*
X77459440Y-62566362D01*
X77457515Y-62564689D01*
X77455574Y-62563029D01*
X77453616Y-62561380D01*
X77451643Y-62559744D01*
X77449652Y-62558120D01*
X77447645Y-62556509D01*
X77445621Y-62554910D01*
X77443582Y-62553324D01*
X77441525Y-62551750D01*
X77439453Y-62550190D01*
X77437363Y-62548641D01*
X77435259Y-62547106D01*
X77433136Y-62545583D01*
X77430999Y-62544074D01*
X77428844Y-62542578D01*
X77426675Y-62541095D01*
X77424487Y-62539625D01*
X77422285Y-62538168D01*
X77420065Y-62536724D01*
X77417831Y-62535295D01*
X77415578Y-62533878D01*
X77413311Y-62532475D01*
X77411027Y-62531085D01*
X77408728Y-62529710D01*
X77406411Y-62528347D01*
X77404080Y-62526999D01*
X77401731Y-62525664D01*
X77399367Y-62524344D01*
X77396986Y-62523037D01*
X77394590Y-62521745D01*
X77392177Y-62520466D01*
X77389749Y-62519202D01*
X77387304Y-62517952D01*
X77384844Y-62516717D01*
X77382367Y-62515495D01*
X77379874Y-62514288D01*
X77377365Y-62513096D01*
X77374841Y-62511918D01*
X77372300Y-62510755D01*
X77369743Y-62509607D01*
X77367170Y-62508473D01*
X77364582Y-62507355D01*
X77361976Y-62506250D01*
X77359356Y-62505162D01*
X77356719Y-62504088D01*
X77354067Y-62503029D01*
X77351397Y-62501986D01*
X77348713Y-62500958D01*
X77346012Y-62499945D01*
X77343295Y-62498948D01*
X77340562Y-62497966D01*
X77337814Y-62496999D01*
X77335048Y-62496048D01*
X77332268Y-62495114D01*
X77329471Y-62494194D01*
X77326658Y-62493291D01*
X77323829Y-62492403D01*
X77320984Y-62491532D01*
X77318123Y-62490676D01*
X77315246Y-62489837D01*
X77312353Y-62489013D01*
X77309444Y-62488207D01*
X77306518Y-62487416D01*
X77303577Y-62486642D01*
X77300620Y-62485884D01*
X77297647Y-62485143D01*
X77294657Y-62484419D01*
X77291651Y-62483711D01*
X77288629Y-62483020D01*
X77285591Y-62482346D01*
X77282537Y-62481689D01*
X77279467Y-62481049D01*
X77276380Y-62480426D01*
X77273278Y-62479820D01*
X77270159Y-62479232D01*
X77267025Y-62478661D01*
X77263873Y-62478107D01*
X77260706Y-62477571D01*
X77257522Y-62477052D01*
X77254323Y-62476551D01*
X77251106Y-62476068D01*
X77247874Y-62475602D01*
X77244625Y-62475155D01*
X77241361Y-62474725D01*
X77238079Y-62474314D01*
X77234782Y-62473921D01*
X77231468Y-62473546D01*
X77228138Y-62473189D01*
X77224791Y-62472851D01*
X77221428Y-62472531D01*
X77218049Y-62472230D01*
X77214653Y-62471947D01*
X77211241Y-62471684D01*
X77207812Y-62471439D01*
X77204367Y-62471213D01*
X77200905Y-62471005D01*
X77197427Y-62470818D01*
X77193933Y-62470649D01*
X77190422Y-62470499D01*
X77186894Y-62470369D01*
X77183350Y-62470259D01*
X77179789Y-62470167D01*
X77176212Y-62470096D01*
X77172618Y-62470044D01*
X77169007Y-62470012D01*
X77165000Y-62470000D01*
X77165000Y-63740000D02*
X77168629Y-63739990D01*
X77172241Y-63739960D01*
X77175837Y-63739910D01*
X77179415Y-63739841D01*
X77182978Y-63739752D01*
X77186523Y-63739643D01*
X77190053Y-63739515D01*
X77193565Y-63739368D01*
X77197061Y-63739201D01*
X77200541Y-63739015D01*
X77204004Y-63738810D01*
X77207450Y-63738586D01*
X77210880Y-63738343D01*
X77214293Y-63738081D01*
X77217690Y-63737801D01*
X77221071Y-63737502D01*
X77224435Y-63737184D01*
X77227783Y-63736848D01*
X77231114Y-63736493D01*
X77234429Y-63736120D01*
X77237728Y-63735729D01*
X77241010Y-63735319D01*
X77244276Y-63734892D01*
X77247525Y-63734447D01*
X77250759Y-63733983D01*
X77253975Y-63733502D01*
X77257176Y-63733003D01*
X77260360Y-63732487D01*
X77263529Y-63731952D01*
X77266680Y-63731401D01*
X77269816Y-63730832D01*
X77272935Y-63730245D01*
X77276039Y-63729642D01*
X77279126Y-63729021D01*
X77282197Y-63728383D01*
X77285251Y-63727728D01*
X77288290Y-63727056D01*
X77291312Y-63726368D01*
X77294318Y-63725662D01*
X77297308Y-63724940D01*
X77300282Y-63724201D01*
X77303240Y-63723446D01*
X77306182Y-63722674D01*
X77309107Y-63721886D01*
X77312017Y-63721081D01*
X77314910Y-63720260D01*
X77317787Y-63719423D01*
X77320648Y-63718570D01*
X77323494Y-63717701D01*
X77326323Y-63716816D01*
X77329136Y-63715914D01*
X77331933Y-63714998D01*
X77334714Y-63714065D01*
X77337478Y-63713117D01*
X77340228Y-63712153D01*
X77342960Y-63711174D01*
X77345678Y-63710179D01*
X77348378Y-63709169D01*
X77351063Y-63708143D01*
X77353732Y-63707103D01*
X77356385Y-63706046D01*
X77359021Y-63704976D01*
X77361642Y-63703889D01*
X77364246Y-63702789D01*
X77366836Y-63701673D01*
X77369408Y-63700542D01*
X77371965Y-63699396D01*
X77374505Y-63698236D01*
X77377030Y-63697061D01*
X77379538Y-63695872D01*
X77382032Y-63694668D01*
X77384508Y-63693450D01*
X77386969Y-63692217D01*
X77389413Y-63690971D01*
X77391842Y-63689710D01*
X77394253Y-63688435D01*
X77396650Y-63687145D01*
X77399030Y-63685842D01*
X77401395Y-63684525D01*
X77403742Y-63683194D01*
X77406075Y-63681849D01*
X77408390Y-63680490D01*
X77410690Y-63679118D01*
X77412973Y-63677732D01*
X77415241Y-63676332D01*
X77417492Y-63674919D01*
X77419728Y-63673493D01*
X77421946Y-63672053D01*
X77424150Y-63670600D01*
X77426336Y-63669134D01*
X77428507Y-63667654D01*
X77430660Y-63666162D01*
X77432799Y-63664656D01*
X77434920Y-63663138D01*
X77437026Y-63661607D01*
X77439114Y-63660063D01*
X77441187Y-63658506D01*
X77443243Y-63656937D01*
X77445283Y-63655354D01*
X77447306Y-63653760D01*
X77451304Y-63650533D01*
X77455236Y-63647257D01*
X77459102Y-63643933D01*
X77462902Y-63640560D01*
X77466635Y-63637139D01*
X77470301Y-63633672D01*
X77473901Y-63630158D01*
X77477433Y-63626598D01*
X77480898Y-63622993D01*
X77484295Y-63619343D01*
X77487624Y-63615649D01*
X77490885Y-63611912D01*
X77494077Y-63608132D01*
X77497201Y-63604309D01*
X77500255Y-63600446D01*
X77503240Y-63596542D01*
X77506155Y-63592597D01*
X77509000Y-63588613D01*
X77511774Y-63584591D01*
X77514477Y-63580531D01*
X77517110Y-63576434D01*
X77519670Y-63572300D01*
X77522159Y-63568131D01*
X77524576Y-63563927D01*
X77526920Y-63559689D01*
X77529191Y-63555418D01*
X77531389Y-63551115D01*
X77533513Y-63546781D01*
X77535563Y-63542416D01*
X77537538Y-63538022D01*
X77539439Y-63533599D01*
X77541265Y-63529149D01*
X77543016Y-63524672D01*
X77544690Y-63520169D01*
X77546289Y-63515642D01*
X77547811Y-63511091D01*
X77549257Y-63506518D01*
X77550625Y-63501924D01*
X77551916Y-63497309D01*
X77553130Y-63492674D01*
X77554265Y-63488022D01*
X77555323Y-63483353D01*
X77556302Y-63478668D01*
X77557203Y-63473968D01*
X77558025Y-63469255D01*
X77558767Y-63464529D01*
X77559431Y-63459792D01*
X77560015Y-63455046D01*
X77560520Y-63450291D01*
X77560945Y-63445528D01*
X77561291Y-63440759D01*
X77561556Y-63435986D01*
X77561742Y-63431208D01*
X77561847Y-63426428D01*
X77561873Y-63421647D01*
X77561856Y-63419257D01*
X77561819Y-63416866D01*
X77561762Y-63414476D01*
X77561685Y-63412087D01*
X77561588Y-63409698D01*
X77561470Y-63407310D01*
X77561333Y-63404923D01*
X77561176Y-63402537D01*
X77560999Y-63400152D01*
X77560802Y-63397769D01*
X77560585Y-63395387D01*
X77560349Y-63393007D01*
X77560092Y-63390629D01*
X77559815Y-63388253D01*
X77559519Y-63385879D01*
X77559202Y-63383507D01*
X77558866Y-63381139D01*
X77558510Y-63378772D01*
X77558134Y-63376409D01*
X77557738Y-63374048D01*
X77557323Y-63371691D01*
X77556887Y-63369337D01*
X77556432Y-63366986D01*
X77555958Y-63364639D01*
X77555463Y-63362296D01*
X77554949Y-63359956D01*
X77554416Y-63357621D01*
X77553863Y-63355289D01*
X77553290Y-63352962D01*
X77552698Y-63350639D01*
X77552086Y-63348321D01*
X77551455Y-63346008D01*
X77550804Y-63343700D01*
X77550134Y-63341396D01*
X77549445Y-63339098D01*
X77548736Y-63336804D01*
X77548008Y-63334517D01*
X77547261Y-63332234D01*
X77546495Y-63329959D01*
X77545709Y-63327687D01*
X77544904Y-63325423D01*
X77544080Y-63323164D01*
X77543238Y-63320912D01*
X77542376Y-63318666D01*
X77541495Y-63316427D01*
X77540595Y-63314193D01*
X77539677Y-63311968D01*
X77538739Y-63309748D01*
X77537783Y-63307536D01*
X77536808Y-63305330D01*
X77535814Y-63303132D01*
X77534802Y-63300941D01*
X77533771Y-63298758D01*
X77532721Y-63296582D01*
X77531653Y-63294414D01*
X77530566Y-63292253D01*
X77529461Y-63290102D01*
X77528337Y-63287957D01*
X77527196Y-63285821D01*
X77526035Y-63283692D01*
X77524857Y-63281573D01*
X77523660Y-63279461D01*
X77522446Y-63277360D01*
X77521212Y-63275265D01*
X77519962Y-63273180D01*
X77518692Y-63271103D01*
X77517406Y-63269037D01*
X77516100Y-63266978D01*
X77514778Y-63264929D01*
X77513436Y-63262889D01*
X77512078Y-63260859D01*
X77510701Y-63258837D01*
X77509308Y-63256826D01*
X77507895Y-63254824D01*
X77506466Y-63252832D01*
X77505019Y-63250850D01*
X77503555Y-63248878D01*
X77502072Y-63246915D01*
X77500573Y-63244964D01*
X77499055Y-63243021D01*
X77497521Y-63241090D01*
X77495969Y-63239168D01*
X77494400Y-63237258D01*
X77492813Y-63235357D01*
X77491210Y-63233468D01*
X77489589Y-63231588D01*
X77487952Y-63229721D01*
X77486296Y-63227863D01*
X77484624Y-63226017D01*
X77482934Y-63224181D01*
X77481229Y-63222358D01*
X77479505Y-63220544D01*
X77477765Y-63218743D01*
X77476008Y-63216952D01*
X77474234Y-63215174D01*
X77472443Y-63213405D01*
X77470636Y-63211650D01*
X77468811Y-63209905D01*
X77466970Y-63208173D01*
X77465112Y-63206452D01*
X77463238Y-63204744D01*
X77461346Y-63203046D01*
X77459439Y-63201362D01*
X77457514Y-63199689D01*
X77455573Y-63198029D01*
X77453615Y-63196380D01*
X77451642Y-63194744D01*
X77449651Y-63193120D01*
X77447644Y-63191509D01*
X77445620Y-63189910D01*
X77443581Y-63188324D01*
X77441524Y-63186750D01*
X77439452Y-63185189D01*
X77437363Y-63183641D01*
X77435258Y-63182106D01*
X77433136Y-63180583D01*
X77430998Y-63179074D01*
X77428843Y-63177577D01*
X77426674Y-63176095D01*
X77424486Y-63174624D01*
X77422284Y-63173168D01*
X77420064Y-63171724D01*
X77417830Y-63170294D01*
X77415578Y-63168877D01*
X77413311Y-63167475D01*
X77411026Y-63166085D01*
X77408727Y-63164709D01*
X77406410Y-63163347D01*
X77404079Y-63161999D01*
X77401730Y-63160664D01*
X77399366Y-63159344D01*
X77396985Y-63158037D01*
X77394589Y-63156745D01*
X77392176Y-63155466D01*
X77389748Y-63154202D01*
X77387303Y-63152952D01*
X77384843Y-63151716D01*
X77382366Y-63150495D01*
X77379874Y-63149288D01*
X77377364Y-63148096D01*
X77374840Y-63146918D01*
X77372299Y-63145755D01*
X77369742Y-63144607D01*
X77367169Y-63143473D01*
X77364581Y-63142354D01*
X77361976Y-63141250D01*
X77359355Y-63140162D01*
X77356718Y-63139088D01*
X77354066Y-63138029D01*
X77351396Y-63136986D01*
X77348712Y-63135958D01*
X77346011Y-63134945D01*
X77343295Y-63133948D01*
X77340561Y-63132965D01*
X77337813Y-63131999D01*
X77335048Y-63131048D01*
X77332267Y-63130113D01*
X77329470Y-63129194D01*
X77326657Y-63128291D01*
X77323828Y-63127403D01*
X77320984Y-63126531D01*
X77318122Y-63125676D01*
X77315245Y-63124837D01*
X77312352Y-63124013D01*
X77309443Y-63123206D01*
X77306518Y-63122416D01*
X77303577Y-63121642D01*
X77300619Y-63120884D01*
X77297646Y-63120143D01*
X77294656Y-63119418D01*
X77291650Y-63118711D01*
X77288628Y-63118020D01*
X77285591Y-63117346D01*
X77282536Y-63116689D01*
X77279466Y-63116049D01*
X77276380Y-63115426D01*
X77273277Y-63114820D01*
X77270158Y-63114232D01*
X77267024Y-63113660D01*
X77263872Y-63113107D01*
X77260705Y-63112571D01*
X77257521Y-63112052D01*
X77254322Y-63111551D01*
X77251106Y-63111068D01*
X77247873Y-63110602D01*
X77244625Y-63110155D01*
X77241360Y-63109725D01*
X77238078Y-63109314D01*
X77234781Y-63108921D01*
X77231467Y-63108546D01*
X77228137Y-63108189D01*
X77224790Y-63107851D01*
X77221427Y-63107531D01*
X77218048Y-63107230D01*
X77214652Y-63106947D01*
X77211240Y-63106683D01*
X77207811Y-63106439D01*
X77204366Y-63106212D01*
X77200905Y-63106005D01*
X77197427Y-63105818D01*
X77193932Y-63105649D01*
X77190421Y-63105499D01*
X77186893Y-63105369D01*
X77183349Y-63105259D01*
X77179789Y-63105167D01*
X77176211Y-63105096D01*
X77172617Y-63105044D01*
X77169007Y-63105012D01*
X77165000Y-63105000D01*
D14*
%TO.C,RV1*%
X68760000Y-66200000D02*
G75*
G02*
X58240000Y-66200000I-5260000J0D01*
G01*
X58240000Y-66200000D02*
G75*
G02*
X68760000Y-66200000I5260000J0D01*
G01*
%TO.C,J2*%
X92145000Y-59190000D02*
X92145000Y-60610000D01*
X92145000Y-60610000D02*
X96645000Y-60610000D01*
X92145000Y-65390000D02*
X96645000Y-65390000D01*
X92145000Y-66810000D02*
X92145000Y-65390000D01*
X92455000Y-63950000D02*
X93055000Y-64250000D01*
X92455000Y-64550000D02*
X92455000Y-63950000D01*
X93055000Y-64250000D02*
X92455000Y-64550000D01*
X96645000Y-60610000D02*
X96645000Y-63000000D01*
X96645000Y-65390000D02*
X96645000Y-63000000D01*
X97755000Y-61500000D02*
X97755000Y-62000000D01*
X97755000Y-62000000D02*
X103255000Y-62000000D01*
X97755000Y-64000000D02*
X97755000Y-64500000D01*
X97755000Y-64500000D02*
X103255000Y-64500000D01*
X103255000Y-61500000D02*
X97755000Y-61500000D01*
X103255000Y-62000000D02*
X103255000Y-61500000D01*
X103255000Y-64000000D02*
X97755000Y-64000000D01*
X103255000Y-64500000D02*
X103255000Y-64000000D01*
X103865000Y-59190000D02*
X92145000Y-59190000D01*
X103865000Y-63000000D02*
X103865000Y-59190000D01*
X103865000Y-63000000D02*
X103865000Y-66810000D01*
X103865000Y-66810000D02*
X92145000Y-66810000D01*
%TO.C,C10*%
X97553733Y-70090000D02*
X97846267Y-70090000D01*
X97553733Y-71110000D02*
X97846267Y-71110000D01*
D10*
%TO.C,C3*%
X58600000Y-77100000D02*
G75*
G02*
X63799035Y-77098329I2600000J-1500000D01*
G01*
X63800000Y-80100000D02*
G75*
G02*
X58580213Y-80065167I-2600000J1500000D01*
G01*
D14*
%TO.C,R1*%
X66945276Y-57077500D02*
X67454724Y-57077500D01*
X66945276Y-58122500D02*
X67454724Y-58122500D01*
%TO.C,L1*%
X62500000Y-85100000D02*
X62500000Y-89100000D01*
D15*
X65800000Y-85400000D02*
X65800000Y-85836562D01*
X65800000Y-88376562D02*
X65800000Y-88813125D01*
D14*
X69500000Y-85100000D02*
X69500000Y-89100000D01*
D15*
X65800000Y-85836562D02*
X65800911Y-85836572D01*
X65803566Y-85836640D01*
X65805511Y-85836713D01*
X65807848Y-85836824D01*
X65810564Y-85836977D01*
X65813643Y-85837182D01*
X65817070Y-85837445D01*
X65820832Y-85837773D01*
X65824914Y-85838174D01*
X65829301Y-85838655D01*
X65833978Y-85839223D01*
X65838932Y-85839885D01*
X65844147Y-85840650D01*
X65849609Y-85841523D01*
X65852429Y-85842003D01*
X65855304Y-85842512D01*
X65858234Y-85843053D01*
X65861217Y-85843626D01*
X65864251Y-85844231D01*
X65867334Y-85844869D01*
X65870464Y-85845543D01*
X65873639Y-85846251D01*
X65876858Y-85846996D01*
X65880119Y-85847779D01*
X65883419Y-85848599D01*
X65886758Y-85849458D01*
X65890133Y-85850358D01*
X65893543Y-85851298D01*
X65896986Y-85852280D01*
X65900459Y-85853305D01*
X65903961Y-85854374D01*
X65907491Y-85855486D01*
X65911046Y-85856645D01*
X65914625Y-85857849D01*
X65918225Y-85859101D01*
X65921846Y-85860401D01*
X65925484Y-85861750D01*
X65929139Y-85863150D01*
X65932809Y-85864599D01*
X65936491Y-85866101D01*
X65940184Y-85867656D01*
X65943887Y-85869263D01*
X65947596Y-85870926D01*
X65951311Y-85872644D01*
X65955030Y-85874418D01*
X65958750Y-85876250D01*
X65962470Y-85878139D01*
X65966189Y-85880088D01*
X65969904Y-85882096D01*
X65973613Y-85884166D01*
X65977316Y-85886297D01*
X65981009Y-85888491D01*
X65984691Y-85890748D01*
X65988361Y-85893070D01*
X65992016Y-85895458D01*
X65995654Y-85897911D01*
X65999275Y-85900432D01*
X66002875Y-85903021D01*
X66006454Y-85905679D01*
X66010009Y-85908407D01*
X66013539Y-85911206D01*
X66017041Y-85914077D01*
X66020514Y-85917020D01*
X66023957Y-85920037D01*
X66027367Y-85923128D01*
X66030742Y-85926295D01*
X66032416Y-85927907D01*
X66034081Y-85929538D01*
X66035736Y-85931188D01*
X66037381Y-85932858D01*
X66039017Y-85934548D01*
X66040642Y-85936257D01*
X66042257Y-85937985D01*
X66043861Y-85939734D01*
X66045454Y-85941503D01*
X66047036Y-85943291D01*
X66048607Y-85945100D01*
X66050166Y-85946930D01*
X66051714Y-85948779D01*
X66053249Y-85950649D01*
X66054772Y-85952540D01*
X66056283Y-85954452D01*
X66057781Y-85956385D01*
X66059266Y-85958338D01*
X66060737Y-85960313D01*
X66062196Y-85962309D01*
X66063640Y-85964326D01*
X66065071Y-85966365D01*
X66066488Y-85968425D01*
X66067891Y-85970507D01*
X66069279Y-85972611D01*
X66070652Y-85974737D01*
X66072010Y-85976885D01*
X66073353Y-85979055D01*
X66074681Y-85981247D01*
X66075992Y-85983461D01*
X66077288Y-85985698D01*
X66078568Y-85987958D01*
X66079832Y-85990240D01*
X66081079Y-85992545D01*
X66082309Y-85994873D01*
X66083522Y-85997224D01*
X66084718Y-85999599D01*
X66085896Y-86001996D01*
X66087057Y-86004417D01*
X66088199Y-86006862D01*
X66089324Y-86009330D01*
X66090430Y-86011822D01*
X66091518Y-86014337D01*
X66092586Y-86016877D01*
X66093636Y-86019440D01*
X66094666Y-86022028D01*
X66095677Y-86024641D01*
X66096668Y-86027277D01*
X66097639Y-86029938D01*
X66098590Y-86032624D01*
X66099520Y-86035334D01*
X66100430Y-86038070D01*
X66101319Y-86040830D01*
X66102186Y-86043616D01*
X66103033Y-86046426D01*
X66103857Y-86049262D01*
X66104660Y-86052124D01*
X66105441Y-86055011D01*
X66106200Y-86057923D01*
X66106936Y-86060862D01*
X66107650Y-86063826D01*
X66108340Y-86066816D01*
X66109008Y-86069832D01*
X66109652Y-86072875D01*
X66110272Y-86075944D01*
X66110869Y-86079039D01*
X66111441Y-86082161D01*
X66111989Y-86085310D01*
X66112513Y-86088486D01*
X66113012Y-86091688D01*
X66113486Y-86094917D01*
X66113934Y-86098174D01*
X66114358Y-86101458D01*
X66114755Y-86104769D01*
X66115127Y-86108108D01*
X66115473Y-86111474D01*
X66115792Y-86114868D01*
X66116084Y-86118289D01*
X66116350Y-86121739D01*
X66116589Y-86125217D01*
X66116801Y-86128723D01*
X66116985Y-86132257D01*
X66117141Y-86135819D01*
X66117270Y-86139411D01*
X66117370Y-86143030D01*
X66117442Y-86146679D01*
X66117486Y-86150356D01*
X66117500Y-86154062D01*
X65800000Y-86471562D02*
X65800911Y-86471572D01*
X65803566Y-86471640D01*
X65805511Y-86471713D01*
X65807848Y-86471824D01*
X65810564Y-86471977D01*
X65813643Y-86472182D01*
X65817070Y-86472445D01*
X65820832Y-86472773D01*
X65824914Y-86473174D01*
X65829301Y-86473655D01*
X65833978Y-86474223D01*
X65838932Y-86474885D01*
X65844147Y-86475650D01*
X65849609Y-86476523D01*
X65852429Y-86477003D01*
X65855304Y-86477512D01*
X65858234Y-86478053D01*
X65861217Y-86478626D01*
X65864251Y-86479231D01*
X65867334Y-86479869D01*
X65870464Y-86480543D01*
X65873639Y-86481251D01*
X65876858Y-86481996D01*
X65880119Y-86482779D01*
X65883419Y-86483599D01*
X65886758Y-86484458D01*
X65890133Y-86485358D01*
X65893543Y-86486298D01*
X65896986Y-86487280D01*
X65900459Y-86488305D01*
X65903961Y-86489374D01*
X65907491Y-86490486D01*
X65911046Y-86491645D01*
X65914625Y-86492849D01*
X65918225Y-86494101D01*
X65921846Y-86495401D01*
X65925484Y-86496750D01*
X65929139Y-86498150D01*
X65932809Y-86499599D01*
X65936491Y-86501101D01*
X65940184Y-86502656D01*
X65943887Y-86504263D01*
X65947596Y-86505926D01*
X65951311Y-86507644D01*
X65955030Y-86509418D01*
X65958750Y-86511250D01*
X65962470Y-86513139D01*
X65966189Y-86515088D01*
X65969904Y-86517096D01*
X65973613Y-86519166D01*
X65977316Y-86521297D01*
X65981009Y-86523491D01*
X65984691Y-86525748D01*
X65988361Y-86528070D01*
X65992016Y-86530458D01*
X65995654Y-86532911D01*
X65999275Y-86535432D01*
X66002875Y-86538021D01*
X66006454Y-86540679D01*
X66010009Y-86543407D01*
X66013539Y-86546206D01*
X66017041Y-86549077D01*
X66020514Y-86552020D01*
X66023957Y-86555037D01*
X66027367Y-86558128D01*
X66030742Y-86561295D01*
X66032416Y-86562907D01*
X66034081Y-86564538D01*
X66035736Y-86566188D01*
X66037381Y-86567858D01*
X66039017Y-86569548D01*
X66040642Y-86571257D01*
X66042257Y-86572985D01*
X66043861Y-86574734D01*
X66045454Y-86576503D01*
X66047036Y-86578291D01*
X66048607Y-86580100D01*
X66050166Y-86581930D01*
X66051714Y-86583779D01*
X66053249Y-86585649D01*
X66054772Y-86587540D01*
X66056283Y-86589452D01*
X66057781Y-86591385D01*
X66059266Y-86593338D01*
X66060737Y-86595313D01*
X66062196Y-86597309D01*
X66063640Y-86599326D01*
X66065071Y-86601365D01*
X66066488Y-86603425D01*
X66067891Y-86605507D01*
X66069279Y-86607611D01*
X66070652Y-86609737D01*
X66072010Y-86611885D01*
X66073353Y-86614055D01*
X66074681Y-86616247D01*
X66075992Y-86618461D01*
X66077288Y-86620698D01*
X66078568Y-86622958D01*
X66079832Y-86625240D01*
X66081079Y-86627545D01*
X66082309Y-86629873D01*
X66083522Y-86632224D01*
X66084718Y-86634599D01*
X66085896Y-86636996D01*
X66087057Y-86639417D01*
X66088199Y-86641862D01*
X66089324Y-86644330D01*
X66090430Y-86646822D01*
X66091518Y-86649337D01*
X66092586Y-86651877D01*
X66093636Y-86654440D01*
X66094666Y-86657028D01*
X66095677Y-86659641D01*
X66096668Y-86662277D01*
X66097639Y-86664938D01*
X66098590Y-86667624D01*
X66099520Y-86670334D01*
X66100430Y-86673070D01*
X66101319Y-86675830D01*
X66102186Y-86678616D01*
X66103033Y-86681426D01*
X66103857Y-86684262D01*
X66104660Y-86687124D01*
X66105441Y-86690011D01*
X66106200Y-86692923D01*
X66106936Y-86695862D01*
X66107650Y-86698826D01*
X66108340Y-86701816D01*
X66109008Y-86704832D01*
X66109652Y-86707875D01*
X66110272Y-86710944D01*
X66110869Y-86714039D01*
X66111441Y-86717161D01*
X66111989Y-86720310D01*
X66112513Y-86723486D01*
X66113012Y-86726688D01*
X66113486Y-86729917D01*
X66113934Y-86733174D01*
X66114358Y-86736458D01*
X66114755Y-86739769D01*
X66115127Y-86743108D01*
X66115473Y-86746474D01*
X66115792Y-86749868D01*
X66116084Y-86753289D01*
X66116350Y-86756739D01*
X66116589Y-86760217D01*
X66116801Y-86763723D01*
X66116985Y-86767257D01*
X66117141Y-86770819D01*
X66117270Y-86774411D01*
X66117370Y-86778030D01*
X66117442Y-86781679D01*
X66117486Y-86785356D01*
X66117500Y-86789062D01*
X65800000Y-87106562D02*
X65800911Y-87106572D01*
X65803566Y-87106640D01*
X65805511Y-87106713D01*
X65807848Y-87106824D01*
X65810564Y-87106977D01*
X65813643Y-87107182D01*
X65817070Y-87107445D01*
X65820832Y-87107773D01*
X65824914Y-87108174D01*
X65829301Y-87108655D01*
X65833978Y-87109223D01*
X65838932Y-87109885D01*
X65844147Y-87110650D01*
X65849609Y-87111523D01*
X65852429Y-87112003D01*
X65855304Y-87112512D01*
X65858234Y-87113053D01*
X65861217Y-87113626D01*
X65864251Y-87114231D01*
X65867334Y-87114869D01*
X65870464Y-87115543D01*
X65873639Y-87116251D01*
X65876858Y-87116996D01*
X65880119Y-87117779D01*
X65883419Y-87118599D01*
X65886758Y-87119458D01*
X65890133Y-87120358D01*
X65893543Y-87121298D01*
X65896986Y-87122280D01*
X65900459Y-87123305D01*
X65903961Y-87124374D01*
X65907491Y-87125486D01*
X65911046Y-87126645D01*
X65914625Y-87127849D01*
X65918225Y-87129101D01*
X65921846Y-87130401D01*
X65925484Y-87131750D01*
X65929139Y-87133150D01*
X65932809Y-87134599D01*
X65936491Y-87136101D01*
X65940184Y-87137656D01*
X65943887Y-87139263D01*
X65947596Y-87140926D01*
X65951311Y-87142644D01*
X65955030Y-87144418D01*
X65958750Y-87146250D01*
X65962470Y-87148139D01*
X65966189Y-87150088D01*
X65969904Y-87152096D01*
X65973613Y-87154166D01*
X65977316Y-87156297D01*
X65981009Y-87158491D01*
X65984691Y-87160748D01*
X65988361Y-87163070D01*
X65992016Y-87165458D01*
X65995654Y-87167911D01*
X65999275Y-87170432D01*
X66002875Y-87173021D01*
X66006454Y-87175679D01*
X66010009Y-87178407D01*
X66013539Y-87181206D01*
X66017041Y-87184077D01*
X66020514Y-87187020D01*
X66023957Y-87190037D01*
X66027367Y-87193128D01*
X66030742Y-87196295D01*
X66032416Y-87197907D01*
X66034081Y-87199538D01*
X66035736Y-87201188D01*
X66037381Y-87202858D01*
X66039017Y-87204548D01*
X66040642Y-87206257D01*
X66042257Y-87207985D01*
X66043861Y-87209734D01*
X66045454Y-87211503D01*
X66047036Y-87213291D01*
X66048607Y-87215100D01*
X66050166Y-87216930D01*
X66051714Y-87218779D01*
X66053249Y-87220649D01*
X66054772Y-87222540D01*
X66056283Y-87224452D01*
X66057781Y-87226385D01*
X66059266Y-87228338D01*
X66060737Y-87230313D01*
X66062196Y-87232309D01*
X66063640Y-87234326D01*
X66065071Y-87236365D01*
X66066488Y-87238425D01*
X66067891Y-87240507D01*
X66069279Y-87242611D01*
X66070652Y-87244737D01*
X66072010Y-87246885D01*
X66073353Y-87249055D01*
X66074681Y-87251247D01*
X66075992Y-87253461D01*
X66077288Y-87255698D01*
X66078568Y-87257958D01*
X66079832Y-87260240D01*
X66081079Y-87262545D01*
X66082309Y-87264873D01*
X66083522Y-87267224D01*
X66084718Y-87269599D01*
X66085896Y-87271996D01*
X66087057Y-87274417D01*
X66088199Y-87276862D01*
X66089324Y-87279330D01*
X66090430Y-87281822D01*
X66091518Y-87284337D01*
X66092586Y-87286877D01*
X66093636Y-87289440D01*
X66094666Y-87292028D01*
X66095677Y-87294641D01*
X66096668Y-87297277D01*
X66097639Y-87299938D01*
X66098590Y-87302624D01*
X66099520Y-87305334D01*
X66100430Y-87308070D01*
X66101319Y-87310830D01*
X66102186Y-87313616D01*
X66103033Y-87316426D01*
X66103857Y-87319262D01*
X66104660Y-87322124D01*
X66105441Y-87325011D01*
X66106200Y-87327923D01*
X66106936Y-87330862D01*
X66107650Y-87333826D01*
X66108340Y-87336816D01*
X66109008Y-87339832D01*
X66109652Y-87342875D01*
X66110272Y-87345944D01*
X66110869Y-87349039D01*
X66111441Y-87352161D01*
X66111989Y-87355310D01*
X66112513Y-87358486D01*
X66113012Y-87361688D01*
X66113486Y-87364917D01*
X66113934Y-87368174D01*
X66114358Y-87371458D01*
X66114755Y-87374769D01*
X66115127Y-87378108D01*
X66115473Y-87381474D01*
X66115792Y-87384868D01*
X66116084Y-87388289D01*
X66116350Y-87391739D01*
X66116589Y-87395217D01*
X66116801Y-87398723D01*
X66116985Y-87402257D01*
X66117141Y-87405819D01*
X66117270Y-87409411D01*
X66117370Y-87413030D01*
X66117442Y-87416679D01*
X66117486Y-87420356D01*
X66117500Y-87424062D01*
X65800000Y-87741562D02*
X65800911Y-87741572D01*
X65803566Y-87741640D01*
X65805511Y-87741713D01*
X65807848Y-87741824D01*
X65810564Y-87741977D01*
X65813643Y-87742182D01*
X65817070Y-87742445D01*
X65820832Y-87742773D01*
X65824914Y-87743174D01*
X65829301Y-87743655D01*
X65833978Y-87744223D01*
X65838932Y-87744885D01*
X65844147Y-87745650D01*
X65849609Y-87746523D01*
X65852429Y-87747003D01*
X65855304Y-87747512D01*
X65858234Y-87748053D01*
X65861217Y-87748626D01*
X65864251Y-87749231D01*
X65867334Y-87749869D01*
X65870464Y-87750543D01*
X65873639Y-87751251D01*
X65876858Y-87751996D01*
X65880119Y-87752779D01*
X65883419Y-87753599D01*
X65886758Y-87754458D01*
X65890133Y-87755358D01*
X65893543Y-87756298D01*
X65896986Y-87757280D01*
X65900459Y-87758305D01*
X65903961Y-87759374D01*
X65907491Y-87760486D01*
X65911046Y-87761645D01*
X65914625Y-87762849D01*
X65918225Y-87764101D01*
X65921846Y-87765401D01*
X65925484Y-87766750D01*
X65929139Y-87768150D01*
X65932809Y-87769599D01*
X65936491Y-87771101D01*
X65940184Y-87772656D01*
X65943887Y-87774263D01*
X65947596Y-87775926D01*
X65951311Y-87777644D01*
X65955030Y-87779418D01*
X65958750Y-87781250D01*
X65962470Y-87783139D01*
X65966189Y-87785088D01*
X65969904Y-87787096D01*
X65973613Y-87789166D01*
X65977316Y-87791297D01*
X65981009Y-87793491D01*
X65984691Y-87795748D01*
X65988361Y-87798070D01*
X65992016Y-87800458D01*
X65995654Y-87802911D01*
X65999275Y-87805432D01*
X66002875Y-87808021D01*
X66006454Y-87810679D01*
X66010009Y-87813407D01*
X66013539Y-87816206D01*
X66017041Y-87819077D01*
X66020514Y-87822020D01*
X66023957Y-87825037D01*
X66027367Y-87828128D01*
X66030742Y-87831295D01*
X66032416Y-87832907D01*
X66034081Y-87834538D01*
X66035736Y-87836188D01*
X66037381Y-87837858D01*
X66039017Y-87839548D01*
X66040642Y-87841257D01*
X66042257Y-87842985D01*
X66043861Y-87844734D01*
X66045454Y-87846503D01*
X66047036Y-87848291D01*
X66048607Y-87850100D01*
X66050166Y-87851930D01*
X66051714Y-87853779D01*
X66053249Y-87855649D01*
X66054772Y-87857540D01*
X66056283Y-87859452D01*
X66057781Y-87861385D01*
X66059266Y-87863338D01*
X66060737Y-87865313D01*
X66062196Y-87867309D01*
X66063640Y-87869326D01*
X66065071Y-87871365D01*
X66066488Y-87873425D01*
X66067891Y-87875507D01*
X66069279Y-87877611D01*
X66070652Y-87879737D01*
X66072010Y-87881885D01*
X66073353Y-87884055D01*
X66074681Y-87886247D01*
X66075992Y-87888461D01*
X66077288Y-87890698D01*
X66078568Y-87892958D01*
X66079832Y-87895240D01*
X66081079Y-87897545D01*
X66082309Y-87899873D01*
X66083522Y-87902224D01*
X66084718Y-87904599D01*
X66085896Y-87906996D01*
X66087057Y-87909417D01*
X66088199Y-87911862D01*
X66089324Y-87914330D01*
X66090430Y-87916822D01*
X66091518Y-87919337D01*
X66092586Y-87921877D01*
X66093636Y-87924440D01*
X66094666Y-87927028D01*
X66095677Y-87929641D01*
X66096668Y-87932277D01*
X66097639Y-87934938D01*
X66098590Y-87937624D01*
X66099520Y-87940334D01*
X66100430Y-87943070D01*
X66101319Y-87945830D01*
X66102186Y-87948616D01*
X66103033Y-87951426D01*
X66103857Y-87954262D01*
X66104660Y-87957124D01*
X66105441Y-87960011D01*
X66106200Y-87962923D01*
X66106936Y-87965862D01*
X66107650Y-87968826D01*
X66108340Y-87971816D01*
X66109008Y-87974832D01*
X66109652Y-87977875D01*
X66110272Y-87980944D01*
X66110869Y-87984039D01*
X66111441Y-87987161D01*
X66111989Y-87990310D01*
X66112513Y-87993486D01*
X66113012Y-87996688D01*
X66113486Y-87999917D01*
X66113934Y-88003174D01*
X66114358Y-88006458D01*
X66114755Y-88009769D01*
X66115127Y-88013108D01*
X66115473Y-88016474D01*
X66115792Y-88019868D01*
X66116084Y-88023289D01*
X66116350Y-88026739D01*
X66116589Y-88030217D01*
X66116801Y-88033723D01*
X66116985Y-88037257D01*
X66117141Y-88040819D01*
X66117270Y-88044411D01*
X66117370Y-88048030D01*
X66117442Y-88051679D01*
X66117486Y-88055356D01*
X66117500Y-88059062D01*
X66117500Y-86154062D02*
X66117490Y-86157138D01*
X66117460Y-86160195D01*
X66117411Y-86163231D01*
X66117341Y-86166248D01*
X66117253Y-86169245D01*
X66117145Y-86172223D01*
X66117017Y-86175182D01*
X66116871Y-86178121D01*
X66116705Y-86181042D01*
X66116521Y-86183943D01*
X66116318Y-86186826D01*
X66116096Y-86189690D01*
X66115856Y-86192536D01*
X66115597Y-86195362D01*
X66115320Y-86198171D01*
X66115025Y-86200961D01*
X66114711Y-86203735D01*
X66114380Y-86206489D01*
X66114030Y-86209226D01*
X66113663Y-86211944D01*
X66113278Y-86214647D01*
X66112875Y-86217330D01*
X66112455Y-86219998D01*
X66112018Y-86222646D01*
X66111562Y-86225280D01*
X66111090Y-86227894D01*
X66110601Y-86230494D01*
X66110094Y-86233075D01*
X66109570Y-86235641D01*
X66109030Y-86238188D01*
X66108472Y-86240722D01*
X66107898Y-86243237D01*
X66107307Y-86245737D01*
X66106700Y-86248220D01*
X66106075Y-86250689D01*
X66105434Y-86253139D01*
X66104777Y-86255577D01*
X66104104Y-86257996D01*
X66103413Y-86260402D01*
X66102707Y-86262790D01*
X66101984Y-86265166D01*
X66101246Y-86267523D01*
X66099720Y-86272195D01*
X66098130Y-86276808D01*
X66096477Y-86281361D01*
X66094760Y-86285857D01*
X66092980Y-86290295D01*
X66091137Y-86294676D01*
X66089231Y-86299001D01*
X66087263Y-86303270D01*
X66085232Y-86307485D01*
X66083140Y-86311646D01*
X66080985Y-86315754D01*
X66078768Y-86319808D01*
X66076490Y-86323810D01*
X66074149Y-86327761D01*
X66071746Y-86331660D01*
X66069282Y-86335508D01*
X66066755Y-86339306D01*
X66064165Y-86343055D01*
X66061514Y-86346753D01*
X66058800Y-86350403D01*
X66056023Y-86354004D01*
X66053183Y-86357556D01*
X66050280Y-86361060D01*
X66047313Y-86364517D01*
X66044282Y-86367925D01*
X66041188Y-86371287D01*
X66038029Y-86374600D01*
X66034806Y-86377867D01*
X66031517Y-86381086D01*
X66028163Y-86384258D01*
X66024743Y-86387383D01*
X66021258Y-86390461D01*
X66017705Y-86393492D01*
X66014086Y-86396475D01*
X66010400Y-86399411D01*
X66006646Y-86402300D01*
X66002824Y-86405140D01*
X65998935Y-86407932D01*
X65994976Y-86410676D01*
X65990949Y-86413371D01*
X65986853Y-86416017D01*
X65982687Y-86418613D01*
X65978452Y-86421159D01*
X65974148Y-86423655D01*
X65969773Y-86426099D01*
X65965329Y-86428492D01*
X65960816Y-86430833D01*
X65956233Y-86433120D01*
X65951580Y-86435354D01*
X65946859Y-86437532D01*
X65942069Y-86439656D01*
X65937212Y-86441723D01*
X65932288Y-86443733D01*
X65927297Y-86445685D01*
X65922242Y-86447578D01*
X65917123Y-86449410D01*
X65911942Y-86451181D01*
X65906702Y-86452890D01*
X65901404Y-86454534D01*
X65896052Y-86456113D01*
X65890648Y-86457626D01*
X65885197Y-86459071D01*
X65879704Y-86460447D01*
X65874172Y-86461751D01*
X65868610Y-86462983D01*
X65863025Y-86464141D01*
X65857426Y-86465222D01*
X65851823Y-86466226D01*
X65846230Y-86467150D01*
X65840664Y-86467992D01*
X65835144Y-86468751D01*
X65829696Y-86469423D01*
X65824354Y-86470008D01*
X65819163Y-86470501D01*
X65814186Y-86470903D01*
X65809515Y-86471209D01*
X65805304Y-86471419D01*
X65801852Y-86471534D01*
X65800000Y-86471562D01*
X66117500Y-86789062D02*
X66117490Y-86792138D01*
X66117460Y-86795195D01*
X66117411Y-86798231D01*
X66117341Y-86801248D01*
X66117253Y-86804245D01*
X66117145Y-86807223D01*
X66117017Y-86810182D01*
X66116871Y-86813121D01*
X66116705Y-86816042D01*
X66116521Y-86818943D01*
X66116318Y-86821826D01*
X66116096Y-86824690D01*
X66115856Y-86827536D01*
X66115597Y-86830362D01*
X66115320Y-86833171D01*
X66115025Y-86835961D01*
X66114711Y-86838735D01*
X66114380Y-86841489D01*
X66114030Y-86844226D01*
X66113663Y-86846944D01*
X66113278Y-86849647D01*
X66112875Y-86852330D01*
X66112455Y-86854998D01*
X66112018Y-86857646D01*
X66111562Y-86860280D01*
X66111090Y-86862894D01*
X66110601Y-86865494D01*
X66110094Y-86868075D01*
X66109570Y-86870641D01*
X66109030Y-86873188D01*
X66108472Y-86875722D01*
X66107898Y-86878237D01*
X66107307Y-86880737D01*
X66106700Y-86883220D01*
X66106075Y-86885689D01*
X66105434Y-86888139D01*
X66104777Y-86890577D01*
X66104104Y-86892996D01*
X66103413Y-86895402D01*
X66102707Y-86897790D01*
X66101984Y-86900166D01*
X66101246Y-86902523D01*
X66099720Y-86907195D01*
X66098130Y-86911808D01*
X66096477Y-86916361D01*
X66094760Y-86920857D01*
X66092980Y-86925295D01*
X66091137Y-86929676D01*
X66089231Y-86934001D01*
X66087263Y-86938270D01*
X66085232Y-86942485D01*
X66083140Y-86946646D01*
X66080985Y-86950754D01*
X66078768Y-86954808D01*
X66076490Y-86958810D01*
X66074149Y-86962761D01*
X66071746Y-86966660D01*
X66069282Y-86970508D01*
X66066755Y-86974306D01*
X66064165Y-86978055D01*
X66061514Y-86981753D01*
X66058800Y-86985403D01*
X66056023Y-86989004D01*
X66053183Y-86992556D01*
X66050280Y-86996060D01*
X66047313Y-86999517D01*
X66044282Y-87002925D01*
X66041188Y-87006287D01*
X66038029Y-87009600D01*
X66034806Y-87012867D01*
X66031517Y-87016086D01*
X66028163Y-87019258D01*
X66024743Y-87022383D01*
X66021258Y-87025461D01*
X66017705Y-87028492D01*
X66014086Y-87031475D01*
X66010400Y-87034411D01*
X66006646Y-87037300D01*
X66002824Y-87040140D01*
X65998935Y-87042932D01*
X65994976Y-87045676D01*
X65990949Y-87048371D01*
X65986853Y-87051017D01*
X65982687Y-87053613D01*
X65978452Y-87056159D01*
X65974148Y-87058655D01*
X65969773Y-87061099D01*
X65965329Y-87063492D01*
X65960816Y-87065833D01*
X65956233Y-87068120D01*
X65951580Y-87070354D01*
X65946859Y-87072532D01*
X65942069Y-87074656D01*
X65937212Y-87076723D01*
X65932288Y-87078733D01*
X65927297Y-87080685D01*
X65922242Y-87082578D01*
X65917123Y-87084410D01*
X65911942Y-87086181D01*
X65906702Y-87087890D01*
X65901404Y-87089534D01*
X65896052Y-87091113D01*
X65890648Y-87092626D01*
X65885197Y-87094071D01*
X65879704Y-87095447D01*
X65874172Y-87096751D01*
X65868610Y-87097983D01*
X65863025Y-87099141D01*
X65857426Y-87100222D01*
X65851823Y-87101226D01*
X65846230Y-87102150D01*
X65840664Y-87102992D01*
X65835144Y-87103751D01*
X65829696Y-87104423D01*
X65824354Y-87105008D01*
X65819163Y-87105501D01*
X65814186Y-87105903D01*
X65809515Y-87106209D01*
X65805304Y-87106419D01*
X65801852Y-87106534D01*
X65800000Y-87106562D01*
X66117500Y-87424062D02*
X66117490Y-87427138D01*
X66117460Y-87430195D01*
X66117411Y-87433231D01*
X66117341Y-87436248D01*
X66117253Y-87439245D01*
X66117145Y-87442223D01*
X66117017Y-87445182D01*
X66116871Y-87448121D01*
X66116705Y-87451042D01*
X66116521Y-87453943D01*
X66116318Y-87456826D01*
X66116096Y-87459690D01*
X66115856Y-87462536D01*
X66115597Y-87465362D01*
X66115320Y-87468171D01*
X66115025Y-87470961D01*
X66114711Y-87473735D01*
X66114380Y-87476489D01*
X66114030Y-87479226D01*
X66113663Y-87481944D01*
X66113278Y-87484647D01*
X66112875Y-87487330D01*
X66112455Y-87489998D01*
X66112018Y-87492646D01*
X66111562Y-87495280D01*
X66111090Y-87497894D01*
X66110601Y-87500494D01*
X66110094Y-87503075D01*
X66109570Y-87505641D01*
X66109030Y-87508188D01*
X66108472Y-87510722D01*
X66107898Y-87513237D01*
X66107307Y-87515737D01*
X66106700Y-87518220D01*
X66106075Y-87520689D01*
X66105434Y-87523139D01*
X66104777Y-87525577D01*
X66104104Y-87527996D01*
X66103413Y-87530402D01*
X66102707Y-87532790D01*
X66101984Y-87535166D01*
X66101246Y-87537523D01*
X66099720Y-87542195D01*
X66098130Y-87546808D01*
X66096477Y-87551361D01*
X66094760Y-87555857D01*
X66092980Y-87560295D01*
X66091137Y-87564676D01*
X66089231Y-87569001D01*
X66087263Y-87573270D01*
X66085232Y-87577485D01*
X66083140Y-87581646D01*
X66080985Y-87585754D01*
X66078768Y-87589808D01*
X66076490Y-87593810D01*
X66074149Y-87597761D01*
X66071746Y-87601660D01*
X66069282Y-87605508D01*
X66066755Y-87609306D01*
X66064165Y-87613055D01*
X66061514Y-87616753D01*
X66058800Y-87620403D01*
X66056023Y-87624004D01*
X66053183Y-87627556D01*
X66050280Y-87631060D01*
X66047313Y-87634517D01*
X66044282Y-87637925D01*
X66041188Y-87641287D01*
X66038029Y-87644600D01*
X66034806Y-87647867D01*
X66031517Y-87651086D01*
X66028163Y-87654258D01*
X66024743Y-87657383D01*
X66021258Y-87660461D01*
X66017705Y-87663492D01*
X66014086Y-87666475D01*
X66010400Y-87669411D01*
X66006646Y-87672300D01*
X66002824Y-87675140D01*
X65998935Y-87677932D01*
X65994976Y-87680676D01*
X65990949Y-87683371D01*
X65986853Y-87686017D01*
X65982687Y-87688613D01*
X65978452Y-87691159D01*
X65974148Y-87693655D01*
X65969773Y-87696099D01*
X65965329Y-87698492D01*
X65960816Y-87700833D01*
X65956233Y-87703120D01*
X65951580Y-87705354D01*
X65946859Y-87707532D01*
X65942069Y-87709656D01*
X65937212Y-87711723D01*
X65932288Y-87713733D01*
X65927297Y-87715685D01*
X65922242Y-87717578D01*
X65917123Y-87719410D01*
X65911942Y-87721181D01*
X65906702Y-87722890D01*
X65901404Y-87724534D01*
X65896052Y-87726113D01*
X65890648Y-87727626D01*
X65885197Y-87729071D01*
X65879704Y-87730447D01*
X65874172Y-87731751D01*
X65868610Y-87732983D01*
X65863025Y-87734141D01*
X65857426Y-87735222D01*
X65851823Y-87736226D01*
X65846230Y-87737150D01*
X65840664Y-87737992D01*
X65835144Y-87738751D01*
X65829696Y-87739423D01*
X65824354Y-87740008D01*
X65819163Y-87740501D01*
X65814186Y-87740903D01*
X65809515Y-87741209D01*
X65805304Y-87741419D01*
X65801852Y-87741534D01*
X65800000Y-87741562D01*
X66117500Y-88059062D02*
X66117490Y-88062138D01*
X66117460Y-88065195D01*
X66117411Y-88068231D01*
X66117341Y-88071248D01*
X66117253Y-88074245D01*
X66117145Y-88077223D01*
X66117017Y-88080182D01*
X66116871Y-88083121D01*
X66116705Y-88086042D01*
X66116521Y-88088943D01*
X66116318Y-88091826D01*
X66116096Y-88094690D01*
X66115856Y-88097536D01*
X66115597Y-88100362D01*
X66115320Y-88103171D01*
X66115025Y-88105961D01*
X66114711Y-88108735D01*
X66114380Y-88111489D01*
X66114030Y-88114226D01*
X66113663Y-88116944D01*
X66113278Y-88119647D01*
X66112875Y-88122330D01*
X66112455Y-88124998D01*
X66112018Y-88127646D01*
X66111562Y-88130280D01*
X66111090Y-88132894D01*
X66110601Y-88135494D01*
X66110094Y-88138075D01*
X66109570Y-88140641D01*
X66109030Y-88143188D01*
X66108472Y-88145722D01*
X66107898Y-88148237D01*
X66107307Y-88150737D01*
X66106700Y-88153220D01*
X66106075Y-88155689D01*
X66105434Y-88158139D01*
X66104777Y-88160577D01*
X66104104Y-88162996D01*
X66103413Y-88165402D01*
X66102707Y-88167790D01*
X66101984Y-88170166D01*
X66101246Y-88172523D01*
X66099720Y-88177195D01*
X66098130Y-88181808D01*
X66096477Y-88186361D01*
X66094760Y-88190857D01*
X66092980Y-88195295D01*
X66091137Y-88199676D01*
X66089231Y-88204001D01*
X66087263Y-88208270D01*
X66085232Y-88212485D01*
X66083140Y-88216646D01*
X66080985Y-88220754D01*
X66078768Y-88224808D01*
X66076490Y-88228810D01*
X66074149Y-88232761D01*
X66071746Y-88236660D01*
X66069282Y-88240508D01*
X66066755Y-88244306D01*
X66064165Y-88248055D01*
X66061514Y-88251753D01*
X66058800Y-88255403D01*
X66056023Y-88259004D01*
X66053183Y-88262556D01*
X66050280Y-88266060D01*
X66047313Y-88269517D01*
X66044282Y-88272925D01*
X66041188Y-88276287D01*
X66038029Y-88279600D01*
X66034806Y-88282867D01*
X66031517Y-88286086D01*
X66028163Y-88289258D01*
X66024743Y-88292383D01*
X66021258Y-88295461D01*
X66017705Y-88298492D01*
X66014086Y-88301475D01*
X66010400Y-88304411D01*
X66006646Y-88307300D01*
X66002824Y-88310140D01*
X65998935Y-88312932D01*
X65994976Y-88315676D01*
X65990949Y-88318371D01*
X65986853Y-88321017D01*
X65982687Y-88323613D01*
X65978452Y-88326159D01*
X65974148Y-88328655D01*
X65969773Y-88331099D01*
X65965329Y-88333492D01*
X65960816Y-88335833D01*
X65956233Y-88338120D01*
X65951580Y-88340354D01*
X65946859Y-88342532D01*
X65942069Y-88344656D01*
X65937212Y-88346723D01*
X65932288Y-88348733D01*
X65927297Y-88350685D01*
X65922242Y-88352578D01*
X65917123Y-88354410D01*
X65911942Y-88356181D01*
X65906702Y-88357890D01*
X65901404Y-88359534D01*
X65896052Y-88361113D01*
X65890648Y-88362626D01*
X65885197Y-88364071D01*
X65879704Y-88365447D01*
X65874172Y-88366751D01*
X65868610Y-88367983D01*
X65863025Y-88369141D01*
X65857426Y-88370222D01*
X65851823Y-88371226D01*
X65846230Y-88372150D01*
X65840664Y-88372992D01*
X65835144Y-88373751D01*
X65829696Y-88374423D01*
X65824354Y-88375008D01*
X65819163Y-88375501D01*
X65814186Y-88375903D01*
X65809515Y-88376209D01*
X65805304Y-88376419D01*
X65801852Y-88376534D01*
X65800000Y-88376562D01*
D10*
%TO.C,C7*%
X82900000Y-87100000D02*
G75*
G02*
X82934833Y-81880213I1500000J2600000D01*
G01*
X85900000Y-81900000D02*
G75*
G02*
X85901671Y-87099035I-1500000J-2600000D01*
G01*
D14*
%TO.C,L5*%
X104600000Y-82300000D02*
X108600000Y-82300000D01*
X104600000Y-89300000D02*
X108600000Y-89300000D01*
D15*
X104900000Y-86000000D02*
X105336562Y-86000000D01*
X107876562Y-86000000D02*
X108313125Y-86000000D01*
X105336562Y-86000000D02*
X105336572Y-85999089D01*
X105336640Y-85996434D01*
X105336713Y-85994489D01*
X105336824Y-85992152D01*
X105336977Y-85989436D01*
X105337182Y-85986357D01*
X105337445Y-85982930D01*
X105337773Y-85979168D01*
X105338174Y-85975086D01*
X105338655Y-85970699D01*
X105339223Y-85966022D01*
X105339885Y-85961068D01*
X105340650Y-85955853D01*
X105341523Y-85950391D01*
X105342003Y-85947571D01*
X105342512Y-85944696D01*
X105343053Y-85941766D01*
X105343626Y-85938783D01*
X105344231Y-85935749D01*
X105344869Y-85932666D01*
X105345543Y-85929536D01*
X105346251Y-85926361D01*
X105346996Y-85923142D01*
X105347779Y-85919881D01*
X105348599Y-85916581D01*
X105349458Y-85913242D01*
X105350358Y-85909867D01*
X105351298Y-85906457D01*
X105352280Y-85903014D01*
X105353305Y-85899541D01*
X105354374Y-85896039D01*
X105355486Y-85892509D01*
X105356645Y-85888954D01*
X105357849Y-85885375D01*
X105359101Y-85881775D01*
X105360401Y-85878154D01*
X105361750Y-85874516D01*
X105363150Y-85870861D01*
X105364599Y-85867191D01*
X105366101Y-85863509D01*
X105367656Y-85859816D01*
X105369263Y-85856113D01*
X105370926Y-85852404D01*
X105372644Y-85848689D01*
X105374418Y-85844970D01*
X105376250Y-85841250D01*
X105378139Y-85837530D01*
X105380088Y-85833811D01*
X105382096Y-85830096D01*
X105384166Y-85826387D01*
X105386297Y-85822684D01*
X105388491Y-85818991D01*
X105390748Y-85815309D01*
X105393070Y-85811639D01*
X105395458Y-85807984D01*
X105397911Y-85804346D01*
X105400432Y-85800725D01*
X105403021Y-85797125D01*
X105405679Y-85793546D01*
X105408407Y-85789991D01*
X105411206Y-85786461D01*
X105414077Y-85782959D01*
X105417020Y-85779486D01*
X105420037Y-85776043D01*
X105423128Y-85772633D01*
X105426295Y-85769258D01*
X105427907Y-85767584D01*
X105429538Y-85765919D01*
X105431188Y-85764264D01*
X105432858Y-85762619D01*
X105434548Y-85760983D01*
X105436257Y-85759358D01*
X105437985Y-85757743D01*
X105439734Y-85756139D01*
X105441503Y-85754546D01*
X105443291Y-85752964D01*
X105445100Y-85751393D01*
X105446930Y-85749834D01*
X105448779Y-85748286D01*
X105450649Y-85746751D01*
X105452540Y-85745228D01*
X105454452Y-85743717D01*
X105456385Y-85742219D01*
X105458338Y-85740734D01*
X105460313Y-85739263D01*
X105462309Y-85737804D01*
X105464326Y-85736360D01*
X105466365Y-85734929D01*
X105468425Y-85733512D01*
X105470507Y-85732109D01*
X105472611Y-85730721D01*
X105474737Y-85729348D01*
X105476885Y-85727990D01*
X105479055Y-85726647D01*
X105481247Y-85725319D01*
X105483461Y-85724008D01*
X105485698Y-85722712D01*
X105487958Y-85721432D01*
X105490240Y-85720168D01*
X105492545Y-85718921D01*
X105494873Y-85717691D01*
X105497224Y-85716478D01*
X105499599Y-85715282D01*
X105501996Y-85714104D01*
X105504417Y-85712943D01*
X105506862Y-85711801D01*
X105509330Y-85710676D01*
X105511822Y-85709570D01*
X105514337Y-85708482D01*
X105516877Y-85707414D01*
X105519440Y-85706364D01*
X105522028Y-85705334D01*
X105524641Y-85704323D01*
X105527277Y-85703332D01*
X105529938Y-85702361D01*
X105532624Y-85701410D01*
X105535334Y-85700480D01*
X105538070Y-85699570D01*
X105540830Y-85698681D01*
X105543616Y-85697814D01*
X105546426Y-85696967D01*
X105549262Y-85696143D01*
X105552124Y-85695340D01*
X105555011Y-85694559D01*
X105557923Y-85693800D01*
X105560862Y-85693064D01*
X105563826Y-85692350D01*
X105566816Y-85691660D01*
X105569832Y-85690992D01*
X105572875Y-85690348D01*
X105575944Y-85689728D01*
X105579039Y-85689131D01*
X105582161Y-85688559D01*
X105585310Y-85688011D01*
X105588486Y-85687487D01*
X105591688Y-85686988D01*
X105594917Y-85686514D01*
X105598174Y-85686066D01*
X105601458Y-85685642D01*
X105604769Y-85685245D01*
X105608108Y-85684873D01*
X105611474Y-85684527D01*
X105614868Y-85684208D01*
X105618289Y-85683916D01*
X105621739Y-85683650D01*
X105625217Y-85683411D01*
X105628723Y-85683199D01*
X105632257Y-85683015D01*
X105635819Y-85682859D01*
X105639411Y-85682730D01*
X105643030Y-85682630D01*
X105646679Y-85682558D01*
X105650356Y-85682514D01*
X105654062Y-85682500D01*
X105654062Y-85682500D02*
X105657138Y-85682510D01*
X105660195Y-85682540D01*
X105663231Y-85682589D01*
X105666248Y-85682659D01*
X105669245Y-85682747D01*
X105672223Y-85682855D01*
X105675182Y-85682983D01*
X105678121Y-85683129D01*
X105681042Y-85683295D01*
X105683943Y-85683479D01*
X105686826Y-85683682D01*
X105689690Y-85683904D01*
X105692536Y-85684144D01*
X105695362Y-85684403D01*
X105698171Y-85684680D01*
X105700961Y-85684975D01*
X105703735Y-85685289D01*
X105706489Y-85685620D01*
X105709226Y-85685970D01*
X105711944Y-85686337D01*
X105714647Y-85686722D01*
X105717330Y-85687125D01*
X105719998Y-85687545D01*
X105722646Y-85687982D01*
X105725280Y-85688438D01*
X105727894Y-85688910D01*
X105730494Y-85689399D01*
X105733075Y-85689906D01*
X105735641Y-85690430D01*
X105738188Y-85690970D01*
X105740722Y-85691528D01*
X105743237Y-85692102D01*
X105745737Y-85692693D01*
X105748220Y-85693300D01*
X105750689Y-85693925D01*
X105753139Y-85694566D01*
X105755577Y-85695223D01*
X105757996Y-85695896D01*
X105760402Y-85696587D01*
X105762790Y-85697293D01*
X105765166Y-85698016D01*
X105767523Y-85698754D01*
X105772195Y-85700280D01*
X105776808Y-85701870D01*
X105781361Y-85703523D01*
X105785857Y-85705240D01*
X105790295Y-85707020D01*
X105794676Y-85708863D01*
X105799001Y-85710769D01*
X105803270Y-85712737D01*
X105807485Y-85714768D01*
X105811646Y-85716860D01*
X105815754Y-85719015D01*
X105819808Y-85721232D01*
X105823810Y-85723510D01*
X105827761Y-85725851D01*
X105831660Y-85728254D01*
X105835508Y-85730718D01*
X105839306Y-85733245D01*
X105843055Y-85735835D01*
X105846753Y-85738486D01*
X105850403Y-85741200D01*
X105854004Y-85743977D01*
X105857556Y-85746817D01*
X105861060Y-85749720D01*
X105864517Y-85752687D01*
X105867925Y-85755718D01*
X105871287Y-85758812D01*
X105874600Y-85761971D01*
X105877867Y-85765194D01*
X105881086Y-85768483D01*
X105884258Y-85771837D01*
X105887383Y-85775257D01*
X105890461Y-85778742D01*
X105893492Y-85782295D01*
X105896475Y-85785914D01*
X105899411Y-85789600D01*
X105902300Y-85793354D01*
X105905140Y-85797176D01*
X105907932Y-85801065D01*
X105910676Y-85805024D01*
X105913371Y-85809051D01*
X105916017Y-85813147D01*
X105918613Y-85817313D01*
X105921159Y-85821548D01*
X105923655Y-85825852D01*
X105926099Y-85830227D01*
X105928492Y-85834671D01*
X105930833Y-85839184D01*
X105933120Y-85843767D01*
X105935354Y-85848420D01*
X105937532Y-85853141D01*
X105939656Y-85857931D01*
X105941723Y-85862788D01*
X105943733Y-85867712D01*
X105945685Y-85872703D01*
X105947578Y-85877758D01*
X105949410Y-85882877D01*
X105951181Y-85888058D01*
X105952890Y-85893298D01*
X105954534Y-85898596D01*
X105956113Y-85903948D01*
X105957626Y-85909352D01*
X105959071Y-85914803D01*
X105960447Y-85920296D01*
X105961751Y-85925828D01*
X105962983Y-85931390D01*
X105964141Y-85936975D01*
X105965222Y-85942574D01*
X105966226Y-85948177D01*
X105967150Y-85953770D01*
X105967992Y-85959336D01*
X105968751Y-85964856D01*
X105969423Y-85970304D01*
X105970008Y-85975646D01*
X105970501Y-85980837D01*
X105970903Y-85985814D01*
X105971209Y-85990485D01*
X105971419Y-85994696D01*
X105971534Y-85998148D01*
X105971562Y-86000000D01*
X105971562Y-86000000D02*
X105971572Y-85999089D01*
X105971640Y-85996434D01*
X105971713Y-85994489D01*
X105971824Y-85992152D01*
X105971977Y-85989436D01*
X105972182Y-85986357D01*
X105972445Y-85982930D01*
X105972773Y-85979168D01*
X105973174Y-85975086D01*
X105973655Y-85970699D01*
X105974223Y-85966022D01*
X105974885Y-85961068D01*
X105975650Y-85955853D01*
X105976523Y-85950391D01*
X105977003Y-85947571D01*
X105977512Y-85944696D01*
X105978053Y-85941766D01*
X105978626Y-85938783D01*
X105979231Y-85935749D01*
X105979869Y-85932666D01*
X105980543Y-85929536D01*
X105981251Y-85926361D01*
X105981996Y-85923142D01*
X105982779Y-85919881D01*
X105983599Y-85916581D01*
X105984458Y-85913242D01*
X105985358Y-85909867D01*
X105986298Y-85906457D01*
X105987280Y-85903014D01*
X105988305Y-85899541D01*
X105989374Y-85896039D01*
X105990486Y-85892509D01*
X105991645Y-85888954D01*
X105992849Y-85885375D01*
X105994101Y-85881775D01*
X105995401Y-85878154D01*
X105996750Y-85874516D01*
X105998150Y-85870861D01*
X105999599Y-85867191D01*
X106001101Y-85863509D01*
X106002656Y-85859816D01*
X106004263Y-85856113D01*
X106005926Y-85852404D01*
X106007644Y-85848689D01*
X106009418Y-85844970D01*
X106011250Y-85841250D01*
X106013139Y-85837530D01*
X106015088Y-85833811D01*
X106017096Y-85830096D01*
X106019166Y-85826387D01*
X106021297Y-85822684D01*
X106023491Y-85818991D01*
X106025748Y-85815309D01*
X106028070Y-85811639D01*
X106030458Y-85807984D01*
X106032911Y-85804346D01*
X106035432Y-85800725D01*
X106038021Y-85797125D01*
X106040679Y-85793546D01*
X106043407Y-85789991D01*
X106046206Y-85786461D01*
X106049077Y-85782959D01*
X106052020Y-85779486D01*
X106055037Y-85776043D01*
X106058128Y-85772633D01*
X106061295Y-85769258D01*
X106062907Y-85767584D01*
X106064538Y-85765919D01*
X106066188Y-85764264D01*
X106067858Y-85762619D01*
X106069548Y-85760983D01*
X106071257Y-85759358D01*
X106072985Y-85757743D01*
X106074734Y-85756139D01*
X106076503Y-85754546D01*
X106078291Y-85752964D01*
X106080100Y-85751393D01*
X106081930Y-85749834D01*
X106083779Y-85748286D01*
X106085649Y-85746751D01*
X106087540Y-85745228D01*
X106089452Y-85743717D01*
X106091385Y-85742219D01*
X106093338Y-85740734D01*
X106095313Y-85739263D01*
X106097309Y-85737804D01*
X106099326Y-85736360D01*
X106101365Y-85734929D01*
X106103425Y-85733512D01*
X106105507Y-85732109D01*
X106107611Y-85730721D01*
X106109737Y-85729348D01*
X106111885Y-85727990D01*
X106114055Y-85726647D01*
X106116247Y-85725319D01*
X106118461Y-85724008D01*
X106120698Y-85722712D01*
X106122958Y-85721432D01*
X106125240Y-85720168D01*
X106127545Y-85718921D01*
X106129873Y-85717691D01*
X106132224Y-85716478D01*
X106134599Y-85715282D01*
X106136996Y-85714104D01*
X106139417Y-85712943D01*
X106141862Y-85711801D01*
X106144330Y-85710676D01*
X106146822Y-85709570D01*
X106149337Y-85708482D01*
X106151877Y-85707414D01*
X106154440Y-85706364D01*
X106157028Y-85705334D01*
X106159641Y-85704323D01*
X106162277Y-85703332D01*
X106164938Y-85702361D01*
X106167624Y-85701410D01*
X106170334Y-85700480D01*
X106173070Y-85699570D01*
X106175830Y-85698681D01*
X106178616Y-85697814D01*
X106181426Y-85696967D01*
X106184262Y-85696143D01*
X106187124Y-85695340D01*
X106190011Y-85694559D01*
X106192923Y-85693800D01*
X106195862Y-85693064D01*
X106198826Y-85692350D01*
X106201816Y-85691660D01*
X106204832Y-85690992D01*
X106207875Y-85690348D01*
X106210944Y-85689728D01*
X106214039Y-85689131D01*
X106217161Y-85688559D01*
X106220310Y-85688011D01*
X106223486Y-85687487D01*
X106226688Y-85686988D01*
X106229917Y-85686514D01*
X106233174Y-85686066D01*
X106236458Y-85685642D01*
X106239769Y-85685245D01*
X106243108Y-85684873D01*
X106246474Y-85684527D01*
X106249868Y-85684208D01*
X106253289Y-85683916D01*
X106256739Y-85683650D01*
X106260217Y-85683411D01*
X106263723Y-85683199D01*
X106267257Y-85683015D01*
X106270819Y-85682859D01*
X106274411Y-85682730D01*
X106278030Y-85682630D01*
X106281679Y-85682558D01*
X106285356Y-85682514D01*
X106289062Y-85682500D01*
X106289062Y-85682500D02*
X106292138Y-85682510D01*
X106295195Y-85682540D01*
X106298231Y-85682589D01*
X106301248Y-85682659D01*
X106304245Y-85682747D01*
X106307223Y-85682855D01*
X106310182Y-85682983D01*
X106313121Y-85683129D01*
X106316042Y-85683295D01*
X106318943Y-85683479D01*
X106321826Y-85683682D01*
X106324690Y-85683904D01*
X106327536Y-85684144D01*
X106330362Y-85684403D01*
X106333171Y-85684680D01*
X106335961Y-85684975D01*
X106338735Y-85685289D01*
X106341489Y-85685620D01*
X106344226Y-85685970D01*
X106346944Y-85686337D01*
X106349647Y-85686722D01*
X106352330Y-85687125D01*
X106354998Y-85687545D01*
X106357646Y-85687982D01*
X106360280Y-85688438D01*
X106362894Y-85688910D01*
X106365494Y-85689399D01*
X106368075Y-85689906D01*
X106370641Y-85690430D01*
X106373188Y-85690970D01*
X106375722Y-85691528D01*
X106378237Y-85692102D01*
X106380737Y-85692693D01*
X106383220Y-85693300D01*
X106385689Y-85693925D01*
X106388139Y-85694566D01*
X106390577Y-85695223D01*
X106392996Y-85695896D01*
X106395402Y-85696587D01*
X106397790Y-85697293D01*
X106400166Y-85698016D01*
X106402523Y-85698754D01*
X106407195Y-85700280D01*
X106411808Y-85701870D01*
X106416361Y-85703523D01*
X106420857Y-85705240D01*
X106425295Y-85707020D01*
X106429676Y-85708863D01*
X106434001Y-85710769D01*
X106438270Y-85712737D01*
X106442485Y-85714768D01*
X106446646Y-85716860D01*
X106450754Y-85719015D01*
X106454808Y-85721232D01*
X106458810Y-85723510D01*
X106462761Y-85725851D01*
X106466660Y-85728254D01*
X106470508Y-85730718D01*
X106474306Y-85733245D01*
X106478055Y-85735835D01*
X106481753Y-85738486D01*
X106485403Y-85741200D01*
X106489004Y-85743977D01*
X106492556Y-85746817D01*
X106496060Y-85749720D01*
X106499517Y-85752687D01*
X106502925Y-85755718D01*
X106506287Y-85758812D01*
X106509600Y-85761971D01*
X106512867Y-85765194D01*
X106516086Y-85768483D01*
X106519258Y-85771837D01*
X106522383Y-85775257D01*
X106525461Y-85778742D01*
X106528492Y-85782295D01*
X106531475Y-85785914D01*
X106534411Y-85789600D01*
X106537300Y-85793354D01*
X106540140Y-85797176D01*
X106542932Y-85801065D01*
X106545676Y-85805024D01*
X106548371Y-85809051D01*
X106551017Y-85813147D01*
X106553613Y-85817313D01*
X106556159Y-85821548D01*
X106558655Y-85825852D01*
X106561099Y-85830227D01*
X106563492Y-85834671D01*
X106565833Y-85839184D01*
X106568120Y-85843767D01*
X106570354Y-85848420D01*
X106572532Y-85853141D01*
X106574656Y-85857931D01*
X106576723Y-85862788D01*
X106578733Y-85867712D01*
X106580685Y-85872703D01*
X106582578Y-85877758D01*
X106584410Y-85882877D01*
X106586181Y-85888058D01*
X106587890Y-85893298D01*
X106589534Y-85898596D01*
X106591113Y-85903948D01*
X106592626Y-85909352D01*
X106594071Y-85914803D01*
X106595447Y-85920296D01*
X106596751Y-85925828D01*
X106597983Y-85931390D01*
X106599141Y-85936975D01*
X106600222Y-85942574D01*
X106601226Y-85948177D01*
X106602150Y-85953770D01*
X106602992Y-85959336D01*
X106603751Y-85964856D01*
X106604423Y-85970304D01*
X106605008Y-85975646D01*
X106605501Y-85980837D01*
X106605903Y-85985814D01*
X106606209Y-85990485D01*
X106606419Y-85994696D01*
X106606534Y-85998148D01*
X106606562Y-86000000D01*
X106606562Y-86000000D02*
X106606572Y-85999089D01*
X106606640Y-85996434D01*
X106606713Y-85994489D01*
X106606824Y-85992152D01*
X106606977Y-85989436D01*
X106607182Y-85986357D01*
X106607445Y-85982930D01*
X106607773Y-85979168D01*
X106608174Y-85975086D01*
X106608655Y-85970699D01*
X106609223Y-85966022D01*
X106609885Y-85961068D01*
X106610650Y-85955853D01*
X106611523Y-85950391D01*
X106612003Y-85947571D01*
X106612512Y-85944696D01*
X106613053Y-85941766D01*
X106613626Y-85938783D01*
X106614231Y-85935749D01*
X106614869Y-85932666D01*
X106615543Y-85929536D01*
X106616251Y-85926361D01*
X106616996Y-85923142D01*
X106617779Y-85919881D01*
X106618599Y-85916581D01*
X106619458Y-85913242D01*
X106620358Y-85909867D01*
X106621298Y-85906457D01*
X106622280Y-85903014D01*
X106623305Y-85899541D01*
X106624374Y-85896039D01*
X106625486Y-85892509D01*
X106626645Y-85888954D01*
X106627849Y-85885375D01*
X106629101Y-85881775D01*
X106630401Y-85878154D01*
X106631750Y-85874516D01*
X106633150Y-85870861D01*
X106634599Y-85867191D01*
X106636101Y-85863509D01*
X106637656Y-85859816D01*
X106639263Y-85856113D01*
X106640926Y-85852404D01*
X106642644Y-85848689D01*
X106644418Y-85844970D01*
X106646250Y-85841250D01*
X106648139Y-85837530D01*
X106650088Y-85833811D01*
X106652096Y-85830096D01*
X106654166Y-85826387D01*
X106656297Y-85822684D01*
X106658491Y-85818991D01*
X106660748Y-85815309D01*
X106663070Y-85811639D01*
X106665458Y-85807984D01*
X106667911Y-85804346D01*
X106670432Y-85800725D01*
X106673021Y-85797125D01*
X106675679Y-85793546D01*
X106678407Y-85789991D01*
X106681206Y-85786461D01*
X106684077Y-85782959D01*
X106687020Y-85779486D01*
X106690037Y-85776043D01*
X106693128Y-85772633D01*
X106696295Y-85769258D01*
X106697907Y-85767584D01*
X106699538Y-85765919D01*
X106701188Y-85764264D01*
X106702858Y-85762619D01*
X106704548Y-85760983D01*
X106706257Y-85759358D01*
X106707985Y-85757743D01*
X106709734Y-85756139D01*
X106711503Y-85754546D01*
X106713291Y-85752964D01*
X106715100Y-85751393D01*
X106716930Y-85749834D01*
X106718779Y-85748286D01*
X106720649Y-85746751D01*
X106722540Y-85745228D01*
X106724452Y-85743717D01*
X106726385Y-85742219D01*
X106728338Y-85740734D01*
X106730313Y-85739263D01*
X106732309Y-85737804D01*
X106734326Y-85736360D01*
X106736365Y-85734929D01*
X106738425Y-85733512D01*
X106740507Y-85732109D01*
X106742611Y-85730721D01*
X106744737Y-85729348D01*
X106746885Y-85727990D01*
X106749055Y-85726647D01*
X106751247Y-85725319D01*
X106753461Y-85724008D01*
X106755698Y-85722712D01*
X106757958Y-85721432D01*
X106760240Y-85720168D01*
X106762545Y-85718921D01*
X106764873Y-85717691D01*
X106767224Y-85716478D01*
X106769599Y-85715282D01*
X106771996Y-85714104D01*
X106774417Y-85712943D01*
X106776862Y-85711801D01*
X106779330Y-85710676D01*
X106781822Y-85709570D01*
X106784337Y-85708482D01*
X106786877Y-85707414D01*
X106789440Y-85706364D01*
X106792028Y-85705334D01*
X106794641Y-85704323D01*
X106797277Y-85703332D01*
X106799938Y-85702361D01*
X106802624Y-85701410D01*
X106805334Y-85700480D01*
X106808070Y-85699570D01*
X106810830Y-85698681D01*
X106813616Y-85697814D01*
X106816426Y-85696967D01*
X106819262Y-85696143D01*
X106822124Y-85695340D01*
X106825011Y-85694559D01*
X106827923Y-85693800D01*
X106830862Y-85693064D01*
X106833826Y-85692350D01*
X106836816Y-85691660D01*
X106839832Y-85690992D01*
X106842875Y-85690348D01*
X106845944Y-85689728D01*
X106849039Y-85689131D01*
X106852161Y-85688559D01*
X106855310Y-85688011D01*
X106858486Y-85687487D01*
X106861688Y-85686988D01*
X106864917Y-85686514D01*
X106868174Y-85686066D01*
X106871458Y-85685642D01*
X106874769Y-85685245D01*
X106878108Y-85684873D01*
X106881474Y-85684527D01*
X106884868Y-85684208D01*
X106888289Y-85683916D01*
X106891739Y-85683650D01*
X106895217Y-85683411D01*
X106898723Y-85683199D01*
X106902257Y-85683015D01*
X106905819Y-85682859D01*
X106909411Y-85682730D01*
X106913030Y-85682630D01*
X106916679Y-85682558D01*
X106920356Y-85682514D01*
X106924062Y-85682500D01*
X106924062Y-85682500D02*
X106927138Y-85682510D01*
X106930195Y-85682540D01*
X106933231Y-85682589D01*
X106936248Y-85682659D01*
X106939245Y-85682747D01*
X106942223Y-85682855D01*
X106945182Y-85682983D01*
X106948121Y-85683129D01*
X106951042Y-85683295D01*
X106953943Y-85683479D01*
X106956826Y-85683682D01*
X106959690Y-85683904D01*
X106962536Y-85684144D01*
X106965362Y-85684403D01*
X106968171Y-85684680D01*
X106970961Y-85684975D01*
X106973735Y-85685289D01*
X106976489Y-85685620D01*
X106979226Y-85685970D01*
X106981944Y-85686337D01*
X106984647Y-85686722D01*
X106987330Y-85687125D01*
X106989998Y-85687545D01*
X106992646Y-85687982D01*
X106995280Y-85688438D01*
X106997894Y-85688910D01*
X107000494Y-85689399D01*
X107003075Y-85689906D01*
X107005641Y-85690430D01*
X107008188Y-85690970D01*
X107010722Y-85691528D01*
X107013237Y-85692102D01*
X107015737Y-85692693D01*
X107018220Y-85693300D01*
X107020689Y-85693925D01*
X107023139Y-85694566D01*
X107025577Y-85695223D01*
X107027996Y-85695896D01*
X107030402Y-85696587D01*
X107032790Y-85697293D01*
X107035166Y-85698016D01*
X107037523Y-85698754D01*
X107042195Y-85700280D01*
X107046808Y-85701870D01*
X107051361Y-85703523D01*
X107055857Y-85705240D01*
X107060295Y-85707020D01*
X107064676Y-85708863D01*
X107069001Y-85710769D01*
X107073270Y-85712737D01*
X107077485Y-85714768D01*
X107081646Y-85716860D01*
X107085754Y-85719015D01*
X107089808Y-85721232D01*
X107093810Y-85723510D01*
X107097761Y-85725851D01*
X107101660Y-85728254D01*
X107105508Y-85730718D01*
X107109306Y-85733245D01*
X107113055Y-85735835D01*
X107116753Y-85738486D01*
X107120403Y-85741200D01*
X107124004Y-85743977D01*
X107127556Y-85746817D01*
X107131060Y-85749720D01*
X107134517Y-85752687D01*
X107137925Y-85755718D01*
X107141287Y-85758812D01*
X107144600Y-85761971D01*
X107147867Y-85765194D01*
X107151086Y-85768483D01*
X107154258Y-85771837D01*
X107157383Y-85775257D01*
X107160461Y-85778742D01*
X107163492Y-85782295D01*
X107166475Y-85785914D01*
X107169411Y-85789600D01*
X107172300Y-85793354D01*
X107175140Y-85797176D01*
X107177932Y-85801065D01*
X107180676Y-85805024D01*
X107183371Y-85809051D01*
X107186017Y-85813147D01*
X107188613Y-85817313D01*
X107191159Y-85821548D01*
X107193655Y-85825852D01*
X107196099Y-85830227D01*
X107198492Y-85834671D01*
X107200833Y-85839184D01*
X107203120Y-85843767D01*
X107205354Y-85848420D01*
X107207532Y-85853141D01*
X107209656Y-85857931D01*
X107211723Y-85862788D01*
X107213733Y-85867712D01*
X107215685Y-85872703D01*
X107217578Y-85877758D01*
X107219410Y-85882877D01*
X107221181Y-85888058D01*
X107222890Y-85893298D01*
X107224534Y-85898596D01*
X107226113Y-85903948D01*
X107227626Y-85909352D01*
X107229071Y-85914803D01*
X107230447Y-85920296D01*
X107231751Y-85925828D01*
X107232983Y-85931390D01*
X107234141Y-85936975D01*
X107235222Y-85942574D01*
X107236226Y-85948177D01*
X107237150Y-85953770D01*
X107237992Y-85959336D01*
X107238751Y-85964856D01*
X107239423Y-85970304D01*
X107240008Y-85975646D01*
X107240501Y-85980837D01*
X107240903Y-85985814D01*
X107241209Y-85990485D01*
X107241419Y-85994696D01*
X107241534Y-85998148D01*
X107241562Y-86000000D01*
X107241562Y-86000000D02*
X107241572Y-85999089D01*
X107241640Y-85996434D01*
X107241713Y-85994489D01*
X107241824Y-85992152D01*
X107241977Y-85989436D01*
X107242182Y-85986357D01*
X107242445Y-85982930D01*
X107242773Y-85979168D01*
X107243174Y-85975086D01*
X107243655Y-85970699D01*
X107244223Y-85966022D01*
X107244885Y-85961068D01*
X107245650Y-85955853D01*
X107246523Y-85950391D01*
X107247003Y-85947571D01*
X107247512Y-85944696D01*
X107248053Y-85941766D01*
X107248626Y-85938783D01*
X107249231Y-85935749D01*
X107249869Y-85932666D01*
X107250543Y-85929536D01*
X107251251Y-85926361D01*
X107251996Y-85923142D01*
X107252779Y-85919881D01*
X107253599Y-85916581D01*
X107254458Y-85913242D01*
X107255358Y-85909867D01*
X107256298Y-85906457D01*
X107257280Y-85903014D01*
X107258305Y-85899541D01*
X107259374Y-85896039D01*
X107260486Y-85892509D01*
X107261645Y-85888954D01*
X107262849Y-85885375D01*
X107264101Y-85881775D01*
X107265401Y-85878154D01*
X107266750Y-85874516D01*
X107268150Y-85870861D01*
X107269599Y-85867191D01*
X107271101Y-85863509D01*
X107272656Y-85859816D01*
X107274263Y-85856113D01*
X107275926Y-85852404D01*
X107277644Y-85848689D01*
X107279418Y-85844970D01*
X107281250Y-85841250D01*
X107283139Y-85837530D01*
X107285088Y-85833811D01*
X107287096Y-85830096D01*
X107289166Y-85826387D01*
X107291297Y-85822684D01*
X107293491Y-85818991D01*
X107295748Y-85815309D01*
X107298070Y-85811639D01*
X107300458Y-85807984D01*
X107302911Y-85804346D01*
X107305432Y-85800725D01*
X107308021Y-85797125D01*
X107310679Y-85793546D01*
X107313407Y-85789991D01*
X107316206Y-85786461D01*
X107319077Y-85782959D01*
X107322020Y-85779486D01*
X107325037Y-85776043D01*
X107328128Y-85772633D01*
X107331295Y-85769258D01*
X107332907Y-85767584D01*
X107334538Y-85765919D01*
X107336188Y-85764264D01*
X107337858Y-85762619D01*
X107339548Y-85760983D01*
X107341257Y-85759358D01*
X107342985Y-85757743D01*
X107344734Y-85756139D01*
X107346503Y-85754546D01*
X107348291Y-85752964D01*
X107350100Y-85751393D01*
X107351930Y-85749834D01*
X107353779Y-85748286D01*
X107355649Y-85746751D01*
X107357540Y-85745228D01*
X107359452Y-85743717D01*
X107361385Y-85742219D01*
X107363338Y-85740734D01*
X107365313Y-85739263D01*
X107367309Y-85737804D01*
X107369326Y-85736360D01*
X107371365Y-85734929D01*
X107373425Y-85733512D01*
X107375507Y-85732109D01*
X107377611Y-85730721D01*
X107379737Y-85729348D01*
X107381885Y-85727990D01*
X107384055Y-85726647D01*
X107386247Y-85725319D01*
X107388461Y-85724008D01*
X107390698Y-85722712D01*
X107392958Y-85721432D01*
X107395240Y-85720168D01*
X107397545Y-85718921D01*
X107399873Y-85717691D01*
X107402224Y-85716478D01*
X107404599Y-85715282D01*
X107406996Y-85714104D01*
X107409417Y-85712943D01*
X107411862Y-85711801D01*
X107414330Y-85710676D01*
X107416822Y-85709570D01*
X107419337Y-85708482D01*
X107421877Y-85707414D01*
X107424440Y-85706364D01*
X107427028Y-85705334D01*
X107429641Y-85704323D01*
X107432277Y-85703332D01*
X107434938Y-85702361D01*
X107437624Y-85701410D01*
X107440334Y-85700480D01*
X107443070Y-85699570D01*
X107445830Y-85698681D01*
X107448616Y-85697814D01*
X107451426Y-85696967D01*
X107454262Y-85696143D01*
X107457124Y-85695340D01*
X107460011Y-85694559D01*
X107462923Y-85693800D01*
X107465862Y-85693064D01*
X107468826Y-85692350D01*
X107471816Y-85691660D01*
X107474832Y-85690992D01*
X107477875Y-85690348D01*
X107480944Y-85689728D01*
X107484039Y-85689131D01*
X107487161Y-85688559D01*
X107490310Y-85688011D01*
X107493486Y-85687487D01*
X107496688Y-85686988D01*
X107499917Y-85686514D01*
X107503174Y-85686066D01*
X107506458Y-85685642D01*
X107509769Y-85685245D01*
X107513108Y-85684873D01*
X107516474Y-85684527D01*
X107519868Y-85684208D01*
X107523289Y-85683916D01*
X107526739Y-85683650D01*
X107530217Y-85683411D01*
X107533723Y-85683199D01*
X107537257Y-85683015D01*
X107540819Y-85682859D01*
X107544411Y-85682730D01*
X107548030Y-85682630D01*
X107551679Y-85682558D01*
X107555356Y-85682514D01*
X107559062Y-85682500D01*
X107559062Y-85682500D02*
X107562138Y-85682510D01*
X107565195Y-85682540D01*
X107568231Y-85682589D01*
X107571248Y-85682659D01*
X107574245Y-85682747D01*
X107577223Y-85682855D01*
X107580182Y-85682983D01*
X107583121Y-85683129D01*
X107586042Y-85683295D01*
X107588943Y-85683479D01*
X107591826Y-85683682D01*
X107594690Y-85683904D01*
X107597536Y-85684144D01*
X107600362Y-85684403D01*
X107603171Y-85684680D01*
X107605961Y-85684975D01*
X107608735Y-85685289D01*
X107611489Y-85685620D01*
X107614226Y-85685970D01*
X107616944Y-85686337D01*
X107619647Y-85686722D01*
X107622330Y-85687125D01*
X107624998Y-85687545D01*
X107627646Y-85687982D01*
X107630280Y-85688438D01*
X107632894Y-85688910D01*
X107635494Y-85689399D01*
X107638075Y-85689906D01*
X107640641Y-85690430D01*
X107643188Y-85690970D01*
X107645722Y-85691528D01*
X107648237Y-85692102D01*
X107650737Y-85692693D01*
X107653220Y-85693300D01*
X107655689Y-85693925D01*
X107658139Y-85694566D01*
X107660577Y-85695223D01*
X107662996Y-85695896D01*
X107665402Y-85696587D01*
X107667790Y-85697293D01*
X107670166Y-85698016D01*
X107672523Y-85698754D01*
X107677195Y-85700280D01*
X107681808Y-85701870D01*
X107686361Y-85703523D01*
X107690857Y-85705240D01*
X107695295Y-85707020D01*
X107699676Y-85708863D01*
X107704001Y-85710769D01*
X107708270Y-85712737D01*
X107712485Y-85714768D01*
X107716646Y-85716860D01*
X107720754Y-85719015D01*
X107724808Y-85721232D01*
X107728810Y-85723510D01*
X107732761Y-85725851D01*
X107736660Y-85728254D01*
X107740508Y-85730718D01*
X107744306Y-85733245D01*
X107748055Y-85735835D01*
X107751753Y-85738486D01*
X107755403Y-85741200D01*
X107759004Y-85743977D01*
X107762556Y-85746817D01*
X107766060Y-85749720D01*
X107769517Y-85752687D01*
X107772925Y-85755718D01*
X107776287Y-85758812D01*
X107779600Y-85761971D01*
X107782867Y-85765194D01*
X107786086Y-85768483D01*
X107789258Y-85771837D01*
X107792383Y-85775257D01*
X107795461Y-85778742D01*
X107798492Y-85782295D01*
X107801475Y-85785914D01*
X107804411Y-85789600D01*
X107807300Y-85793354D01*
X107810140Y-85797176D01*
X107812932Y-85801065D01*
X107815676Y-85805024D01*
X107818371Y-85809051D01*
X107821017Y-85813147D01*
X107823613Y-85817313D01*
X107826159Y-85821548D01*
X107828655Y-85825852D01*
X107831099Y-85830227D01*
X107833492Y-85834671D01*
X107835833Y-85839184D01*
X107838120Y-85843767D01*
X107840354Y-85848420D01*
X107842532Y-85853141D01*
X107844656Y-85857931D01*
X107846723Y-85862788D01*
X107848733Y-85867712D01*
X107850685Y-85872703D01*
X107852578Y-85877758D01*
X107854410Y-85882877D01*
X107856181Y-85888058D01*
X107857890Y-85893298D01*
X107859534Y-85898596D01*
X107861113Y-85903948D01*
X107862626Y-85909352D01*
X107864071Y-85914803D01*
X107865447Y-85920296D01*
X107866751Y-85925828D01*
X107867983Y-85931390D01*
X107869141Y-85936975D01*
X107870222Y-85942574D01*
X107871226Y-85948177D01*
X107872150Y-85953770D01*
X107872992Y-85959336D01*
X107873751Y-85964856D01*
X107874423Y-85970304D01*
X107875008Y-85975646D01*
X107875501Y-85980837D01*
X107875903Y-85985814D01*
X107876209Y-85990485D01*
X107876419Y-85994696D01*
X107876534Y-85998148D01*
X107876562Y-86000000D01*
D14*
%TO.C,Q1*%
X69140000Y-77520000D02*
X69140000Y-74940000D01*
X69140000Y-77660000D02*
X69140000Y-74940000D01*
X70120000Y-74940000D02*
X69140000Y-74940000D01*
X72880000Y-74940000D02*
X73860000Y-74940000D01*
X73860000Y-74940000D02*
X73860000Y-77660000D01*
X69290000Y-78070000D02*
X68960000Y-78310000D01*
X68960000Y-77830000D01*
X69290000Y-78070000D01*
G36*
X69290000Y-78070000D02*
G01*
X68960000Y-78310000D01*
X68960000Y-77830000D01*
X69290000Y-78070000D01*
G37*
%TO.C,L4*%
X91900000Y-77300000D02*
X91900000Y-81300000D01*
D15*
X95200000Y-77600000D02*
X95200000Y-78036562D01*
X95200000Y-80576562D02*
X95200000Y-81013125D01*
D14*
X98900000Y-77300000D02*
X98900000Y-81300000D01*
D15*
X95200000Y-78036562D02*
X95200911Y-78036572D01*
X95203566Y-78036640D01*
X95205511Y-78036713D01*
X95207848Y-78036824D01*
X95210564Y-78036977D01*
X95213643Y-78037182D01*
X95217070Y-78037445D01*
X95220832Y-78037773D01*
X95224914Y-78038174D01*
X95229301Y-78038655D01*
X95233978Y-78039223D01*
X95238932Y-78039885D01*
X95244147Y-78040650D01*
X95249609Y-78041523D01*
X95252429Y-78042003D01*
X95255304Y-78042512D01*
X95258234Y-78043053D01*
X95261217Y-78043626D01*
X95264251Y-78044231D01*
X95267334Y-78044869D01*
X95270464Y-78045543D01*
X95273639Y-78046251D01*
X95276858Y-78046996D01*
X95280119Y-78047779D01*
X95283419Y-78048599D01*
X95286758Y-78049458D01*
X95290133Y-78050358D01*
X95293543Y-78051298D01*
X95296986Y-78052280D01*
X95300459Y-78053305D01*
X95303961Y-78054374D01*
X95307491Y-78055486D01*
X95311046Y-78056645D01*
X95314625Y-78057849D01*
X95318225Y-78059101D01*
X95321846Y-78060401D01*
X95325484Y-78061750D01*
X95329139Y-78063150D01*
X95332809Y-78064599D01*
X95336491Y-78066101D01*
X95340184Y-78067656D01*
X95343887Y-78069263D01*
X95347596Y-78070926D01*
X95351311Y-78072644D01*
X95355030Y-78074418D01*
X95358750Y-78076250D01*
X95362470Y-78078139D01*
X95366189Y-78080088D01*
X95369904Y-78082096D01*
X95373613Y-78084166D01*
X95377316Y-78086297D01*
X95381009Y-78088491D01*
X95384691Y-78090748D01*
X95388361Y-78093070D01*
X95392016Y-78095458D01*
X95395654Y-78097911D01*
X95399275Y-78100432D01*
X95402875Y-78103021D01*
X95406454Y-78105679D01*
X95410009Y-78108407D01*
X95413539Y-78111206D01*
X95417041Y-78114077D01*
X95420514Y-78117020D01*
X95423957Y-78120037D01*
X95427367Y-78123128D01*
X95430742Y-78126295D01*
X95432416Y-78127907D01*
X95434081Y-78129538D01*
X95435736Y-78131188D01*
X95437381Y-78132858D01*
X95439017Y-78134548D01*
X95440642Y-78136257D01*
X95442257Y-78137985D01*
X95443861Y-78139734D01*
X95445454Y-78141503D01*
X95447036Y-78143291D01*
X95448607Y-78145100D01*
X95450166Y-78146930D01*
X95451714Y-78148779D01*
X95453249Y-78150649D01*
X95454772Y-78152540D01*
X95456283Y-78154452D01*
X95457781Y-78156385D01*
X95459266Y-78158338D01*
X95460737Y-78160313D01*
X95462196Y-78162309D01*
X95463640Y-78164326D01*
X95465071Y-78166365D01*
X95466488Y-78168425D01*
X95467891Y-78170507D01*
X95469279Y-78172611D01*
X95470652Y-78174737D01*
X95472010Y-78176885D01*
X95473353Y-78179055D01*
X95474681Y-78181247D01*
X95475992Y-78183461D01*
X95477288Y-78185698D01*
X95478568Y-78187958D01*
X95479832Y-78190240D01*
X95481079Y-78192545D01*
X95482309Y-78194873D01*
X95483522Y-78197224D01*
X95484718Y-78199599D01*
X95485896Y-78201996D01*
X95487057Y-78204417D01*
X95488199Y-78206862D01*
X95489324Y-78209330D01*
X95490430Y-78211822D01*
X95491518Y-78214337D01*
X95492586Y-78216877D01*
X95493636Y-78219440D01*
X95494666Y-78222028D01*
X95495677Y-78224641D01*
X95496668Y-78227277D01*
X95497639Y-78229938D01*
X95498590Y-78232624D01*
X95499520Y-78235334D01*
X95500430Y-78238070D01*
X95501319Y-78240830D01*
X95502186Y-78243616D01*
X95503033Y-78246426D01*
X95503857Y-78249262D01*
X95504660Y-78252124D01*
X95505441Y-78255011D01*
X95506200Y-78257923D01*
X95506936Y-78260862D01*
X95507650Y-78263826D01*
X95508340Y-78266816D01*
X95509008Y-78269832D01*
X95509652Y-78272875D01*
X95510272Y-78275944D01*
X95510869Y-78279039D01*
X95511441Y-78282161D01*
X95511989Y-78285310D01*
X95512513Y-78288486D01*
X95513012Y-78291688D01*
X95513486Y-78294917D01*
X95513934Y-78298174D01*
X95514358Y-78301458D01*
X95514755Y-78304769D01*
X95515127Y-78308108D01*
X95515473Y-78311474D01*
X95515792Y-78314868D01*
X95516084Y-78318289D01*
X95516350Y-78321739D01*
X95516589Y-78325217D01*
X95516801Y-78328723D01*
X95516985Y-78332257D01*
X95517141Y-78335819D01*
X95517270Y-78339411D01*
X95517370Y-78343030D01*
X95517442Y-78346679D01*
X95517486Y-78350356D01*
X95517500Y-78354062D01*
X95200000Y-78671562D02*
X95200911Y-78671572D01*
X95203566Y-78671640D01*
X95205511Y-78671713D01*
X95207848Y-78671824D01*
X95210564Y-78671977D01*
X95213643Y-78672182D01*
X95217070Y-78672445D01*
X95220832Y-78672773D01*
X95224914Y-78673174D01*
X95229301Y-78673655D01*
X95233978Y-78674223D01*
X95238932Y-78674885D01*
X95244147Y-78675650D01*
X95249609Y-78676523D01*
X95252429Y-78677003D01*
X95255304Y-78677512D01*
X95258234Y-78678053D01*
X95261217Y-78678626D01*
X95264251Y-78679231D01*
X95267334Y-78679869D01*
X95270464Y-78680543D01*
X95273639Y-78681251D01*
X95276858Y-78681996D01*
X95280119Y-78682779D01*
X95283419Y-78683599D01*
X95286758Y-78684458D01*
X95290133Y-78685358D01*
X95293543Y-78686298D01*
X95296986Y-78687280D01*
X95300459Y-78688305D01*
X95303961Y-78689374D01*
X95307491Y-78690486D01*
X95311046Y-78691645D01*
X95314625Y-78692849D01*
X95318225Y-78694101D01*
X95321846Y-78695401D01*
X95325484Y-78696750D01*
X95329139Y-78698150D01*
X95332809Y-78699599D01*
X95336491Y-78701101D01*
X95340184Y-78702656D01*
X95343887Y-78704263D01*
X95347596Y-78705926D01*
X95351311Y-78707644D01*
X95355030Y-78709418D01*
X95358750Y-78711250D01*
X95362470Y-78713139D01*
X95366189Y-78715088D01*
X95369904Y-78717096D01*
X95373613Y-78719166D01*
X95377316Y-78721297D01*
X95381009Y-78723491D01*
X95384691Y-78725748D01*
X95388361Y-78728070D01*
X95392016Y-78730458D01*
X95395654Y-78732911D01*
X95399275Y-78735432D01*
X95402875Y-78738021D01*
X95406454Y-78740679D01*
X95410009Y-78743407D01*
X95413539Y-78746206D01*
X95417041Y-78749077D01*
X95420514Y-78752020D01*
X95423957Y-78755037D01*
X95427367Y-78758128D01*
X95430742Y-78761295D01*
X95432416Y-78762907D01*
X95434081Y-78764538D01*
X95435736Y-78766188D01*
X95437381Y-78767858D01*
X95439017Y-78769548D01*
X95440642Y-78771257D01*
X95442257Y-78772985D01*
X95443861Y-78774734D01*
X95445454Y-78776503D01*
X95447036Y-78778291D01*
X95448607Y-78780100D01*
X95450166Y-78781930D01*
X95451714Y-78783779D01*
X95453249Y-78785649D01*
X95454772Y-78787540D01*
X95456283Y-78789452D01*
X95457781Y-78791385D01*
X95459266Y-78793338D01*
X95460737Y-78795313D01*
X95462196Y-78797309D01*
X95463640Y-78799326D01*
X95465071Y-78801365D01*
X95466488Y-78803425D01*
X95467891Y-78805507D01*
X95469279Y-78807611D01*
X95470652Y-78809737D01*
X95472010Y-78811885D01*
X95473353Y-78814055D01*
X95474681Y-78816247D01*
X95475992Y-78818461D01*
X95477288Y-78820698D01*
X95478568Y-78822958D01*
X95479832Y-78825240D01*
X95481079Y-78827545D01*
X95482309Y-78829873D01*
X95483522Y-78832224D01*
X95484718Y-78834599D01*
X95485896Y-78836996D01*
X95487057Y-78839417D01*
X95488199Y-78841862D01*
X95489324Y-78844330D01*
X95490430Y-78846822D01*
X95491518Y-78849337D01*
X95492586Y-78851877D01*
X95493636Y-78854440D01*
X95494666Y-78857028D01*
X95495677Y-78859641D01*
X95496668Y-78862277D01*
X95497639Y-78864938D01*
X95498590Y-78867624D01*
X95499520Y-78870334D01*
X95500430Y-78873070D01*
X95501319Y-78875830D01*
X95502186Y-78878616D01*
X95503033Y-78881426D01*
X95503857Y-78884262D01*
X95504660Y-78887124D01*
X95505441Y-78890011D01*
X95506200Y-78892923D01*
X95506936Y-78895862D01*
X95507650Y-78898826D01*
X95508340Y-78901816D01*
X95509008Y-78904832D01*
X95509652Y-78907875D01*
X95510272Y-78910944D01*
X95510869Y-78914039D01*
X95511441Y-78917161D01*
X95511989Y-78920310D01*
X95512513Y-78923486D01*
X95513012Y-78926688D01*
X95513486Y-78929917D01*
X95513934Y-78933174D01*
X95514358Y-78936458D01*
X95514755Y-78939769D01*
X95515127Y-78943108D01*
X95515473Y-78946474D01*
X95515792Y-78949868D01*
X95516084Y-78953289D01*
X95516350Y-78956739D01*
X95516589Y-78960217D01*
X95516801Y-78963723D01*
X95516985Y-78967257D01*
X95517141Y-78970819D01*
X95517270Y-78974411D01*
X95517370Y-78978030D01*
X95517442Y-78981679D01*
X95517486Y-78985356D01*
X95517500Y-78989062D01*
X95200000Y-79306562D02*
X95200911Y-79306572D01*
X95203566Y-79306640D01*
X95205511Y-79306713D01*
X95207848Y-79306824D01*
X95210564Y-79306977D01*
X95213643Y-79307182D01*
X95217070Y-79307445D01*
X95220832Y-79307773D01*
X95224914Y-79308174D01*
X95229301Y-79308655D01*
X95233978Y-79309223D01*
X95238932Y-79309885D01*
X95244147Y-79310650D01*
X95249609Y-79311523D01*
X95252429Y-79312003D01*
X95255304Y-79312512D01*
X95258234Y-79313053D01*
X95261217Y-79313626D01*
X95264251Y-79314231D01*
X95267334Y-79314869D01*
X95270464Y-79315543D01*
X95273639Y-79316251D01*
X95276858Y-79316996D01*
X95280119Y-79317779D01*
X95283419Y-79318599D01*
X95286758Y-79319458D01*
X95290133Y-79320358D01*
X95293543Y-79321298D01*
X95296986Y-79322280D01*
X95300459Y-79323305D01*
X95303961Y-79324374D01*
X95307491Y-79325486D01*
X95311046Y-79326645D01*
X95314625Y-79327849D01*
X95318225Y-79329101D01*
X95321846Y-79330401D01*
X95325484Y-79331750D01*
X95329139Y-79333150D01*
X95332809Y-79334599D01*
X95336491Y-79336101D01*
X95340184Y-79337656D01*
X95343887Y-79339263D01*
X95347596Y-79340926D01*
X95351311Y-79342644D01*
X95355030Y-79344418D01*
X95358750Y-79346250D01*
X95362470Y-79348139D01*
X95366189Y-79350088D01*
X95369904Y-79352096D01*
X95373613Y-79354166D01*
X95377316Y-79356297D01*
X95381009Y-79358491D01*
X95384691Y-79360748D01*
X95388361Y-79363070D01*
X95392016Y-79365458D01*
X95395654Y-79367911D01*
X95399275Y-79370432D01*
X95402875Y-79373021D01*
X95406454Y-79375679D01*
X95410009Y-79378407D01*
X95413539Y-79381206D01*
X95417041Y-79384077D01*
X95420514Y-79387020D01*
X95423957Y-79390037D01*
X95427367Y-79393128D01*
X95430742Y-79396295D01*
X95432416Y-79397907D01*
X95434081Y-79399538D01*
X95435736Y-79401188D01*
X95437381Y-79402858D01*
X95439017Y-79404548D01*
X95440642Y-79406257D01*
X95442257Y-79407985D01*
X95443861Y-79409734D01*
X95445454Y-79411503D01*
X95447036Y-79413291D01*
X95448607Y-79415100D01*
X95450166Y-79416930D01*
X95451714Y-79418779D01*
X95453249Y-79420649D01*
X95454772Y-79422540D01*
X95456283Y-79424452D01*
X95457781Y-79426385D01*
X95459266Y-79428338D01*
X95460737Y-79430313D01*
X95462196Y-79432309D01*
X95463640Y-79434326D01*
X95465071Y-79436365D01*
X95466488Y-79438425D01*
X95467891Y-79440507D01*
X95469279Y-79442611D01*
X95470652Y-79444737D01*
X95472010Y-79446885D01*
X95473353Y-79449055D01*
X95474681Y-79451247D01*
X95475992Y-79453461D01*
X95477288Y-79455698D01*
X95478568Y-79457958D01*
X95479832Y-79460240D01*
X95481079Y-79462545D01*
X95482309Y-79464873D01*
X95483522Y-79467224D01*
X95484718Y-79469599D01*
X95485896Y-79471996D01*
X95487057Y-79474417D01*
X95488199Y-79476862D01*
X95489324Y-79479330D01*
X95490430Y-79481822D01*
X95491518Y-79484337D01*
X95492586Y-79486877D01*
X95493636Y-79489440D01*
X95494666Y-79492028D01*
X95495677Y-79494641D01*
X95496668Y-79497277D01*
X95497639Y-79499938D01*
X95498590Y-79502624D01*
X95499520Y-79505334D01*
X95500430Y-79508070D01*
X95501319Y-79510830D01*
X95502186Y-79513616D01*
X95503033Y-79516426D01*
X95503857Y-79519262D01*
X95504660Y-79522124D01*
X95505441Y-79525011D01*
X95506200Y-79527923D01*
X95506936Y-79530862D01*
X95507650Y-79533826D01*
X95508340Y-79536816D01*
X95509008Y-79539832D01*
X95509652Y-79542875D01*
X95510272Y-79545944D01*
X95510869Y-79549039D01*
X95511441Y-79552161D01*
X95511989Y-79555310D01*
X95512513Y-79558486D01*
X95513012Y-79561688D01*
X95513486Y-79564917D01*
X95513934Y-79568174D01*
X95514358Y-79571458D01*
X95514755Y-79574769D01*
X95515127Y-79578108D01*
X95515473Y-79581474D01*
X95515792Y-79584868D01*
X95516084Y-79588289D01*
X95516350Y-79591739D01*
X95516589Y-79595217D01*
X95516801Y-79598723D01*
X95516985Y-79602257D01*
X95517141Y-79605819D01*
X95517270Y-79609411D01*
X95517370Y-79613030D01*
X95517442Y-79616679D01*
X95517486Y-79620356D01*
X95517500Y-79624062D01*
X95200000Y-79941562D02*
X95200911Y-79941572D01*
X95203566Y-79941640D01*
X95205511Y-79941713D01*
X95207848Y-79941824D01*
X95210564Y-79941977D01*
X95213643Y-79942182D01*
X95217070Y-79942445D01*
X95220832Y-79942773D01*
X95224914Y-79943174D01*
X95229301Y-79943655D01*
X95233978Y-79944223D01*
X95238932Y-79944885D01*
X95244147Y-79945650D01*
X95249609Y-79946523D01*
X95252429Y-79947003D01*
X95255304Y-79947512D01*
X95258234Y-79948053D01*
X95261217Y-79948626D01*
X95264251Y-79949231D01*
X95267334Y-79949869D01*
X95270464Y-79950543D01*
X95273639Y-79951251D01*
X95276858Y-79951996D01*
X95280119Y-79952779D01*
X95283419Y-79953599D01*
X95286758Y-79954458D01*
X95290133Y-79955358D01*
X95293543Y-79956298D01*
X95296986Y-79957280D01*
X95300459Y-79958305D01*
X95303961Y-79959374D01*
X95307491Y-79960486D01*
X95311046Y-79961645D01*
X95314625Y-79962849D01*
X95318225Y-79964101D01*
X95321846Y-79965401D01*
X95325484Y-79966750D01*
X95329139Y-79968150D01*
X95332809Y-79969599D01*
X95336491Y-79971101D01*
X95340184Y-79972656D01*
X95343887Y-79974263D01*
X95347596Y-79975926D01*
X95351311Y-79977644D01*
X95355030Y-79979418D01*
X95358750Y-79981250D01*
X95362470Y-79983139D01*
X95366189Y-79985088D01*
X95369904Y-79987096D01*
X95373613Y-79989166D01*
X95377316Y-79991297D01*
X95381009Y-79993491D01*
X95384691Y-79995748D01*
X95388361Y-79998070D01*
X95392016Y-80000458D01*
X95395654Y-80002911D01*
X95399275Y-80005432D01*
X95402875Y-80008021D01*
X95406454Y-80010679D01*
X95410009Y-80013407D01*
X95413539Y-80016206D01*
X95417041Y-80019077D01*
X95420514Y-80022020D01*
X95423957Y-80025037D01*
X95427367Y-80028128D01*
X95430742Y-80031295D01*
X95432416Y-80032907D01*
X95434081Y-80034538D01*
X95435736Y-80036188D01*
X95437381Y-80037858D01*
X95439017Y-80039548D01*
X95440642Y-80041257D01*
X95442257Y-80042985D01*
X95443861Y-80044734D01*
X95445454Y-80046503D01*
X95447036Y-80048291D01*
X95448607Y-80050100D01*
X95450166Y-80051930D01*
X95451714Y-80053779D01*
X95453249Y-80055649D01*
X95454772Y-80057540D01*
X95456283Y-80059452D01*
X95457781Y-80061385D01*
X95459266Y-80063338D01*
X95460737Y-80065313D01*
X95462196Y-80067309D01*
X95463640Y-80069326D01*
X95465071Y-80071365D01*
X95466488Y-80073425D01*
X95467891Y-80075507D01*
X95469279Y-80077611D01*
X95470652Y-80079737D01*
X95472010Y-80081885D01*
X95473353Y-80084055D01*
X95474681Y-80086247D01*
X95475992Y-80088461D01*
X95477288Y-80090698D01*
X95478568Y-80092958D01*
X95479832Y-80095240D01*
X95481079Y-80097545D01*
X95482309Y-80099873D01*
X95483522Y-80102224D01*
X95484718Y-80104599D01*
X95485896Y-80106996D01*
X95487057Y-80109417D01*
X95488199Y-80111862D01*
X95489324Y-80114330D01*
X95490430Y-80116822D01*
X95491518Y-80119337D01*
X95492586Y-80121877D01*
X95493636Y-80124440D01*
X95494666Y-80127028D01*
X95495677Y-80129641D01*
X95496668Y-80132277D01*
X95497639Y-80134938D01*
X95498590Y-80137624D01*
X95499520Y-80140334D01*
X95500430Y-80143070D01*
X95501319Y-80145830D01*
X95502186Y-80148616D01*
X95503033Y-80151426D01*
X95503857Y-80154262D01*
X95504660Y-80157124D01*
X95505441Y-80160011D01*
X95506200Y-80162923D01*
X95506936Y-80165862D01*
X95507650Y-80168826D01*
X95508340Y-80171816D01*
X95509008Y-80174832D01*
X95509652Y-80177875D01*
X95510272Y-80180944D01*
X95510869Y-80184039D01*
X95511441Y-80187161D01*
X95511989Y-80190310D01*
X95512513Y-80193486D01*
X95513012Y-80196688D01*
X95513486Y-80199917D01*
X95513934Y-80203174D01*
X95514358Y-80206458D01*
X95514755Y-80209769D01*
X95515127Y-80213108D01*
X95515473Y-80216474D01*
X95515792Y-80219868D01*
X95516084Y-80223289D01*
X95516350Y-80226739D01*
X95516589Y-80230217D01*
X95516801Y-80233723D01*
X95516985Y-80237257D01*
X95517141Y-80240819D01*
X95517270Y-80244411D01*
X95517370Y-80248030D01*
X95517442Y-80251679D01*
X95517486Y-80255356D01*
X95517500Y-80259062D01*
X95517500Y-78354062D02*
X95517490Y-78357138D01*
X95517460Y-78360195D01*
X95517411Y-78363231D01*
X95517341Y-78366248D01*
X95517253Y-78369245D01*
X95517145Y-78372223D01*
X95517017Y-78375182D01*
X95516871Y-78378121D01*
X95516705Y-78381042D01*
X95516521Y-78383943D01*
X95516318Y-78386826D01*
X95516096Y-78389690D01*
X95515856Y-78392536D01*
X95515597Y-78395362D01*
X95515320Y-78398171D01*
X95515025Y-78400961D01*
X95514711Y-78403735D01*
X95514380Y-78406489D01*
X95514030Y-78409226D01*
X95513663Y-78411944D01*
X95513278Y-78414647D01*
X95512875Y-78417330D01*
X95512455Y-78419998D01*
X95512018Y-78422646D01*
X95511562Y-78425280D01*
X95511090Y-78427894D01*
X95510601Y-78430494D01*
X95510094Y-78433075D01*
X95509570Y-78435641D01*
X95509030Y-78438188D01*
X95508472Y-78440722D01*
X95507898Y-78443237D01*
X95507307Y-78445737D01*
X95506700Y-78448220D01*
X95506075Y-78450689D01*
X95505434Y-78453139D01*
X95504777Y-78455577D01*
X95504104Y-78457996D01*
X95503413Y-78460402D01*
X95502707Y-78462790D01*
X95501984Y-78465166D01*
X95501246Y-78467523D01*
X95499720Y-78472195D01*
X95498130Y-78476808D01*
X95496477Y-78481361D01*
X95494760Y-78485857D01*
X95492980Y-78490295D01*
X95491137Y-78494676D01*
X95489231Y-78499001D01*
X95487263Y-78503270D01*
X95485232Y-78507485D01*
X95483140Y-78511646D01*
X95480985Y-78515754D01*
X95478768Y-78519808D01*
X95476490Y-78523810D01*
X95474149Y-78527761D01*
X95471746Y-78531660D01*
X95469282Y-78535508D01*
X95466755Y-78539306D01*
X95464165Y-78543055D01*
X95461514Y-78546753D01*
X95458800Y-78550403D01*
X95456023Y-78554004D01*
X95453183Y-78557556D01*
X95450280Y-78561060D01*
X95447313Y-78564517D01*
X95444282Y-78567925D01*
X95441188Y-78571287D01*
X95438029Y-78574600D01*
X95434806Y-78577867D01*
X95431517Y-78581086D01*
X95428163Y-78584258D01*
X95424743Y-78587383D01*
X95421258Y-78590461D01*
X95417705Y-78593492D01*
X95414086Y-78596475D01*
X95410400Y-78599411D01*
X95406646Y-78602300D01*
X95402824Y-78605140D01*
X95398935Y-78607932D01*
X95394976Y-78610676D01*
X95390949Y-78613371D01*
X95386853Y-78616017D01*
X95382687Y-78618613D01*
X95378452Y-78621159D01*
X95374148Y-78623655D01*
X95369773Y-78626099D01*
X95365329Y-78628492D01*
X95360816Y-78630833D01*
X95356233Y-78633120D01*
X95351580Y-78635354D01*
X95346859Y-78637532D01*
X95342069Y-78639656D01*
X95337212Y-78641723D01*
X95332288Y-78643733D01*
X95327297Y-78645685D01*
X95322242Y-78647578D01*
X95317123Y-78649410D01*
X95311942Y-78651181D01*
X95306702Y-78652890D01*
X95301404Y-78654534D01*
X95296052Y-78656113D01*
X95290648Y-78657626D01*
X95285197Y-78659071D01*
X95279704Y-78660447D01*
X95274172Y-78661751D01*
X95268610Y-78662983D01*
X95263025Y-78664141D01*
X95257426Y-78665222D01*
X95251823Y-78666226D01*
X95246230Y-78667150D01*
X95240664Y-78667992D01*
X95235144Y-78668751D01*
X95229696Y-78669423D01*
X95224354Y-78670008D01*
X95219163Y-78670501D01*
X95214186Y-78670903D01*
X95209515Y-78671209D01*
X95205304Y-78671419D01*
X95201852Y-78671534D01*
X95200000Y-78671562D01*
X95517500Y-78989062D02*
X95517490Y-78992138D01*
X95517460Y-78995195D01*
X95517411Y-78998231D01*
X95517341Y-79001248D01*
X95517253Y-79004245D01*
X95517145Y-79007223D01*
X95517017Y-79010182D01*
X95516871Y-79013121D01*
X95516705Y-79016042D01*
X95516521Y-79018943D01*
X95516318Y-79021826D01*
X95516096Y-79024690D01*
X95515856Y-79027536D01*
X95515597Y-79030362D01*
X95515320Y-79033171D01*
X95515025Y-79035961D01*
X95514711Y-79038735D01*
X95514380Y-79041489D01*
X95514030Y-79044226D01*
X95513663Y-79046944D01*
X95513278Y-79049647D01*
X95512875Y-79052330D01*
X95512455Y-79054998D01*
X95512018Y-79057646D01*
X95511562Y-79060280D01*
X95511090Y-79062894D01*
X95510601Y-79065494D01*
X95510094Y-79068075D01*
X95509570Y-79070641D01*
X95509030Y-79073188D01*
X95508472Y-79075722D01*
X95507898Y-79078237D01*
X95507307Y-79080737D01*
X95506700Y-79083220D01*
X95506075Y-79085689D01*
X95505434Y-79088139D01*
X95504777Y-79090577D01*
X95504104Y-79092996D01*
X95503413Y-79095402D01*
X95502707Y-79097790D01*
X95501984Y-79100166D01*
X95501246Y-79102523D01*
X95499720Y-79107195D01*
X95498130Y-79111808D01*
X95496477Y-79116361D01*
X95494760Y-79120857D01*
X95492980Y-79125295D01*
X95491137Y-79129676D01*
X95489231Y-79134001D01*
X95487263Y-79138270D01*
X95485232Y-79142485D01*
X95483140Y-79146646D01*
X95480985Y-79150754D01*
X95478768Y-79154808D01*
X95476490Y-79158810D01*
X95474149Y-79162761D01*
X95471746Y-79166660D01*
X95469282Y-79170508D01*
X95466755Y-79174306D01*
X95464165Y-79178055D01*
X95461514Y-79181753D01*
X95458800Y-79185403D01*
X95456023Y-79189004D01*
X95453183Y-79192556D01*
X95450280Y-79196060D01*
X95447313Y-79199517D01*
X95444282Y-79202925D01*
X95441188Y-79206287D01*
X95438029Y-79209600D01*
X95434806Y-79212867D01*
X95431517Y-79216086D01*
X95428163Y-79219258D01*
X95424743Y-79222383D01*
X95421258Y-79225461D01*
X95417705Y-79228492D01*
X95414086Y-79231475D01*
X95410400Y-79234411D01*
X95406646Y-79237300D01*
X95402824Y-79240140D01*
X95398935Y-79242932D01*
X95394976Y-79245676D01*
X95390949Y-79248371D01*
X95386853Y-79251017D01*
X95382687Y-79253613D01*
X95378452Y-79256159D01*
X95374148Y-79258655D01*
X95369773Y-79261099D01*
X95365329Y-79263492D01*
X95360816Y-79265833D01*
X95356233Y-79268120D01*
X95351580Y-79270354D01*
X95346859Y-79272532D01*
X95342069Y-79274656D01*
X95337212Y-79276723D01*
X95332288Y-79278733D01*
X95327297Y-79280685D01*
X95322242Y-79282578D01*
X95317123Y-79284410D01*
X95311942Y-79286181D01*
X95306702Y-79287890D01*
X95301404Y-79289534D01*
X95296052Y-79291113D01*
X95290648Y-79292626D01*
X95285197Y-79294071D01*
X95279704Y-79295447D01*
X95274172Y-79296751D01*
X95268610Y-79297983D01*
X95263025Y-79299141D01*
X95257426Y-79300222D01*
X95251823Y-79301226D01*
X95246230Y-79302150D01*
X95240664Y-79302992D01*
X95235144Y-79303751D01*
X95229696Y-79304423D01*
X95224354Y-79305008D01*
X95219163Y-79305501D01*
X95214186Y-79305903D01*
X95209515Y-79306209D01*
X95205304Y-79306419D01*
X95201852Y-79306534D01*
X95200000Y-79306562D01*
X95517500Y-79624062D02*
X95517490Y-79627138D01*
X95517460Y-79630195D01*
X95517411Y-79633231D01*
X95517341Y-79636248D01*
X95517253Y-79639245D01*
X95517145Y-79642223D01*
X95517017Y-79645182D01*
X95516871Y-79648121D01*
X95516705Y-79651042D01*
X95516521Y-79653943D01*
X95516318Y-79656826D01*
X95516096Y-79659690D01*
X95515856Y-79662536D01*
X95515597Y-79665362D01*
X95515320Y-79668171D01*
X95515025Y-79670961D01*
X95514711Y-79673735D01*
X95514380Y-79676489D01*
X95514030Y-79679226D01*
X95513663Y-79681944D01*
X95513278Y-79684647D01*
X95512875Y-79687330D01*
X95512455Y-79689998D01*
X95512018Y-79692646D01*
X95511562Y-79695280D01*
X95511090Y-79697894D01*
X95510601Y-79700494D01*
X95510094Y-79703075D01*
X95509570Y-79705641D01*
X95509030Y-79708188D01*
X95508472Y-79710722D01*
X95507898Y-79713237D01*
X95507307Y-79715737D01*
X95506700Y-79718220D01*
X95506075Y-79720689D01*
X95505434Y-79723139D01*
X95504777Y-79725577D01*
X95504104Y-79727996D01*
X95503413Y-79730402D01*
X95502707Y-79732790D01*
X95501984Y-79735166D01*
X95501246Y-79737523D01*
X95499720Y-79742195D01*
X95498130Y-79746808D01*
X95496477Y-79751361D01*
X95494760Y-79755857D01*
X95492980Y-79760295D01*
X95491137Y-79764676D01*
X95489231Y-79769001D01*
X95487263Y-79773270D01*
X95485232Y-79777485D01*
X95483140Y-79781646D01*
X95480985Y-79785754D01*
X95478768Y-79789808D01*
X95476490Y-79793810D01*
X95474149Y-79797761D01*
X95471746Y-79801660D01*
X95469282Y-79805508D01*
X95466755Y-79809306D01*
X95464165Y-79813055D01*
X95461514Y-79816753D01*
X95458800Y-79820403D01*
X95456023Y-79824004D01*
X95453183Y-79827556D01*
X95450280Y-79831060D01*
X95447313Y-79834517D01*
X95444282Y-79837925D01*
X95441188Y-79841287D01*
X95438029Y-79844600D01*
X95434806Y-79847867D01*
X95431517Y-79851086D01*
X95428163Y-79854258D01*
X95424743Y-79857383D01*
X95421258Y-79860461D01*
X95417705Y-79863492D01*
X95414086Y-79866475D01*
X95410400Y-79869411D01*
X95406646Y-79872300D01*
X95402824Y-79875140D01*
X95398935Y-79877932D01*
X95394976Y-79880676D01*
X95390949Y-79883371D01*
X95386853Y-79886017D01*
X95382687Y-79888613D01*
X95378452Y-79891159D01*
X95374148Y-79893655D01*
X95369773Y-79896099D01*
X95365329Y-79898492D01*
X95360816Y-79900833D01*
X95356233Y-79903120D01*
X95351580Y-79905354D01*
X95346859Y-79907532D01*
X95342069Y-79909656D01*
X95337212Y-79911723D01*
X95332288Y-79913733D01*
X95327297Y-79915685D01*
X95322242Y-79917578D01*
X95317123Y-79919410D01*
X95311942Y-79921181D01*
X95306702Y-79922890D01*
X95301404Y-79924534D01*
X95296052Y-79926113D01*
X95290648Y-79927626D01*
X95285197Y-79929071D01*
X95279704Y-79930447D01*
X95274172Y-79931751D01*
X95268610Y-79932983D01*
X95263025Y-79934141D01*
X95257426Y-79935222D01*
X95251823Y-79936226D01*
X95246230Y-79937150D01*
X95240664Y-79937992D01*
X95235144Y-79938751D01*
X95229696Y-79939423D01*
X95224354Y-79940008D01*
X95219163Y-79940501D01*
X95214186Y-79940903D01*
X95209515Y-79941209D01*
X95205304Y-79941419D01*
X95201852Y-79941534D01*
X95200000Y-79941562D01*
X95517500Y-80259062D02*
X95517490Y-80262138D01*
X95517460Y-80265195D01*
X95517411Y-80268231D01*
X95517341Y-80271248D01*
X95517253Y-80274245D01*
X95517145Y-80277223D01*
X95517017Y-80280182D01*
X95516871Y-80283121D01*
X95516705Y-80286042D01*
X95516521Y-80288943D01*
X95516318Y-80291826D01*
X95516096Y-80294690D01*
X95515856Y-80297536D01*
X95515597Y-80300362D01*
X95515320Y-80303171D01*
X95515025Y-80305961D01*
X95514711Y-80308735D01*
X95514380Y-80311489D01*
X95514030Y-80314226D01*
X95513663Y-80316944D01*
X95513278Y-80319647D01*
X95512875Y-80322330D01*
X95512455Y-80324998D01*
X95512018Y-80327646D01*
X95511562Y-80330280D01*
X95511090Y-80332894D01*
X95510601Y-80335494D01*
X95510094Y-80338075D01*
X95509570Y-80340641D01*
X95509030Y-80343188D01*
X95508472Y-80345722D01*
X95507898Y-80348237D01*
X95507307Y-80350737D01*
X95506700Y-80353220D01*
X95506075Y-80355689D01*
X95505434Y-80358139D01*
X95504777Y-80360577D01*
X95504104Y-80362996D01*
X95503413Y-80365402D01*
X95502707Y-80367790D01*
X95501984Y-80370166D01*
X95501246Y-80372523D01*
X95499720Y-80377195D01*
X95498130Y-80381808D01*
X95496477Y-80386361D01*
X95494760Y-80390857D01*
X95492980Y-80395295D01*
X95491137Y-80399676D01*
X95489231Y-80404001D01*
X95487263Y-80408270D01*
X95485232Y-80412485D01*
X95483140Y-80416646D01*
X95480985Y-80420754D01*
X95478768Y-80424808D01*
X95476490Y-80428810D01*
X95474149Y-80432761D01*
X95471746Y-80436660D01*
X95469282Y-80440508D01*
X95466755Y-80444306D01*
X95464165Y-80448055D01*
X95461514Y-80451753D01*
X95458800Y-80455403D01*
X95456023Y-80459004D01*
X95453183Y-80462556D01*
X95450280Y-80466060D01*
X95447313Y-80469517D01*
X95444282Y-80472925D01*
X95441188Y-80476287D01*
X95438029Y-80479600D01*
X95434806Y-80482867D01*
X95431517Y-80486086D01*
X95428163Y-80489258D01*
X95424743Y-80492383D01*
X95421258Y-80495461D01*
X95417705Y-80498492D01*
X95414086Y-80501475D01*
X95410400Y-80504411D01*
X95406646Y-80507300D01*
X95402824Y-80510140D01*
X95398935Y-80512932D01*
X95394976Y-80515676D01*
X95390949Y-80518371D01*
X95386853Y-80521017D01*
X95382687Y-80523613D01*
X95378452Y-80526159D01*
X95374148Y-80528655D01*
X95369773Y-80531099D01*
X95365329Y-80533492D01*
X95360816Y-80535833D01*
X95356233Y-80538120D01*
X95351580Y-80540354D01*
X95346859Y-80542532D01*
X95342069Y-80544656D01*
X95337212Y-80546723D01*
X95332288Y-80548733D01*
X95327297Y-80550685D01*
X95322242Y-80552578D01*
X95317123Y-80554410D01*
X95311942Y-80556181D01*
X95306702Y-80557890D01*
X95301404Y-80559534D01*
X95296052Y-80561113D01*
X95290648Y-80562626D01*
X95285197Y-80564071D01*
X95279704Y-80565447D01*
X95274172Y-80566751D01*
X95268610Y-80567983D01*
X95263025Y-80569141D01*
X95257426Y-80570222D01*
X95251823Y-80571226D01*
X95246230Y-80572150D01*
X95240664Y-80572992D01*
X95235144Y-80573751D01*
X95229696Y-80574423D01*
X95224354Y-80575008D01*
X95219163Y-80575501D01*
X95214186Y-80575903D01*
X95209515Y-80576209D01*
X95205304Y-80576419D01*
X95201852Y-80576534D01*
X95200000Y-80576562D01*
D14*
%TO.C,C12*%
X110946267Y-76990000D02*
X110653733Y-76990000D01*
X110946267Y-78010000D02*
X110653733Y-78010000D01*
%TO.C,C5*%
X72590000Y-83853733D02*
X72590000Y-84146267D01*
X73610000Y-83853733D02*
X73610000Y-84146267D01*
%TD*%
M02*
