%TF.GenerationSoftware,KiCad,Pcbnew,9.0.6*%
%TF.CreationDate,2026-03-12T21:59:21+09:00*%
%TF.ProjectId,VHFAmTxFinal,56484641-6d54-4784-9669-6e616c2e6b69,rev?*%
%TF.SameCoordinates,Original*%
%TF.FileFunction,Soldermask,Top*%
%TF.FilePolarity,Negative*%
%FSLAX46Y46*%
G04 Gerber Fmt 4.6, Leading zero omitted, Abs format (unit mm)*
G04 Created by KiCad (PCBNEW 9.0.6) date 2026-03-12 21:59:21*
%MOMM*%
%LPD*%
G01*
G04 APERTURE LIST*
G04 Aperture macros list*
%AMRoundRect*
0 Rectangle with rounded corners*
0 $1 Rounding radius*
0 $2 $3 $4 $5 $6 $7 $8 $9 X,Y pos of 4 corners*
0 Add a 4 corners polygon primitive as box body*
4,1,4,$2,$3,$4,$5,$6,$7,$8,$9,$2,$3,0*
0 Add four circle primitives for the rounded corners*
1,1,$1+$1,$2,$3*
1,1,$1+$1,$4,$5*
1,1,$1+$1,$6,$7*
1,1,$1+$1,$8,$9*
0 Add four rect primitives between the rounded corners*
20,1,$1+$1,$2,$3,$4,$5,0*
20,1,$1+$1,$4,$5,$6,$7,0*
20,1,$1+$1,$6,$7,$8,$9,0*
20,1,$1+$1,$8,$9,$2,$3,0*%
%AMFreePoly0*
4,1,9,5.362500,-0.866500,1.237500,-0.866500,1.237500,-0.450000,-1.237500,-0.450000,-1.237500,0.450000,1.237500,0.450000,1.237500,0.866500,5.362500,0.866500,5.362500,-0.866500,5.362500,-0.866500,$1*%
G04 Aperture macros list end*
%ADD10RoundRect,0.237500X-0.237500X0.300000X-0.237500X-0.300000X0.237500X-0.300000X0.237500X0.300000X0*%
%ADD11R,4.500000X1.500000*%
%ADD12R,4.450000X1.500000*%
%ADD13RoundRect,0.237500X-0.237500X0.250000X-0.237500X-0.250000X0.237500X-0.250000X0.237500X0.250000X0*%
%ADD14RoundRect,0.237500X-0.300000X-0.237500X0.300000X-0.237500X0.300000X0.237500X-0.300000X0.237500X0*%
%ADD15R,2.000000X4.000000*%
%ADD16RoundRect,0.246063X-1.003937X1.003937X-1.003937X-1.003937X1.003937X-1.003937X1.003937X1.003937X0*%
%ADD17C,2.500000*%
%ADD18RoundRect,0.237500X0.300000X0.237500X-0.300000X0.237500X-0.300000X-0.237500X0.300000X-0.237500X0*%
%ADD19R,4.000000X2.000000*%
%ADD20C,2.340000*%
%ADD21RoundRect,0.250000X0.750000X-0.600000X0.750000X0.600000X-0.750000X0.600000X-0.750000X-0.600000X0*%
%ADD22O,2.000000X1.700000*%
%ADD23RoundRect,0.246063X-1.003937X-1.003937X1.003937X-1.003937X1.003937X1.003937X-1.003937X1.003937X0*%
%ADD24RoundRect,0.237500X-0.250000X-0.237500X0.250000X-0.237500X0.250000X0.237500X-0.250000X0.237500X0*%
%ADD25RoundRect,0.225000X0.225000X-0.925000X0.225000X0.925000X-0.225000X0.925000X-0.225000X-0.925000X0*%
%ADD26FreePoly0,90.000000*%
%ADD27C,0.600000*%
%ADD28C,0.800000*%
%ADD29C,6.400000*%
G04 APERTURE END LIST*
D10*
%TO.C,C2*%
X87300000Y-59362500D03*
X87300000Y-57637500D03*
%TD*%
%TO.C,C1*%
X85200000Y-59362500D03*
X85200000Y-57637500D03*
%TD*%
%TO.C,C4*%
X66000000Y-93137500D03*
X66000000Y-94862500D03*
%TD*%
D11*
%TO.C,J1*%
X52895000Y-78625000D03*
X52935000Y-81300000D03*
D12*
X52945000Y-75925000D03*
%TD*%
D13*
%TO.C,R2*%
X66000000Y-76100000D03*
X66000000Y-77925000D03*
%TD*%
D14*
%TO.C,C9*%
X89237500Y-70600000D03*
X90962500Y-70600000D03*
%TD*%
D10*
%TO.C,C8*%
X88600000Y-83137500D03*
X88600000Y-84862500D03*
%TD*%
D15*
%TO.C,L3*%
X78200000Y-74800000D03*
X85200000Y-74800000D03*
%TD*%
D16*
%TO.C,C6*%
X77500000Y-82400000D03*
D17*
X77500000Y-86500000D03*
%TD*%
D18*
%TO.C,C11*%
X93962500Y-87300000D03*
X92237500Y-87300000D03*
%TD*%
D11*
%TO.C,J3*%
X116905000Y-78300000D03*
X116865000Y-75625000D03*
D12*
X116855000Y-81000000D03*
%TD*%
D19*
%TO.C,L2*%
X77600000Y-59000000D03*
X77600000Y-66000000D03*
%TD*%
D20*
%TO.C,RV1*%
X61000000Y-68700000D03*
X66000000Y-66200000D03*
X61000000Y-63700000D03*
%TD*%
D21*
%TO.C,J2*%
X94555000Y-64250000D03*
D22*
X94555000Y-61750000D03*
%TD*%
D14*
%TO.C,C10*%
X96837500Y-70600000D03*
X98562500Y-70600000D03*
%TD*%
D23*
%TO.C,C3*%
X59100000Y-78600000D03*
D17*
X63200000Y-78600000D03*
%TD*%
D24*
%TO.C,R1*%
X66287500Y-57600000D03*
X68112500Y-57600000D03*
%TD*%
D19*
%TO.C,L1*%
X66000000Y-83600000D03*
X66000000Y-90600000D03*
%TD*%
D16*
%TO.C,C7*%
X84400000Y-82400000D03*
D17*
X84400000Y-86500000D03*
%TD*%
D15*
%TO.C,L5*%
X103100000Y-85800000D03*
X110100000Y-85800000D03*
%TD*%
D25*
%TO.C,Q1*%
X70000000Y-78750000D03*
D26*
X71500000Y-78662500D03*
D27*
X71500000Y-77300000D03*
X69500000Y-76300000D03*
X70500000Y-76300000D03*
X71500000Y-76300000D03*
X72500000Y-76300000D03*
X73500000Y-76300000D03*
X69500000Y-75300000D03*
X70500000Y-75300000D03*
X71500000Y-75300000D03*
X72500000Y-75300000D03*
X73500000Y-75300000D03*
X69500000Y-74300000D03*
X70500000Y-74300000D03*
X71500000Y-74300000D03*
X72500000Y-74300000D03*
X73500000Y-74300000D03*
X70500000Y-73300000D03*
X71500000Y-73300000D03*
X72500000Y-73300000D03*
D25*
X73000000Y-78750000D03*
%TD*%
D28*
%TO.C,H3*%
X113600000Y-96000000D03*
X114302944Y-94302944D03*
X114302944Y-97697056D03*
X116000000Y-93600000D03*
D29*
X116000000Y-96000000D03*
D28*
X116000000Y-98400000D03*
X117697056Y-94302944D03*
X117697056Y-97697056D03*
X118400000Y-96000000D03*
%TD*%
D19*
%TO.C,L4*%
X95400000Y-75800000D03*
X95400000Y-82800000D03*
%TD*%
D28*
%TO.C,H1*%
X51600000Y-54000000D03*
X52302944Y-52302944D03*
X52302944Y-55697056D03*
X54000000Y-51600000D03*
D29*
X54000000Y-54000000D03*
D28*
X54000000Y-56400000D03*
X55697056Y-52302944D03*
X55697056Y-55697056D03*
X56400000Y-54000000D03*
%TD*%
D18*
%TO.C,C12*%
X111662500Y-77500000D03*
X109937500Y-77500000D03*
%TD*%
D28*
%TO.C,H2*%
X113600000Y-54000000D03*
X114302944Y-52302944D03*
X114302944Y-55697056D03*
X116000000Y-51600000D03*
D29*
X116000000Y-54000000D03*
D28*
X116000000Y-56400000D03*
X117697056Y-52302944D03*
X117697056Y-55697056D03*
X118400000Y-54000000D03*
%TD*%
%TO.C,H4*%
X51600000Y-96000000D03*
X52302944Y-94302944D03*
X52302944Y-97697056D03*
X54000000Y-93600000D03*
D29*
X54000000Y-96000000D03*
D28*
X54000000Y-98400000D03*
X55697056Y-94302944D03*
X55697056Y-97697056D03*
X56400000Y-96000000D03*
%TD*%
D10*
%TO.C,C5*%
X73100000Y-83137500D03*
X73100000Y-84862500D03*
%TD*%
M02*
