M48
; DRILL file {KiCad 9.0.6} date 2026-03-12T21:59:19+0900
; FORMAT={-:-/ absolute / metric / decimal}
; #@! TF.CreationDate,2026-03-12T21:59:19+09:00
; #@! TF.GenerationSoftware,Kicad,Pcbnew,9.0.6
; #@! TF.FileFunction,Plated,1,2,PTH
FMAT,2
METRIC
; #@! TA.AperFunction,Plated,PTH,ViaDrill
T1C0.300
; #@! TA.AperFunction,Plated,PTH,ComponentDrill
T2C0.300
; #@! TA.AperFunction,Plated,PTH,ComponentDrill
T3C0.460
; #@! TA.AperFunction,Plated,PTH,ComponentDrill
T4C0.500
; #@! TA.AperFunction,Plated,PTH,ComponentDrill
T5C1.000
; #@! TA.AperFunction,Plated,PTH,ComponentDrill
T6C1.200
; #@! TA.AperFunction,Plated,PTH,ComponentDrill
T7C1.300
; #@! TA.AperFunction,Plated,PTH,ComponentDrill
T8C3.200
%
G90
G05
T1
X51.25Y-56.75
X51.25Y-60.5
X51.25Y-64.5
X51.25Y-67.75
X51.25Y-71.0
X51.25Y-74.25
X51.25Y-83.5
X51.25Y-86.25
X51.25Y-89.0
X51.25Y-91.5
X51.25Y-93.25
X55.6Y-87.4
X56.5Y-51.0
X57.0Y-99.0
X57.5Y-80.8
X57.8Y-60.3
X57.8Y-66.9
X59.1Y-84.9
X59.1Y-89.9
X59.7Y-70.2
X60.0Y-95.0
X60.5Y-99.0
X60.8Y-55.5
X61.0Y-51.0
X61.0Y-80.8
X61.1Y-76.8
X62.2Y-65.6
X62.3Y-60.0
X63.2Y-91.9
X64.0Y-99.0
X64.4Y-67.1
X64.6Y-93.3
X64.7Y-64.8
X64.7Y-76.6
X64.9Y-59.9
X65.25Y-51.0
X67.2Y-58.5
X67.25Y-99.0
X67.3Y-56.6
X67.3Y-76.6
X67.4Y-93.3
X68.3Y-62.6
X68.6Y-74.3
X68.6Y-75.3
X68.6Y-76.3
X69.0Y-91.9
X69.5Y-70.4
X69.5Y-71.4
X69.5Y-72.4
X70.0Y-51.0
X70.5Y-70.4
X70.5Y-71.4
X70.5Y-72.4
X71.25Y-99.0
X71.3Y-66.5
X71.3Y-88.5
X71.5Y-58.9
X71.5Y-70.4
X71.5Y-71.4
X71.5Y-72.4
X71.6Y-82.2
X72.3Y-84.4
X72.3Y-94.9
X72.5Y-70.4
X72.5Y-71.4
X72.5Y-72.4
X73.5Y-67.1
X73.5Y-70.4
X73.5Y-71.4
X73.5Y-72.4
X74.5Y-51.0
X75.5Y-99.0
X77.6Y-56.3
X78.1Y-67.8
X78.1Y-69.5
X78.1Y-80.3
X79.25Y-51.0
X80.0Y-99.0
X80.5Y-67.2
X80.7Y-92.8
X81.0Y-84.4
X81.5Y-80.0
X83.8Y-58.9
X83.9Y-67.2
X84.0Y-51.0
X85.0Y-99.0
X85.2Y-80.3
X85.7Y-69.6
X86.2Y-56.3
X86.3Y-58.9
X87.8Y-65.0
X89.25Y-51.0
X89.3Y-92.8
X89.4Y-60.1
X89.4Y-84.5
X90.0Y-99.0
X90.1Y-69.5
X90.1Y-72.1
X90.1Y-79.5
X91.9Y-65.3
X92.0Y-61.5
X92.6Y-84.0
X92.7Y-88.2
X93.75Y-51.0
X94.75Y-99.0
X96.2Y-56.0
X97.7Y-92.8
X97.75Y-51.0
X98.2Y-69.7
X98.3Y-74.5
X99.8Y-60.4
X99.8Y-65.6
X100.25Y-99.0
X100.6Y-83.0
X101.8Y-83.0
X101.9Y-88.6
X102.5Y-80.5
X102.5Y-91.1
X102.75Y-51.0
X103.8Y-76.7
X104.25Y-99.0
X105.0Y-58.8
X105.0Y-69.7
X107.5Y-56.1
X108.25Y-51.0
X108.75Y-99.0
X110.3Y-80.6
X110.4Y-76.9
X110.9Y-91.1
X111.4Y-88.7
X113.0Y-99.0
X113.4Y-69.7
X113.4Y-86.0
X113.5Y-51.0
X113.5Y-58.75
X113.5Y-82.5
X119.0Y-56.5
X119.0Y-60.25
X119.0Y-64.75
X119.0Y-70.0
X119.0Y-74.0
X119.0Y-82.5
X119.0Y-86.5
X119.0Y-90.25
X119.0Y-93.5
T2
X69.5Y-74.3
X69.5Y-75.3
X69.5Y-76.3
X70.5Y-73.3
X70.5Y-74.3
X70.5Y-75.3
X70.5Y-76.3
X71.5Y-73.3
X71.5Y-74.3
X71.5Y-75.3
X71.5Y-76.3
X71.5Y-77.3
X72.5Y-73.3
X72.5Y-74.3
X72.5Y-75.3
X72.5Y-76.3
X73.5Y-74.3
X73.5Y-75.3
X73.5Y-76.3
T3
X56.075Y-81.375
X56.095Y-75.975
X113.705Y-80.95
X113.725Y-75.55
T4
X51.6Y-54.0
X51.6Y-96.0
X52.303Y-52.303
X52.303Y-55.697
X52.303Y-94.303
X52.303Y-97.697
X54.0Y-51.6
X54.0Y-56.4
X54.0Y-93.6
X54.0Y-98.4
X55.697Y-52.303
X55.697Y-55.697
X55.697Y-94.303
X55.697Y-97.697
X56.4Y-54.0
X56.4Y-96.0
X113.6Y-54.0
X113.6Y-96.0
X114.303Y-52.303
X114.303Y-55.697
X114.303Y-94.303
X114.303Y-97.697
X116.0Y-51.6
X116.0Y-56.4
X116.0Y-93.6
X116.0Y-98.4
X117.697Y-52.303
X117.697Y-55.697
X117.697Y-94.303
X117.697Y-97.697
X118.4Y-54.0
X118.4Y-96.0
T5
X94.555Y-61.75
X94.555Y-64.25
T6
X59.1Y-78.6
X63.2Y-78.6
X77.5Y-82.4
X77.5Y-86.5
X84.4Y-82.4
X84.4Y-86.5
T7
X61.0Y-63.7
X61.0Y-68.7
X66.0Y-66.2
T8
X54.0Y-54.0
X54.0Y-96.0
X116.0Y-54.0
X116.0Y-96.0
M30
