%TF.GenerationSoftware,KiCad,Pcbnew,9.0.6*%
%TF.CreationDate,2026-03-12T21:59:21+09:00*%
%TF.ProjectId,VHFAmTxFinal,56484641-6d54-4784-9669-6e616c2e6b69,rev?*%
%TF.SameCoordinates,Original*%
%TF.FileFunction,Soldermask,Bot*%
%TF.FilePolarity,Negative*%
%FSLAX46Y46*%
G04 Gerber Fmt 4.6, Leading zero omitted, Abs format (unit mm)*
G04 Created by KiCad (PCBNEW 9.0.6) date 2026-03-12 21:59:21*
%MOMM*%
%LPD*%
G01*
G04 APERTURE LIST*
G04 Aperture macros list*
%AMRoundRect*
0 Rectangle with rounded corners*
0 $1 Rounding radius*
0 $2 $3 $4 $5 $6 $7 $8 $9 X,Y pos of 4 corners*
0 Add a 4 corners polygon primitive as box body*
4,1,4,$2,$3,$4,$5,$6,$7,$8,$9,$2,$3,0*
0 Add four circle primitives for the rounded corners*
1,1,$1+$1,$2,$3*
1,1,$1+$1,$4,$5*
1,1,$1+$1,$6,$7*
1,1,$1+$1,$8,$9*
0 Add four rect primitives between the rounded corners*
20,1,$1+$1,$2,$3,$4,$5,0*
20,1,$1+$1,$4,$5,$6,$7,0*
20,1,$1+$1,$6,$7,$8,$9,0*
20,1,$1+$1,$8,$9,$2,$3,0*%
G04 Aperture macros list end*
%ADD10R,4.450000X1.500000*%
%ADD11R,4.500000X1.500000*%
%ADD12RoundRect,0.246063X-1.003937X1.003937X-1.003937X-1.003937X1.003937X-1.003937X1.003937X1.003937X0*%
%ADD13C,2.500000*%
%ADD14C,2.340000*%
%ADD15RoundRect,0.250000X0.750000X-0.600000X0.750000X0.600000X-0.750000X0.600000X-0.750000X-0.600000X0*%
%ADD16O,2.000000X1.700000*%
%ADD17RoundRect,0.246063X-1.003937X-1.003937X1.003937X-1.003937X1.003937X1.003937X-1.003937X1.003937X0*%
%ADD18C,0.600000*%
%ADD19C,0.800000*%
%ADD20C,6.400000*%
G04 APERTURE END LIST*
D10*
%TO.C,J1*%
X52945000Y-75925000D03*
D11*
X52945000Y-81300000D03*
%TD*%
D12*
%TO.C,C6*%
X77500000Y-82400000D03*
D13*
X77500000Y-86500000D03*
%TD*%
D10*
%TO.C,J3*%
X116855000Y-81000000D03*
D11*
X116855000Y-75625000D03*
%TD*%
D14*
%TO.C,RV1*%
X61000000Y-68700000D03*
X66000000Y-66200000D03*
X61000000Y-63700000D03*
%TD*%
D15*
%TO.C,J2*%
X94555000Y-64250000D03*
D16*
X94555000Y-61750000D03*
%TD*%
D17*
%TO.C,C3*%
X59100000Y-78600000D03*
D13*
X63200000Y-78600000D03*
%TD*%
D12*
%TO.C,C7*%
X84400000Y-82400000D03*
D13*
X84400000Y-86500000D03*
%TD*%
D18*
%TO.C,Q1*%
X71500000Y-77300000D03*
X69500000Y-76300000D03*
X70500000Y-76300000D03*
X71500000Y-76300000D03*
X72500000Y-76300000D03*
X73500000Y-76300000D03*
X69500000Y-75300000D03*
X70500000Y-75300000D03*
X71500000Y-75300000D03*
X72500000Y-75300000D03*
X73500000Y-75300000D03*
X69500000Y-74300000D03*
X70500000Y-74300000D03*
X71500000Y-74300000D03*
X72500000Y-74300000D03*
X73500000Y-74300000D03*
X70500000Y-73300000D03*
X71500000Y-73300000D03*
X72500000Y-73300000D03*
%TD*%
D19*
%TO.C,H3*%
X113600000Y-96000000D03*
X114302944Y-94302944D03*
X114302944Y-97697056D03*
X116000000Y-93600000D03*
D20*
X116000000Y-96000000D03*
D19*
X116000000Y-98400000D03*
X117697056Y-94302944D03*
X117697056Y-97697056D03*
X118400000Y-96000000D03*
%TD*%
%TO.C,H1*%
X51600000Y-54000000D03*
X52302944Y-52302944D03*
X52302944Y-55697056D03*
X54000000Y-51600000D03*
D20*
X54000000Y-54000000D03*
D19*
X54000000Y-56400000D03*
X55697056Y-52302944D03*
X55697056Y-55697056D03*
X56400000Y-54000000D03*
%TD*%
%TO.C,H2*%
X113600000Y-54000000D03*
X114302944Y-52302944D03*
X114302944Y-55697056D03*
X116000000Y-51600000D03*
D20*
X116000000Y-54000000D03*
D19*
X116000000Y-56400000D03*
X117697056Y-52302944D03*
X117697056Y-55697056D03*
X118400000Y-54000000D03*
%TD*%
%TO.C,H4*%
X51600000Y-96000000D03*
X52302944Y-94302944D03*
X52302944Y-97697056D03*
X54000000Y-93600000D03*
D20*
X54000000Y-96000000D03*
D19*
X54000000Y-98400000D03*
X55697056Y-94302944D03*
X55697056Y-97697056D03*
X56400000Y-96000000D03*
%TD*%
M02*
