%TF.GenerationSoftware,KiCad,Pcbnew,9.0.6*%
%TF.CreationDate,2026-03-12T21:59:21+09:00*%
%TF.ProjectId,VHFAmTxFinal,56484641-6d54-4784-9669-6e616c2e6b69,rev?*%
%TF.SameCoordinates,Original*%
%TF.FileFunction,Copper,L2,Bot*%
%TF.FilePolarity,Positive*%
%FSLAX46Y46*%
G04 Gerber Fmt 4.6, Leading zero omitted, Abs format (unit mm)*
G04 Created by KiCad (PCBNEW 9.0.6) date 2026-03-12 21:59:21*
%MOMM*%
%LPD*%
G01*
G04 APERTURE LIST*
G04 Aperture macros list*
%AMRoundRect*
0 Rectangle with rounded corners*
0 $1 Rounding radius*
0 $2 $3 $4 $5 $6 $7 $8 $9 X,Y pos of 4 corners*
0 Add a 4 corners polygon primitive as box body*
4,1,4,$2,$3,$4,$5,$6,$7,$8,$9,$2,$3,0*
0 Add four circle primitives for the rounded corners*
1,1,$1+$1,$2,$3*
1,1,$1+$1,$4,$5*
1,1,$1+$1,$6,$7*
1,1,$1+$1,$8,$9*
0 Add four rect primitives between the rounded corners*
20,1,$1+$1,$2,$3,$4,$5,0*
20,1,$1+$1,$4,$5,$6,$7,0*
20,1,$1+$1,$6,$7,$8,$9,0*
20,1,$1+$1,$8,$9,$2,$3,0*%
G04 Aperture macros list end*
%TA.AperFunction,SMDPad,CuDef*%
%ADD10R,4.450000X1.500000*%
%TD*%
%TA.AperFunction,SMDPad,CuDef*%
%ADD11R,4.500000X1.500000*%
%TD*%
%TA.AperFunction,SMDPad,CuDef*%
%ADD12R,0.950000X0.460000*%
%TD*%
%TA.AperFunction,ComponentPad*%
%ADD13C,0.970000*%
%TD*%
%TA.AperFunction,ComponentPad*%
%ADD14RoundRect,0.246063X-1.003937X1.003937X-1.003937X-1.003937X1.003937X-1.003937X1.003937X1.003937X0*%
%TD*%
%TA.AperFunction,ComponentPad*%
%ADD15C,2.500000*%
%TD*%
%TA.AperFunction,ComponentPad*%
%ADD16C,2.340000*%
%TD*%
%TA.AperFunction,ComponentPad*%
%ADD17RoundRect,0.250000X0.750000X-0.600000X0.750000X0.600000X-0.750000X0.600000X-0.750000X-0.600000X0*%
%TD*%
%TA.AperFunction,ComponentPad*%
%ADD18O,2.000000X1.700000*%
%TD*%
%TA.AperFunction,ComponentPad*%
%ADD19RoundRect,0.246063X-1.003937X-1.003937X1.003937X-1.003937X1.003937X1.003937X-1.003937X1.003937X0*%
%TD*%
%TA.AperFunction,ComponentPad*%
%ADD20C,0.600000*%
%TD*%
%TA.AperFunction,ComponentPad*%
%ADD21C,0.800000*%
%TD*%
%TA.AperFunction,ComponentPad*%
%ADD22C,6.400000*%
%TD*%
%TA.AperFunction,ViaPad*%
%ADD23C,0.600000*%
%TD*%
G04 APERTURE END LIST*
D10*
%TO.P,J1,2,Ext*%
%TO.N,GND*%
X52945000Y-75925000D03*
D11*
X52945000Y-81300000D03*
D12*
X55645000Y-75975000D03*
X55645000Y-81375000D03*
D13*
X56075000Y-81375000D03*
X56095000Y-75975000D03*
%TD*%
D14*
%TO.P,C6,1*%
%TO.N,Net-(Q1-D)*%
X77500000Y-82400000D03*
D15*
%TO.P,C6,2*%
%TO.N,GND*%
X77500000Y-86500000D03*
%TD*%
D10*
%TO.P,J3,2,Ext*%
%TO.N,GND*%
X116855000Y-81000000D03*
D11*
X116855000Y-75625000D03*
D12*
X114155000Y-80950000D03*
X114155000Y-75550000D03*
D13*
X113725000Y-75550000D03*
X113705000Y-80950000D03*
%TD*%
D16*
%TO.P,RV1,1,1*%
%TO.N,Net-(R1-Pad1)*%
X61000000Y-68700000D03*
%TO.P,RV1,2,2*%
%TO.N,Net-(R2-Pad1)*%
X66000000Y-66200000D03*
%TO.P,RV1,3,3*%
%TO.N,GND*%
X61000000Y-63700000D03*
%TD*%
D17*
%TO.P,J2,1,Pin_1*%
%TO.N,+5V*%
X94555000Y-64250000D03*
D18*
%TO.P,J2,2,Pin_2*%
%TO.N,GND*%
X94555000Y-61750000D03*
%TD*%
D19*
%TO.P,C3,1*%
%TO.N,Net-(J1-In)*%
X59100000Y-78600000D03*
D15*
%TO.P,C3,2*%
%TO.N,Net-(Q1-G)*%
X63200000Y-78600000D03*
%TD*%
D14*
%TO.P,C7,1*%
%TO.N,Net-(C7-Pad1)*%
X84400000Y-82400000D03*
D15*
%TO.P,C7,2*%
%TO.N,GND*%
X84400000Y-86500000D03*
%TD*%
D20*
%TO.P,Q1,2,S*%
%TO.N,GND*%
X71500000Y-77300000D03*
X69500000Y-76300000D03*
X70500000Y-76300000D03*
X71500000Y-76300000D03*
X72500000Y-76300000D03*
X73500000Y-76300000D03*
X69500000Y-75300000D03*
X70500000Y-75300000D03*
X71500000Y-75300000D03*
X72500000Y-75300000D03*
X73500000Y-75300000D03*
X69500000Y-74300000D03*
X70500000Y-74300000D03*
X71500000Y-74300000D03*
X72500000Y-74300000D03*
X73500000Y-74300000D03*
X70500000Y-73300000D03*
X71500000Y-73300000D03*
X72500000Y-73300000D03*
%TD*%
D21*
%TO.P,H3,1,1*%
%TO.N,GND*%
X113600000Y-96000000D03*
X114302944Y-94302944D03*
X114302944Y-97697056D03*
X116000000Y-93600000D03*
D22*
X116000000Y-96000000D03*
D21*
X116000000Y-98400000D03*
X117697056Y-94302944D03*
X117697056Y-97697056D03*
X118400000Y-96000000D03*
%TD*%
%TO.P,H1,1,1*%
%TO.N,GND*%
X51600000Y-54000000D03*
X52302944Y-52302944D03*
X52302944Y-55697056D03*
X54000000Y-51600000D03*
D22*
X54000000Y-54000000D03*
D21*
X54000000Y-56400000D03*
X55697056Y-52302944D03*
X55697056Y-55697056D03*
X56400000Y-54000000D03*
%TD*%
%TO.P,H2,1,1*%
%TO.N,GND*%
X113600000Y-54000000D03*
X114302944Y-52302944D03*
X114302944Y-55697056D03*
X116000000Y-51600000D03*
D22*
X116000000Y-54000000D03*
D21*
X116000000Y-56400000D03*
X117697056Y-52302944D03*
X117697056Y-55697056D03*
X118400000Y-54000000D03*
%TD*%
%TO.P,H4,1,1*%
%TO.N,GND*%
X51600000Y-96000000D03*
X52302944Y-94302944D03*
X52302944Y-97697056D03*
X54000000Y-93600000D03*
D22*
X54000000Y-96000000D03*
D21*
X54000000Y-98400000D03*
X55697056Y-94302944D03*
X55697056Y-97697056D03*
X56400000Y-96000000D03*
%TD*%
D23*
%TO.N,GND*%
X57800000Y-66900000D03*
X77600000Y-56300000D03*
X90100000Y-79500000D03*
X64700000Y-76600000D03*
X68300000Y-62600000D03*
X71300000Y-66500000D03*
X73500000Y-67100000D03*
X67300000Y-76600000D03*
X59700000Y-70200000D03*
X61100000Y-76800000D03*
X64400000Y-67100000D03*
X64700000Y-64800000D03*
X60800000Y-55500000D03*
X62200000Y-65600000D03*
X57800000Y-60300000D03*
X62300000Y-60000000D03*
X64900000Y-59900000D03*
X71500000Y-58900000D03*
X67200000Y-58500000D03*
X67300000Y-56600000D03*
X107500000Y-56100000D03*
X96200000Y-56000000D03*
X99800000Y-60400000D03*
X99800000Y-65600000D03*
X87800000Y-65000000D03*
X91900000Y-65300000D03*
X92000000Y-61500000D03*
X86200000Y-56300000D03*
X86300000Y-58900000D03*
X89400000Y-60100000D03*
X83800000Y-58900000D03*
X83900000Y-67200000D03*
X80500000Y-67200000D03*
X78100000Y-67800000D03*
X85700000Y-69600000D03*
X78100000Y-69500000D03*
X105000000Y-58800000D03*
X113400000Y-69700000D03*
X105000000Y-69700000D03*
X102500000Y-80500000D03*
X103800000Y-76700000D03*
X100600000Y-83000000D03*
X101800000Y-83000000D03*
X110400000Y-76900000D03*
X110300000Y-80600000D03*
X111400000Y-88700000D03*
X97700000Y-92800000D03*
X110900000Y-91100000D03*
X102500000Y-91100000D03*
X101900000Y-88600000D03*
X92700000Y-88200000D03*
X92600000Y-84000000D03*
X89300000Y-92800000D03*
X80700000Y-92800000D03*
X98300000Y-74500000D03*
X98200000Y-69700000D03*
X90100000Y-69500000D03*
X90100000Y-72100000D03*
X89400000Y-84500000D03*
X81000000Y-84400000D03*
X81500000Y-80000000D03*
X85200000Y-80300000D03*
X78100000Y-80300000D03*
X72300000Y-84400000D03*
X71300000Y-88500000D03*
X72300000Y-94900000D03*
X60000000Y-95000000D03*
X59100000Y-89900000D03*
X69000000Y-91900000D03*
X63200000Y-91900000D03*
X67400000Y-93300000D03*
X64600000Y-93300000D03*
X59100000Y-84900000D03*
X55600000Y-87400000D03*
X57500000Y-80800000D03*
X61000000Y-80800000D03*
X73500000Y-70400000D03*
X70500000Y-70400000D03*
X69500000Y-70400000D03*
X71500000Y-70400000D03*
X72500000Y-70400000D03*
X69500000Y-72400000D03*
X69500000Y-71400000D03*
X70500000Y-71400000D03*
X71500000Y-71400000D03*
X72500000Y-71400000D03*
X73500000Y-71400000D03*
X73500000Y-72400000D03*
X72500000Y-72400000D03*
X71500000Y-72400000D03*
X71600000Y-82200000D03*
X70500000Y-72400000D03*
X68600000Y-74300000D03*
X68600000Y-75300000D03*
X68600000Y-76300000D03*
X100250000Y-99000000D03*
X51250000Y-60500000D03*
X51250000Y-67750000D03*
X119000000Y-74000000D03*
X51250000Y-71000000D03*
X51250000Y-64500000D03*
X119000000Y-82500000D03*
X57000000Y-99000000D03*
X85000000Y-99000000D03*
X56500000Y-51000000D03*
X113000000Y-99000000D03*
X90000000Y-99000000D03*
X119000000Y-70000000D03*
X119000000Y-56500000D03*
X89250000Y-51000000D03*
X64000000Y-99000000D03*
X119000000Y-64750000D03*
X51250000Y-93250000D03*
X119000000Y-60250000D03*
X75500000Y-99000000D03*
X84000000Y-51000000D03*
X71250000Y-99000000D03*
X119000000Y-86500000D03*
X113500000Y-58750000D03*
X94750000Y-99000000D03*
X70000000Y-51000000D03*
X67250000Y-99000000D03*
X104250000Y-99000000D03*
X80000000Y-99000000D03*
X113500000Y-82500000D03*
X93750000Y-51000000D03*
X113500000Y-51000000D03*
X51250000Y-86250000D03*
X51250000Y-74250000D03*
X108250000Y-51000000D03*
X51250000Y-91500000D03*
X119000000Y-93500000D03*
X97750000Y-51000000D03*
X60500000Y-99000000D03*
X113400000Y-86000000D03*
X74500000Y-51000000D03*
X51250000Y-56750000D03*
X119000000Y-90250000D03*
X51250000Y-89000000D03*
X108750000Y-99000000D03*
X79250000Y-51000000D03*
X51250000Y-83500000D03*
X102750000Y-51000000D03*
X61000000Y-51000000D03*
X65250000Y-51000000D03*
%TD*%
%TA.AperFunction,Conductor*%
%TO.N,GND*%
G36*
X119442539Y-50520185D02*
G01*
X119488294Y-50572989D01*
X119499500Y-50624500D01*
X119499500Y-74309899D01*
X119479815Y-74376938D01*
X119427011Y-74422693D01*
X119357853Y-74432637D01*
X119332167Y-74426081D01*
X119212379Y-74381403D01*
X119212372Y-74381401D01*
X119152844Y-74375000D01*
X117105000Y-74375000D01*
X117105000Y-76875000D01*
X119152828Y-76875000D01*
X119152844Y-76874999D01*
X119212372Y-76868598D01*
X119212376Y-76868597D01*
X119332166Y-76823918D01*
X119401858Y-76818934D01*
X119463181Y-76852418D01*
X119496666Y-76913742D01*
X119499500Y-76940100D01*
X119499500Y-79694529D01*
X119479815Y-79761568D01*
X119427011Y-79807323D01*
X119357853Y-79817267D01*
X119330934Y-79808310D01*
X119330399Y-79809746D01*
X119187379Y-79756403D01*
X119187372Y-79756401D01*
X119127844Y-79750000D01*
X117105000Y-79750000D01*
X117105000Y-82250000D01*
X119127828Y-82250000D01*
X119127844Y-82249999D01*
X119187372Y-82243598D01*
X119187379Y-82243596D01*
X119330399Y-82190254D01*
X119331527Y-82193280D01*
X119384314Y-82181784D01*
X119449785Y-82206183D01*
X119491670Y-82262106D01*
X119499500Y-82305470D01*
X119499500Y-99375500D01*
X119479815Y-99442539D01*
X119427011Y-99488294D01*
X119375500Y-99499500D01*
X50624500Y-99499500D01*
X50557461Y-99479815D01*
X50511706Y-99427011D01*
X50500500Y-99375500D01*
X50500500Y-91500000D01*
X61100000Y-91500000D01*
X70900000Y-91500000D01*
X70900000Y-90700000D01*
X102200000Y-90700000D01*
X111000000Y-90700000D01*
X111000000Y-80900000D01*
X102200000Y-80900000D01*
X102200000Y-90700000D01*
X70900000Y-90700000D01*
X70900000Y-86385305D01*
X75750000Y-86385305D01*
X75750000Y-86614694D01*
X75750001Y-86614710D01*
X75779942Y-86842137D01*
X75839318Y-87063730D01*
X75927102Y-87275659D01*
X75927106Y-87275669D01*
X76041799Y-87474324D01*
X76041805Y-87474331D01*
X76098381Y-87548064D01*
X76935387Y-86711058D01*
X76940889Y-86731591D01*
X77019881Y-86868408D01*
X77131592Y-86980119D01*
X77268409Y-87059111D01*
X77288940Y-87064612D01*
X76451934Y-87901617D01*
X76451934Y-87901618D01*
X76525666Y-87958194D01*
X76724330Y-88072893D01*
X76724340Y-88072897D01*
X76936269Y-88160681D01*
X77157862Y-88220057D01*
X77385289Y-88249998D01*
X77385306Y-88250000D01*
X77614694Y-88250000D01*
X77614710Y-88249998D01*
X77842137Y-88220057D01*
X78063730Y-88160681D01*
X78275659Y-88072897D01*
X78275668Y-88072893D01*
X78474327Y-87958197D01*
X78474334Y-87958192D01*
X78548064Y-87901617D01*
X77711059Y-87064612D01*
X77731591Y-87059111D01*
X77868408Y-86980119D01*
X77980119Y-86868408D01*
X78059111Y-86731591D01*
X78064612Y-86711059D01*
X78901617Y-87548064D01*
X78958192Y-87474334D01*
X78958197Y-87474327D01*
X79072893Y-87275668D01*
X79072897Y-87275659D01*
X79160681Y-87063730D01*
X79220057Y-86842137D01*
X79249998Y-86614710D01*
X79250000Y-86614694D01*
X79250000Y-86385305D01*
X82650000Y-86385305D01*
X82650000Y-86614694D01*
X82650001Y-86614710D01*
X82679942Y-86842137D01*
X82739318Y-87063730D01*
X82827102Y-87275659D01*
X82827106Y-87275669D01*
X82941799Y-87474324D01*
X82941805Y-87474331D01*
X82998381Y-87548064D01*
X83835387Y-86711058D01*
X83840889Y-86731591D01*
X83919881Y-86868408D01*
X84031592Y-86980119D01*
X84168409Y-87059111D01*
X84188940Y-87064612D01*
X83351934Y-87901617D01*
X83351934Y-87901618D01*
X83425666Y-87958194D01*
X83624330Y-88072893D01*
X83624340Y-88072897D01*
X83836269Y-88160681D01*
X84057862Y-88220057D01*
X84285289Y-88249998D01*
X84285306Y-88250000D01*
X84514694Y-88250000D01*
X84514710Y-88249998D01*
X84742137Y-88220057D01*
X84963730Y-88160681D01*
X85175659Y-88072897D01*
X85175668Y-88072893D01*
X85374327Y-87958197D01*
X85374334Y-87958192D01*
X85448064Y-87901617D01*
X84611059Y-87064612D01*
X84631591Y-87059111D01*
X84768408Y-86980119D01*
X84880119Y-86868408D01*
X84959111Y-86731591D01*
X84964612Y-86711059D01*
X85801617Y-87548064D01*
X85858192Y-87474334D01*
X85858197Y-87474327D01*
X85972893Y-87275668D01*
X85972897Y-87275659D01*
X86060681Y-87063730D01*
X86120057Y-86842137D01*
X86149998Y-86614710D01*
X86150000Y-86614694D01*
X86150000Y-86385305D01*
X86149998Y-86385289D01*
X86120057Y-86157862D01*
X86060681Y-85936269D01*
X85972897Y-85724340D01*
X85972893Y-85724330D01*
X85858194Y-85525666D01*
X85801618Y-85451934D01*
X85801617Y-85451934D01*
X84964612Y-86288939D01*
X84959111Y-86268409D01*
X84880119Y-86131592D01*
X84768408Y-86019881D01*
X84631591Y-85940889D01*
X84611057Y-85935387D01*
X85448064Y-85098381D01*
X85448064Y-85098380D01*
X85374331Y-85041805D01*
X85374324Y-85041799D01*
X85175669Y-84927106D01*
X85175659Y-84927102D01*
X84963730Y-84839318D01*
X84742137Y-84779942D01*
X84514710Y-84750001D01*
X84514694Y-84750000D01*
X84285306Y-84750000D01*
X84285289Y-84750001D01*
X84057862Y-84779942D01*
X83836269Y-84839318D01*
X83624340Y-84927102D01*
X83624330Y-84927106D01*
X83425673Y-85041801D01*
X83425659Y-85041810D01*
X83351934Y-85098380D01*
X84188940Y-85935387D01*
X84168409Y-85940889D01*
X84031592Y-86019881D01*
X83919881Y-86131592D01*
X83840889Y-86268409D01*
X83835387Y-86288940D01*
X82998380Y-85451934D01*
X82941810Y-85525659D01*
X82941801Y-85525673D01*
X82827106Y-85724330D01*
X82827102Y-85724340D01*
X82739318Y-85936269D01*
X82679942Y-86157862D01*
X82650001Y-86385289D01*
X82650000Y-86385305D01*
X79250000Y-86385305D01*
X79249998Y-86385289D01*
X79220057Y-86157862D01*
X79160681Y-85936269D01*
X79072897Y-85724340D01*
X79072893Y-85724330D01*
X78958194Y-85525666D01*
X78901618Y-85451934D01*
X78901617Y-85451934D01*
X78064612Y-86288939D01*
X78059111Y-86268409D01*
X77980119Y-86131592D01*
X77868408Y-86019881D01*
X77731591Y-85940889D01*
X77711057Y-85935387D01*
X78548064Y-85098381D01*
X78548064Y-85098380D01*
X78474331Y-85041805D01*
X78474324Y-85041799D01*
X78275669Y-84927106D01*
X78275659Y-84927102D01*
X78063730Y-84839318D01*
X77842137Y-84779942D01*
X77614710Y-84750001D01*
X77614694Y-84750000D01*
X77385306Y-84750000D01*
X77385289Y-84750001D01*
X77157862Y-84779942D01*
X76936269Y-84839318D01*
X76724340Y-84927102D01*
X76724330Y-84927106D01*
X76525673Y-85041801D01*
X76525659Y-85041810D01*
X76451934Y-85098380D01*
X77288940Y-85935387D01*
X77268409Y-85940889D01*
X77131592Y-86019881D01*
X77019881Y-86131592D01*
X76940889Y-86268409D01*
X76935387Y-86288940D01*
X76098380Y-85451934D01*
X76041810Y-85525659D01*
X76041801Y-85525673D01*
X75927106Y-85724330D01*
X75927102Y-85724340D01*
X75839318Y-85936269D01*
X75779942Y-86157862D01*
X75750001Y-86385289D01*
X75750000Y-86385305D01*
X70900000Y-86385305D01*
X70900000Y-82700000D01*
X61100000Y-82700000D01*
X61100000Y-91500000D01*
X50500500Y-91500000D01*
X50500500Y-82672277D01*
X50520185Y-82605238D01*
X50572989Y-82559483D01*
X50637760Y-82548988D01*
X50647165Y-82549999D01*
X50647172Y-82550000D01*
X52695000Y-82550000D01*
X53195000Y-82550000D01*
X55242828Y-82550000D01*
X55242844Y-82549999D01*
X55302372Y-82543598D01*
X55302379Y-82543596D01*
X55332250Y-82532456D01*
X55437086Y-82493354D01*
X55437093Y-82493350D01*
X55552187Y-82407190D01*
X55552188Y-82407189D01*
X55598795Y-82344930D01*
X55654728Y-82303058D01*
X55724420Y-82298074D01*
X55745515Y-82304679D01*
X55787685Y-82322146D01*
X55787693Y-82322148D01*
X55977981Y-82359999D01*
X55977984Y-82360000D01*
X56172016Y-82360000D01*
X56172018Y-82359999D01*
X56362306Y-82322148D01*
X56362318Y-82322145D01*
X56541565Y-82247899D01*
X56573204Y-82226758D01*
X55985904Y-81639458D01*
X55952419Y-81578135D01*
X55952763Y-81573318D01*
X56029250Y-81605000D01*
X56120750Y-81605000D01*
X56205285Y-81569985D01*
X56269985Y-81505285D01*
X56305000Y-81420750D01*
X56305000Y-81374999D01*
X56428554Y-81374999D01*
X56428554Y-81375000D01*
X56926758Y-81873204D01*
X56947899Y-81841565D01*
X57022145Y-81662318D01*
X57022148Y-81662306D01*
X57059999Y-81472018D01*
X57060000Y-81472016D01*
X57060000Y-81346313D01*
X75749500Y-81346313D01*
X75749500Y-83453672D01*
X75749501Y-83453687D01*
X75759947Y-83555935D01*
X75814839Y-83721593D01*
X75814840Y-83721596D01*
X75906458Y-83870130D01*
X75906461Y-83870134D01*
X76029865Y-83993538D01*
X76029869Y-83993541D01*
X76178403Y-84085159D01*
X76178406Y-84085160D01*
X76341205Y-84139104D01*
X76344067Y-84140053D01*
X76446321Y-84150500D01*
X78553678Y-84150499D01*
X78655933Y-84140053D01*
X78821596Y-84085159D01*
X78970134Y-83993539D01*
X79093539Y-83870134D01*
X79185159Y-83721596D01*
X79240053Y-83555933D01*
X79250500Y-83453679D01*
X79250499Y-81346322D01*
X79250498Y-81346313D01*
X82649500Y-81346313D01*
X82649500Y-83453672D01*
X82649501Y-83453687D01*
X82659947Y-83555935D01*
X82714839Y-83721593D01*
X82714840Y-83721596D01*
X82806458Y-83870130D01*
X82806461Y-83870134D01*
X82929865Y-83993538D01*
X82929869Y-83993541D01*
X83078403Y-84085159D01*
X83078406Y-84085160D01*
X83241205Y-84139104D01*
X83244067Y-84140053D01*
X83346321Y-84150500D01*
X85453678Y-84150499D01*
X85555933Y-84140053D01*
X85721596Y-84085159D01*
X85870134Y-83993539D01*
X85993539Y-83870134D01*
X86085159Y-83721596D01*
X86092315Y-83700000D01*
X90500000Y-83700000D01*
X100300000Y-83700000D01*
X100300000Y-80852981D01*
X112720000Y-80852981D01*
X112720000Y-81047018D01*
X112757851Y-81237306D01*
X112757853Y-81237314D01*
X112832102Y-81416568D01*
X112832106Y-81416575D01*
X112853240Y-81448204D01*
X112853241Y-81448205D01*
X113351446Y-80950000D01*
X112853240Y-80451794D01*
X112832104Y-80483426D01*
X112832103Y-80483428D01*
X112757853Y-80662685D01*
X112757851Y-80662693D01*
X112720000Y-80852981D01*
X100300000Y-80852981D01*
X100300000Y-80098240D01*
X113206794Y-80098240D01*
X113794096Y-80685542D01*
X113827581Y-80746865D01*
X113827236Y-80751681D01*
X113750750Y-80720000D01*
X113659250Y-80720000D01*
X113574715Y-80755015D01*
X113510015Y-80819715D01*
X113475000Y-80904250D01*
X113475000Y-80995750D01*
X113510015Y-81080285D01*
X113574715Y-81144985D01*
X113659250Y-81180000D01*
X113750750Y-81180000D01*
X113824060Y-81149634D01*
X113822596Y-81170110D01*
X113794095Y-81214457D01*
X113206794Y-81801758D01*
X113206794Y-81801759D01*
X113238431Y-81822898D01*
X113417681Y-81897145D01*
X113417693Y-81897148D01*
X113607981Y-81934999D01*
X113607984Y-81935000D01*
X113802016Y-81935000D01*
X113802018Y-81934999D01*
X113992306Y-81897148D01*
X113992314Y-81897146D01*
X114011240Y-81889307D01*
X114080709Y-81881837D01*
X114143189Y-81913110D01*
X114174877Y-81960533D01*
X114186646Y-81992088D01*
X114186649Y-81992093D01*
X114272809Y-82107187D01*
X114272812Y-82107190D01*
X114387906Y-82193350D01*
X114387913Y-82193354D01*
X114522620Y-82243596D01*
X114522627Y-82243598D01*
X114582155Y-82249999D01*
X114582172Y-82250000D01*
X116605000Y-82250000D01*
X116605000Y-79750000D01*
X114582155Y-79750000D01*
X114522627Y-79756401D01*
X114522620Y-79756403D01*
X114387913Y-79806645D01*
X114387906Y-79806649D01*
X114272813Y-79892809D01*
X114201268Y-79988381D01*
X114145334Y-80030252D01*
X114075642Y-80035236D01*
X114054549Y-80028631D01*
X113992318Y-80002854D01*
X113992306Y-80002851D01*
X113802017Y-79965000D01*
X113607983Y-79965000D01*
X113417693Y-80002851D01*
X113417685Y-80002853D01*
X113238428Y-80077103D01*
X113238426Y-80077104D01*
X113206794Y-80098240D01*
X100300000Y-80098240D01*
X100300000Y-75452981D01*
X112740000Y-75452981D01*
X112740000Y-75647018D01*
X112777851Y-75837306D01*
X112777853Y-75837314D01*
X112852102Y-76016568D01*
X112852106Y-76016575D01*
X112873240Y-76048204D01*
X112873241Y-76048205D01*
X113371446Y-75550000D01*
X112873240Y-75051794D01*
X112852104Y-75083426D01*
X112852103Y-75083428D01*
X112777853Y-75262685D01*
X112777851Y-75262693D01*
X112740000Y-75452981D01*
X100300000Y-75452981D01*
X100300000Y-74900000D01*
X90500000Y-74900000D01*
X90500000Y-83700000D01*
X86092315Y-83700000D01*
X86140053Y-83555933D01*
X86150500Y-83453679D01*
X86150499Y-81346322D01*
X86140053Y-81244067D01*
X86133596Y-81224581D01*
X86085160Y-81078406D01*
X86085159Y-81078403D01*
X85993541Y-80929869D01*
X85993538Y-80929865D01*
X85870134Y-80806461D01*
X85870130Y-80806458D01*
X85721596Y-80714840D01*
X85721593Y-80714839D01*
X85555935Y-80659947D01*
X85453680Y-80649500D01*
X83346327Y-80649500D01*
X83346312Y-80649501D01*
X83244064Y-80659947D01*
X83078406Y-80714839D01*
X83078403Y-80714840D01*
X82929869Y-80806458D01*
X82929865Y-80806461D01*
X82806461Y-80929865D01*
X82806458Y-80929869D01*
X82714840Y-81078403D01*
X82714839Y-81078406D01*
X82659947Y-81244063D01*
X82659947Y-81244065D01*
X82649500Y-81346313D01*
X79250498Y-81346313D01*
X79240053Y-81244067D01*
X79233596Y-81224581D01*
X79185160Y-81078406D01*
X79185159Y-81078403D01*
X79093541Y-80929869D01*
X79093538Y-80929865D01*
X78970134Y-80806461D01*
X78970130Y-80806458D01*
X78821596Y-80714840D01*
X78821593Y-80714839D01*
X78655935Y-80659947D01*
X78553680Y-80649500D01*
X76446327Y-80649500D01*
X76446312Y-80649501D01*
X76344064Y-80659947D01*
X76178406Y-80714839D01*
X76178403Y-80714840D01*
X76029869Y-80806458D01*
X76029865Y-80806461D01*
X75906461Y-80929865D01*
X75906458Y-80929869D01*
X75814840Y-81078403D01*
X75814839Y-81078406D01*
X75759947Y-81244063D01*
X75759947Y-81244065D01*
X75749500Y-81346313D01*
X57060000Y-81346313D01*
X57060000Y-81277983D01*
X57059999Y-81277981D01*
X57022148Y-81087693D01*
X57022145Y-81087681D01*
X56947898Y-80908431D01*
X56926758Y-80876794D01*
X56428554Y-81374999D01*
X56305000Y-81374999D01*
X56305000Y-81329250D01*
X56269985Y-81244715D01*
X56205285Y-81180015D01*
X56120750Y-81145000D01*
X56029250Y-81145000D01*
X55955938Y-81175366D01*
X55957403Y-81154889D01*
X55985904Y-81110542D01*
X56573205Y-80523240D01*
X56541575Y-80502106D01*
X56541568Y-80502102D01*
X56362314Y-80427853D01*
X56362306Y-80427851D01*
X56172017Y-80390000D01*
X55977981Y-80390000D01*
X55793809Y-80426634D01*
X55724217Y-80420407D01*
X55669040Y-80377544D01*
X55653436Y-80348350D01*
X55638354Y-80307913D01*
X55638350Y-80307906D01*
X55552190Y-80192812D01*
X55552187Y-80192809D01*
X55437093Y-80106649D01*
X55437086Y-80106645D01*
X55302379Y-80056403D01*
X55302372Y-80056401D01*
X55242844Y-80050000D01*
X53195000Y-80050000D01*
X53195000Y-82550000D01*
X52695000Y-82550000D01*
X52695000Y-80050000D01*
X50647161Y-80050000D01*
X50637751Y-80051012D01*
X50568992Y-80038604D01*
X50517856Y-79990992D01*
X50500500Y-79927722D01*
X50500500Y-77546313D01*
X57349500Y-77546313D01*
X57349500Y-79653672D01*
X57349501Y-79653687D01*
X57359947Y-79755935D01*
X57414839Y-79921593D01*
X57414840Y-79921596D01*
X57506458Y-80070130D01*
X57506461Y-80070134D01*
X57629865Y-80193538D01*
X57629869Y-80193541D01*
X57778403Y-80285159D01*
X57778406Y-80285160D01*
X57885197Y-80320546D01*
X57944067Y-80340053D01*
X58046321Y-80350500D01*
X60153678Y-80350499D01*
X60255933Y-80340053D01*
X60421596Y-80285159D01*
X60570134Y-80193539D01*
X60693539Y-80070134D01*
X60785159Y-79921596D01*
X60840053Y-79755933D01*
X60850500Y-79653679D01*
X60850499Y-78485258D01*
X61449500Y-78485258D01*
X61449500Y-78714741D01*
X61474446Y-78904215D01*
X61479452Y-78942238D01*
X61479453Y-78942240D01*
X61538842Y-79163887D01*
X61626650Y-79375876D01*
X61626657Y-79375890D01*
X61741392Y-79574617D01*
X61881081Y-79756661D01*
X61881089Y-79756670D01*
X62043330Y-79918911D01*
X62043338Y-79918918D01*
X62225382Y-80058607D01*
X62225385Y-80058608D01*
X62225388Y-80058611D01*
X62424112Y-80173344D01*
X62424117Y-80173346D01*
X62424123Y-80173349D01*
X62515480Y-80211190D01*
X62636113Y-80261158D01*
X62857762Y-80320548D01*
X63074312Y-80349057D01*
X63085250Y-80350498D01*
X63085266Y-80350500D01*
X63085273Y-80350500D01*
X63314727Y-80350500D01*
X63314734Y-80350500D01*
X63542238Y-80320548D01*
X63763887Y-80261158D01*
X63975888Y-80173344D01*
X64174612Y-80058611D01*
X64356661Y-79918919D01*
X64356665Y-79918914D01*
X64356670Y-79918911D01*
X64518911Y-79756670D01*
X64518914Y-79756665D01*
X64518919Y-79756661D01*
X64562397Y-79700000D01*
X77300000Y-79700000D01*
X86100000Y-79700000D01*
X86100000Y-74698240D01*
X113226794Y-74698240D01*
X113814096Y-75285542D01*
X113847581Y-75346865D01*
X113847236Y-75351681D01*
X113770750Y-75320000D01*
X113679250Y-75320000D01*
X113594715Y-75355015D01*
X113530015Y-75419715D01*
X113495000Y-75504250D01*
X113495000Y-75595750D01*
X113530015Y-75680285D01*
X113594715Y-75744985D01*
X113679250Y-75780000D01*
X113770750Y-75780000D01*
X113844060Y-75749634D01*
X113842596Y-75770110D01*
X113814095Y-75814457D01*
X113226794Y-76401758D01*
X113226794Y-76401759D01*
X113258431Y-76422898D01*
X113437681Y-76497145D01*
X113437693Y-76497148D01*
X113627981Y-76534999D01*
X113627984Y-76535000D01*
X113822016Y-76535000D01*
X114006189Y-76498365D01*
X114075781Y-76504592D01*
X114130958Y-76547455D01*
X114146563Y-76576648D01*
X114161646Y-76617087D01*
X114161649Y-76617093D01*
X114247809Y-76732187D01*
X114247812Y-76732190D01*
X114362906Y-76818350D01*
X114362913Y-76818354D01*
X114497620Y-76868596D01*
X114497627Y-76868598D01*
X114557155Y-76874999D01*
X114557172Y-76875000D01*
X116605000Y-76875000D01*
X116605000Y-74375000D01*
X114557155Y-74375000D01*
X114497627Y-74381401D01*
X114497620Y-74381403D01*
X114362913Y-74431645D01*
X114362906Y-74431649D01*
X114247812Y-74517809D01*
X114201202Y-74580071D01*
X114145267Y-74621942D01*
X114075575Y-74626925D01*
X114054484Y-74620321D01*
X114012306Y-74602851D01*
X114012306Y-74602850D01*
X113822017Y-74565000D01*
X113627983Y-74565000D01*
X113437693Y-74602851D01*
X113437685Y-74602853D01*
X113258428Y-74677103D01*
X113258426Y-74677104D01*
X113226794Y-74698240D01*
X86100000Y-74698240D01*
X86100000Y-69900000D01*
X77300000Y-69900000D01*
X77300000Y-79700000D01*
X64562397Y-79700000D01*
X64658611Y-79574612D01*
X64773344Y-79375888D01*
X64861158Y-79163887D01*
X64920548Y-78942238D01*
X64950500Y-78714734D01*
X64950500Y-78485266D01*
X64920548Y-78257762D01*
X64861158Y-78036113D01*
X64773344Y-77824112D01*
X64658611Y-77625388D01*
X64658608Y-77625385D01*
X64658607Y-77625382D01*
X64557764Y-77493962D01*
X64518919Y-77443339D01*
X64518918Y-77443338D01*
X64518911Y-77443330D01*
X64356670Y-77281089D01*
X64356661Y-77281081D01*
X64174617Y-77141392D01*
X64154653Y-77129866D01*
X63975888Y-77026656D01*
X63975876Y-77026650D01*
X63763887Y-76938842D01*
X63701583Y-76922148D01*
X63542238Y-76879452D01*
X63504215Y-76874446D01*
X63314741Y-76849500D01*
X63314734Y-76849500D01*
X63085266Y-76849500D01*
X63085258Y-76849500D01*
X62868715Y-76878009D01*
X62857762Y-76879452D01*
X62800680Y-76894747D01*
X62636112Y-76938842D01*
X62424123Y-77026650D01*
X62424109Y-77026657D01*
X62225382Y-77141392D01*
X62043338Y-77281081D01*
X61881081Y-77443338D01*
X61741392Y-77625382D01*
X61626657Y-77824109D01*
X61626650Y-77824123D01*
X61538842Y-78036112D01*
X61479453Y-78257759D01*
X61479451Y-78257770D01*
X61449500Y-78485258D01*
X60850499Y-78485258D01*
X60850499Y-77546322D01*
X60840053Y-77444067D01*
X60785159Y-77278404D01*
X60785159Y-77278403D01*
X60693541Y-77129869D01*
X60693538Y-77129865D01*
X60570134Y-77006461D01*
X60570130Y-77006458D01*
X60421596Y-76914840D01*
X60421593Y-76914839D01*
X60255935Y-76859947D01*
X60153680Y-76849500D01*
X58046327Y-76849500D01*
X58046312Y-76849501D01*
X57944064Y-76859947D01*
X57778406Y-76914839D01*
X57778403Y-76914840D01*
X57629869Y-77006458D01*
X57629865Y-77006461D01*
X57506461Y-77129865D01*
X57506458Y-77129869D01*
X57414840Y-77278403D01*
X57414839Y-77278406D01*
X57359947Y-77444063D01*
X57359947Y-77444065D01*
X57349500Y-77546313D01*
X50500500Y-77546313D01*
X50500500Y-77294589D01*
X50520185Y-77227550D01*
X50572989Y-77181795D01*
X50637758Y-77171300D01*
X50672160Y-77174999D01*
X50672172Y-77175000D01*
X52695000Y-77175000D01*
X53195000Y-77175000D01*
X55217828Y-77175000D01*
X55217844Y-77174999D01*
X55277372Y-77168598D01*
X55277379Y-77168596D01*
X55412086Y-77118354D01*
X55412093Y-77118350D01*
X55527186Y-77032191D01*
X55598732Y-76936618D01*
X55654666Y-76894747D01*
X55724357Y-76889763D01*
X55745453Y-76896368D01*
X55807689Y-76922147D01*
X55807693Y-76922148D01*
X55997981Y-76959999D01*
X55997984Y-76960000D01*
X56192016Y-76960000D01*
X56192018Y-76959999D01*
X56382306Y-76922148D01*
X56382318Y-76922145D01*
X56561565Y-76847899D01*
X56593204Y-76826758D01*
X56005904Y-76239458D01*
X55972419Y-76178135D01*
X55972763Y-76173318D01*
X56049250Y-76205000D01*
X56140750Y-76205000D01*
X56225285Y-76169985D01*
X56289985Y-76105285D01*
X56325000Y-76020750D01*
X56325000Y-75974999D01*
X56448554Y-75974999D01*
X56448554Y-75975000D01*
X56946758Y-76473204D01*
X56967899Y-76441565D01*
X57042145Y-76262318D01*
X57042148Y-76262306D01*
X57079999Y-76072018D01*
X57080000Y-76072016D01*
X57080000Y-75877983D01*
X57079999Y-75877981D01*
X57042148Y-75687693D01*
X57042145Y-75687681D01*
X56967898Y-75508431D01*
X56946758Y-75476794D01*
X56448554Y-75974999D01*
X56325000Y-75974999D01*
X56325000Y-75929250D01*
X56289985Y-75844715D01*
X56225285Y-75780015D01*
X56140750Y-75745000D01*
X56049250Y-75745000D01*
X55975938Y-75775366D01*
X55977403Y-75754889D01*
X56005904Y-75710542D01*
X56593205Y-75123240D01*
X56561575Y-75102106D01*
X56561568Y-75102102D01*
X56382314Y-75027853D01*
X56382306Y-75027851D01*
X56192017Y-74990000D01*
X55997983Y-74990000D01*
X55807693Y-75027850D01*
X55807685Y-75027853D01*
X55788752Y-75035695D01*
X55719282Y-75043161D01*
X55656804Y-75011883D01*
X55625122Y-74964464D01*
X55613355Y-74932915D01*
X55613350Y-74932906D01*
X55527190Y-74817812D01*
X55527187Y-74817809D01*
X55412093Y-74731649D01*
X55412086Y-74731645D01*
X55277379Y-74681403D01*
X55277372Y-74681401D01*
X55217844Y-74675000D01*
X53195000Y-74675000D01*
X53195000Y-77175000D01*
X52695000Y-77175000D01*
X52695000Y-74675000D01*
X50672169Y-74675000D01*
X50637754Y-74678700D01*
X50568995Y-74666294D01*
X50517858Y-74618683D01*
X50500500Y-74555410D01*
X50500500Y-68590502D01*
X59329500Y-68590502D01*
X59329500Y-68809497D01*
X59353306Y-68990314D01*
X59358083Y-69026598D01*
X59414759Y-69238117D01*
X59498560Y-69440428D01*
X59498562Y-69440433D01*
X59498565Y-69440438D01*
X59608049Y-69630070D01*
X59741355Y-69803798D01*
X59741361Y-69803805D01*
X59896194Y-69958638D01*
X59896201Y-69958644D01*
X60069929Y-70091950D01*
X60259561Y-70201434D01*
X60259563Y-70201434D01*
X60259572Y-70201440D01*
X60461883Y-70285241D01*
X60673402Y-70341917D01*
X60890510Y-70370500D01*
X60890517Y-70370500D01*
X61109483Y-70370500D01*
X61109490Y-70370500D01*
X61326598Y-70341917D01*
X61538117Y-70285241D01*
X61740428Y-70201440D01*
X61930071Y-70091950D01*
X62103800Y-69958643D01*
X62258643Y-69803800D01*
X62258647Y-69803795D01*
X62282162Y-69773151D01*
X62348830Y-69686265D01*
X62391950Y-69630071D01*
X62501440Y-69440428D01*
X62585241Y-69238117D01*
X62641917Y-69026598D01*
X62670500Y-68809490D01*
X62670500Y-68590510D01*
X62641917Y-68373402D01*
X62585241Y-68161883D01*
X62501440Y-67959572D01*
X62450014Y-67870500D01*
X62391950Y-67769929D01*
X62258644Y-67596201D01*
X62258638Y-67596194D01*
X62103805Y-67441361D01*
X62103798Y-67441355D01*
X61930070Y-67308049D01*
X61740438Y-67198565D01*
X61740433Y-67198562D01*
X61740428Y-67198560D01*
X61538117Y-67114759D01*
X61538118Y-67114759D01*
X61538115Y-67114758D01*
X61432357Y-67086421D01*
X61326598Y-67058083D01*
X61290314Y-67053306D01*
X61109497Y-67029500D01*
X61109490Y-67029500D01*
X60890510Y-67029500D01*
X60890502Y-67029500D01*
X60683853Y-67056707D01*
X60673402Y-67058083D01*
X60628699Y-67070060D01*
X60461884Y-67114758D01*
X60343374Y-67163847D01*
X60259572Y-67198560D01*
X60259569Y-67198561D01*
X60259561Y-67198565D01*
X60069929Y-67308049D01*
X59896201Y-67441355D01*
X59896194Y-67441361D01*
X59741361Y-67596194D01*
X59741355Y-67596201D01*
X59608049Y-67769929D01*
X59498565Y-67959561D01*
X59498560Y-67959573D01*
X59414758Y-68161884D01*
X59358084Y-68373399D01*
X59358082Y-68373410D01*
X59329500Y-68590502D01*
X50500500Y-68590502D01*
X50500500Y-66090502D01*
X64329500Y-66090502D01*
X64329500Y-66309497D01*
X64353306Y-66490314D01*
X64358083Y-66526598D01*
X64414759Y-66738117D01*
X64498560Y-66940428D01*
X64498562Y-66940433D01*
X64498565Y-66940438D01*
X64608049Y-67130070D01*
X64741355Y-67303798D01*
X64741361Y-67303805D01*
X64896194Y-67458638D01*
X64896201Y-67458644D01*
X65069929Y-67591950D01*
X65259561Y-67701434D01*
X65259563Y-67701434D01*
X65259572Y-67701440D01*
X65461883Y-67785241D01*
X65673402Y-67841917D01*
X65890510Y-67870500D01*
X65890517Y-67870500D01*
X66109483Y-67870500D01*
X66109490Y-67870500D01*
X66326598Y-67841917D01*
X66538117Y-67785241D01*
X66740428Y-67701440D01*
X66930071Y-67591950D01*
X67103800Y-67458643D01*
X67258643Y-67303800D01*
X67391950Y-67130071D01*
X67501440Y-66940428D01*
X67518186Y-66900000D01*
X71700000Y-66900000D01*
X83500000Y-66900000D01*
X83500000Y-63599983D01*
X93054500Y-63599983D01*
X93054500Y-64900001D01*
X93054501Y-64900018D01*
X93065000Y-65002796D01*
X93065001Y-65002799D01*
X93120185Y-65169331D01*
X93120187Y-65169336D01*
X93155069Y-65225888D01*
X93212288Y-65318656D01*
X93336344Y-65442712D01*
X93485666Y-65534814D01*
X93652203Y-65589999D01*
X93754991Y-65600500D01*
X95355008Y-65600499D01*
X95457797Y-65589999D01*
X95624334Y-65534814D01*
X95773656Y-65442712D01*
X95897712Y-65318656D01*
X95989814Y-65169334D01*
X96044999Y-65002797D01*
X96055500Y-64900009D01*
X96055499Y-63599992D01*
X96044999Y-63497203D01*
X95989814Y-63330666D01*
X95897712Y-63181344D01*
X95773656Y-63057288D01*
X95624334Y-62965186D01*
X95624332Y-62965185D01*
X95618440Y-62961551D01*
X95571716Y-62909603D01*
X95560493Y-62840641D01*
X95588337Y-62776558D01*
X95595856Y-62768330D01*
X95734728Y-62629458D01*
X95859620Y-62457557D01*
X95956095Y-62268217D01*
X96021757Y-62066129D01*
X96021757Y-62066126D01*
X96032231Y-62000000D01*
X94988012Y-62000000D01*
X95020925Y-61942993D01*
X95055000Y-61815826D01*
X95055000Y-61684174D01*
X95020925Y-61557007D01*
X94988012Y-61500000D01*
X96032231Y-61500000D01*
X96021757Y-61433873D01*
X96021757Y-61433870D01*
X95956095Y-61231782D01*
X95859620Y-61042442D01*
X95734727Y-60870540D01*
X95734723Y-60870535D01*
X95584464Y-60720276D01*
X95584459Y-60720272D01*
X95412557Y-60595379D01*
X95223217Y-60498904D01*
X95021129Y-60433242D01*
X94811246Y-60400000D01*
X94805000Y-60400000D01*
X94805000Y-61316988D01*
X94747993Y-61284075D01*
X94620826Y-61250000D01*
X94489174Y-61250000D01*
X94362007Y-61284075D01*
X94305000Y-61316988D01*
X94305000Y-60400000D01*
X94298754Y-60400000D01*
X94088872Y-60433242D01*
X94088869Y-60433242D01*
X93886782Y-60498904D01*
X93697442Y-60595379D01*
X93525540Y-60720272D01*
X93525535Y-60720276D01*
X93375276Y-60870535D01*
X93375272Y-60870540D01*
X93250379Y-61042442D01*
X93153904Y-61231782D01*
X93088242Y-61433870D01*
X93088242Y-61433873D01*
X93077769Y-61500000D01*
X94121988Y-61500000D01*
X94089075Y-61557007D01*
X94055000Y-61684174D01*
X94055000Y-61815826D01*
X94089075Y-61942993D01*
X94121988Y-62000000D01*
X93077769Y-62000000D01*
X93088242Y-62066126D01*
X93088242Y-62066129D01*
X93153904Y-62268217D01*
X93250379Y-62457557D01*
X93375272Y-62629459D01*
X93375276Y-62629464D01*
X93514143Y-62768331D01*
X93547628Y-62829654D01*
X93542644Y-62899346D01*
X93500772Y-62955279D01*
X93491559Y-62961551D01*
X93336342Y-63057289D01*
X93212289Y-63181342D01*
X93120187Y-63330663D01*
X93120186Y-63330666D01*
X93065001Y-63497203D01*
X93065001Y-63497204D01*
X93065000Y-63497204D01*
X93054500Y-63599983D01*
X83500000Y-63599983D01*
X83500000Y-58100000D01*
X71700000Y-58100000D01*
X71700000Y-66900000D01*
X67518186Y-66900000D01*
X67585241Y-66738117D01*
X67641917Y-66526598D01*
X67670500Y-66309490D01*
X67670500Y-66090510D01*
X67641917Y-65873402D01*
X67585241Y-65661883D01*
X67501440Y-65459572D01*
X67420082Y-65318656D01*
X67391950Y-65269929D01*
X67258644Y-65096201D01*
X67258638Y-65096194D01*
X67103805Y-64941361D01*
X67103798Y-64941355D01*
X66930070Y-64808049D01*
X66740438Y-64698565D01*
X66740433Y-64698562D01*
X66740428Y-64698560D01*
X66538117Y-64614759D01*
X66538118Y-64614759D01*
X66538115Y-64614758D01*
X66432357Y-64586421D01*
X66326598Y-64558083D01*
X66290314Y-64553306D01*
X66109497Y-64529500D01*
X66109490Y-64529500D01*
X65890510Y-64529500D01*
X65890502Y-64529500D01*
X65683853Y-64556707D01*
X65673402Y-64558083D01*
X65628699Y-64570060D01*
X65461884Y-64614758D01*
X65343374Y-64663847D01*
X65259572Y-64698560D01*
X65259569Y-64698561D01*
X65259561Y-64698565D01*
X65069929Y-64808049D01*
X64896201Y-64941355D01*
X64896194Y-64941361D01*
X64741361Y-65096194D01*
X64741355Y-65096201D01*
X64608049Y-65269929D01*
X64498565Y-65459561D01*
X64498560Y-65459573D01*
X64414758Y-65661884D01*
X64358084Y-65873399D01*
X64358082Y-65873410D01*
X64329500Y-66090502D01*
X50500500Y-66090502D01*
X50500500Y-63590548D01*
X59330000Y-63590548D01*
X59330000Y-63809451D01*
X59330001Y-63809467D01*
X59358573Y-64026496D01*
X59415234Y-64237956D01*
X59499004Y-64440198D01*
X59499012Y-64440214D01*
X59608460Y-64629782D01*
X59608466Y-64629790D01*
X59655438Y-64691007D01*
X60398958Y-63947487D01*
X60423978Y-64007890D01*
X60495112Y-64114351D01*
X60585649Y-64204888D01*
X60692110Y-64276022D01*
X60752511Y-64301041D01*
X60008991Y-65044560D01*
X60008991Y-65044561D01*
X60070200Y-65091527D01*
X60070208Y-65091532D01*
X60259792Y-65200990D01*
X60259801Y-65200995D01*
X60462043Y-65284765D01*
X60673503Y-65341426D01*
X60890532Y-65369998D01*
X60890549Y-65370000D01*
X61109451Y-65370000D01*
X61109467Y-65369998D01*
X61326496Y-65341426D01*
X61537956Y-65284765D01*
X61740198Y-65200995D01*
X61740214Y-65200987D01*
X61929785Y-65091537D01*
X61929793Y-65091531D01*
X61991007Y-65044560D01*
X61247488Y-64301041D01*
X61307890Y-64276022D01*
X61414351Y-64204888D01*
X61504888Y-64114351D01*
X61576022Y-64007890D01*
X61601041Y-63947488D01*
X62344560Y-64691007D01*
X62391531Y-64629793D01*
X62391537Y-64629785D01*
X62500987Y-64440214D01*
X62500995Y-64440198D01*
X62584765Y-64237956D01*
X62641426Y-64026496D01*
X62669998Y-63809467D01*
X62670000Y-63809451D01*
X62670000Y-63590548D01*
X62669999Y-63590529D01*
X62641426Y-63373503D01*
X62584765Y-63162043D01*
X62500995Y-62959801D01*
X62500990Y-62959792D01*
X62391532Y-62770208D01*
X62391527Y-62770200D01*
X62344560Y-62708991D01*
X61601041Y-63452510D01*
X61576022Y-63392110D01*
X61504888Y-63285649D01*
X61414351Y-63195112D01*
X61307890Y-63123978D01*
X61247487Y-63098957D01*
X61991007Y-62355438D01*
X61991007Y-62355437D01*
X61929790Y-62308466D01*
X61929782Y-62308460D01*
X61740214Y-62199012D01*
X61740198Y-62199004D01*
X61537956Y-62115234D01*
X61326496Y-62058573D01*
X61109467Y-62030001D01*
X61109451Y-62030000D01*
X60890549Y-62030000D01*
X60890532Y-62030001D01*
X60673503Y-62058573D01*
X60462043Y-62115234D01*
X60259801Y-62199004D01*
X60259785Y-62199012D01*
X60070215Y-62308461D01*
X60070200Y-62308471D01*
X60008990Y-62355438D01*
X60752511Y-63098958D01*
X60692110Y-63123978D01*
X60585649Y-63195112D01*
X60495112Y-63285649D01*
X60423978Y-63392110D01*
X60398958Y-63452511D01*
X59655438Y-62708990D01*
X59608471Y-62770200D01*
X59608461Y-62770215D01*
X59499012Y-62959785D01*
X59499004Y-62959801D01*
X59415234Y-63162043D01*
X59358573Y-63373503D01*
X59330001Y-63590529D01*
X59330000Y-63590548D01*
X50500500Y-63590548D01*
X50500500Y-50624500D01*
X50520185Y-50557461D01*
X50572989Y-50511706D01*
X50624500Y-50500500D01*
X119375500Y-50500500D01*
X119442539Y-50520185D01*
G37*
%TD.AperFunction*%
%TD*%
M02*
